<?xml version="1.0" standalone="no"?>
<!DOCTYPE svg PUBLIC "-//W3C//DTD SVG 1.1//EN" "http://www.w3.org/Graphics/SVG/1.1/DTD/svg11.dtd" >
<svg xmlns="http://www.w3.org/2000/svg" xmlns:xlink="http://www.w3.org/1999/xlink" version="1.1">
<metadata>
Created by FontForge 20160405 at Sat Mar 24 06:10:37 2018
 By www-data
Copyright (C) 2011-2012 Severin Meyer
</metadata>
<defs>
<font id="Xolonium" horiz-adv-x="890" >
  <font-face 
    font-family="Xolonium"
    font-weight="400"
    font-stretch="normal"
    units-per-em="1000"
    panose-1="2 0 5 3 0 0 0 0 0 0"
    ascent="800"
    descent="-200"
    x-height="480"
    cap-height="660"
    bbox="-430 -225 1610 890"
    underline-thickness="60"
    underline-position="-75"
    stemh="85"
    stemv="150"
    unicode-range="U+0020-FB04"
  />
<missing-glyph horiz-adv-x="700" 
d="M100 0v660h500v-660h-500zM200 50h300v560h-300v-560z" />
    <glyph glyph-name=".notdef" horiz-adv-x="700" 
d="M100 0v660h500v-660h-500zM200 50h300v560h-300v-560z" />
    <glyph glyph-name="space" unicode=" " horiz-adv-x="400" 
 />
    <glyph glyph-name="exclam" unicode="!" horiz-adv-x="300" 
d="M75 0v120h150v-120h-150zM75 225v435h150v-435h-150z" />
    <glyph glyph-name="quotedbl" unicode="&#x22;" horiz-adv-x="510" 
d="M315 410v250h120v-250h-120zM75 410v250h120v-250h-120z" />
    <glyph glyph-name="numbersign" unicode="#" horiz-adv-x="870" 
d="M60 150v90h100l60 180h-120v90h150l50 150h130l-50 -150h230l50 150h130l-50 -150h70v-90h-100l-60 -180h120v-90h-150l-50 -150h-130l50 150h-230l-50 -150h-130l50 150h-70zM290 240h230l60 180h-230z" />
    <glyph glyph-name="dollar" unicode="$" 
d="M70 0v85h315v240h-75c-120 0 -240 0 -240 135v65c0 135 120 135 240 135h75v85h120v-85h265v-85h-265v-165h75c120 0 240 0 240 -135v-140c0 -135 -120 -135 -240 -135h-75v-85h-120v85h-315zM220 445c0 -35 30 -35 60 -35h105v165h-105c-30 0 -60 0 -60 -35v-95zM505 85
h105c30 0 60 0 60 35v170c0 35 -30 35 -60 35h-105v-240z" />
    <glyph glyph-name="percent" unicode="%" horiz-adv-x="1190" 
d="M710 90v160c0 90 80 90 160 90h100c80 0 160 0 160 -90v-160c0 -90 -80 -90 -160 -90h-100c-80 0 -160 0 -160 90zM830 85c0 -25 20 -25 40 -25h100c20 0 40 0 40 25v170c0 25 -20 25 -40 25h-100c-20 0 -40 0 -40 -25v-170zM60 410v160c0 90 80 90 160 90h100
c80 0 160 0 160 -90v-160c0 -90 -80 -90 -160 -90h-100c-80 0 -160 0 -160 90zM180 405c0 -25 20 -25 40 -25h100c20 0 40 0 40 25v170c0 25 -20 25 -40 25h-100c-20 0 -40 0 -40 -25v-170zM370 0l330 660h120l-330 -660h-120z" />
    <glyph glyph-name="ampersand" unicode="&#x26;" 
d="M70 135v155c0 90 85 120 150 120c-55 55 -70 70 -70 115c0 135 120 135 240 135h80c120 0 240 0 240 -135v-15h-150v30c0 35 -30 35 -60 35h-140c-30 0 -60 0 -60 -35v-20c0 -20 10 -30 20 -40l350 -350v170h150v-165c0 -135 -120 -135 -240 -135h-270
c-120 0 -240 0 -240 135zM220 120c0 -35 30 -35 60 -35h265l-240 240h-25c-30 0 -60 0 -60 -35v-170z" />
    <glyph glyph-name="quotesingle" unicode="'" horiz-adv-x="270" 
d="M75 410v250h120v-250h-120z" />
    <glyph glyph-name="parenleft" unicode="(" horiz-adv-x="395" 
d="M75 220c0 160 60 320 160 440h100c-90 -120 -140 -280 -140 -440s50 -325 140 -445h-100c-100 120 -160 285 -160 445z" />
    <glyph glyph-name="parenright" unicode=")" horiz-adv-x="395" 
d="M60 -225c90 120 140 285 140 445s-50 320 -140 440h100c100 -120 160 -280 160 -440s-60 -325 -160 -445h-100z" />
    <glyph glyph-name="asterisk" unicode="*" horiz-adv-x="649" 
d="M60 448l34 105l175 -57v164h110v-164l176 57l34 -105l-176 -57l97 -133l-89 -64l-97 132l-96 -132l-89 64l96 133z" />
    <glyph glyph-name="plus" unicode="+" horiz-adv-x="700" 
d="M60 190v100h215v190h150v-190h215v-100h-215v-190h-150v190h-215z" />
    <glyph glyph-name="comma" unicode="," horiz-adv-x="320" 
d="M45 -150l60 270h140l-120 -270h-80z" />
    <glyph glyph-name="hyphen" unicode="-" horiz-adv-x="520" 
d="M60 190v100h400v-100h-400z" />
    <glyph glyph-name="period" unicode="." horiz-adv-x="300" 
d="M75 0v120h150v-120h-150z" />
    <glyph glyph-name="slash" unicode="/" horiz-adv-x="620" 
d="M60 -100l380 760h120l-380 -760h-120z" />
    <glyph glyph-name="zero" unicode="0" horiz-adv-x="870" 
d="M60 135v390c0 135 120 135 240 135h270c120 0 240 0 240 -135v-390c0 -135 -120 -135 -240 -135h-270c-120 0 -240 0 -240 135zM210 120c0 -35 30 -35 60 -35h330c30 0 60 0 60 35v420c0 35 -30 35 -60 35h-330c-30 0 -60 0 -60 -35v-420z" />
    <glyph glyph-name="one" unicode="1" horiz-adv-x="870" 
d="M650 660v-660h-150v575h-220v85h370z" />
    <glyph glyph-name="two" unicode="2" horiz-adv-x="870" 
d="M60 0v275c0 135 120 135 240 135h300c30 0 60 0 60 35v95c0 35 -30 35 -60 35h-490v85h460c120 0 240 0 240 -135v-65c0 -135 -120 -135 -240 -135h-300c-30 0 -60 0 -60 -35v-205h600v-85h-750z" />
    <glyph glyph-name="three" unicode="3" horiz-adv-x="870" 
d="M90 0v85h510c30 0 60 0 60 35v170c0 35 -30 35 -60 35h-420v85h420c30 0 60 0 60 35v95c0 35 -30 35 -60 35h-510v85h480c120 0 240 0 240 -135v-55c0 -60 -40 -90 -80 -100c40 -10 80 -40 80 -100v-135c0 -135 -120 -135 -240 -135h-480z" />
    <glyph glyph-name="four" unicode="4" horiz-adv-x="870" 
d="M60 155v85l540 420h210v-660h-150v155h-600zM255 240h405v315z" />
    <glyph glyph-name="five" unicode="5" horiz-adv-x="870" 
d="M60 0v85h540c30 0 60 0 60 35v170c0 35 -30 35 -60 35h-540v335h700v-85h-550v-165h360c120 0 240 0 240 -135v-140c0 -135 -120 -135 -240 -135h-510z" />
    <glyph glyph-name="six" unicode="6" horiz-adv-x="870" 
d="M60 135v365c0 160 140 160 280 160h420v-85h-410c-70 0 -140 0 -140 -80v-85h360c120 0 240 0 240 -135v-140c0 -135 -120 -135 -240 -135h-270c-120 0 -240 0 -240 135zM210 120c0 -35 30 -35 60 -35h330c30 0 60 0 60 35v170c0 35 -30 35 -60 35h-330
c-30 0 -60 0 -60 -35v-170z" />
    <glyph glyph-name="seven" unicode="7" horiz-adv-x="870" 
d="M60 575v85h750v-85l-380 -575h-170l380 575h-580z" />
    <glyph glyph-name="eight" unicode="8" horiz-adv-x="870" 
d="M60 135v135c0 60 40 90 80 100c-40 10 -80 40 -80 100v55c0 135 120 135 240 135h270c120 0 240 0 240 -135v-55c0 -60 -40 -90 -80 -100c40 -10 80 -40 80 -100v-135c0 -135 -120 -135 -240 -135h-270c-120 0 -240 0 -240 135zM210 120c0 -35 30 -35 60 -35h330
c30 0 60 0 60 35v170c0 35 -30 35 -60 35h-330c-30 0 -60 0 -60 -35v-170zM210 445c0 -35 30 -35 60 -35h330c30 0 60 0 60 35v95c0 35 -30 35 -60 35h-330c-30 0 -60 0 -60 -35v-95z" />
    <glyph glyph-name="nine" unicode="9" horiz-adv-x="870" 
d="M60 460v65c0 135 120 135 240 135h270c120 0 240 0 240 -135v-365c0 -160 -140 -160 -280 -160h-430v85h420c70 0 140 0 140 80v160h-360c-120 0 -240 0 -240 135zM210 445c0 -35 30 -35 60 -35h330c30 0 60 0 60 35v95c0 35 -30 35 -60 35h-330c-30 0 -60 0 -60 -35v-95
z" />
    <glyph glyph-name="colon" unicode=":" horiz-adv-x="300" 
d="M75 360v120h150v-120h-150zM75 0v120h150v-120h-150z" />
    <glyph glyph-name="semicolon" unicode=";" horiz-adv-x="330" 
d="M45 -150l60 270h140l-120 -270h-80zM105 360v120h150v-120h-150z" />
    <glyph glyph-name="less" unicode="&#x3c;" horiz-adv-x="750" 
d="M60 190v100l630 210v-100l-480 -160l480 -160v-100z" />
    <glyph glyph-name="equal" unicode="=" horiz-adv-x="700" 
d="M60 75v100h580v-100h-580zM60 305v100h580v-100h-580z" />
    <glyph glyph-name="greater" unicode="&#x3e;" horiz-adv-x="750" 
d="M60 -20v100l480 160l-480 160v100l630 -210v-100z" />
    <glyph glyph-name="question" unicode="?" horiz-adv-x="850" 
d="M75 575v85h460c120 0 240 0 240 -135v-65c0 -135 -120 -135 -240 -135h-60c-30 0 -60 0 -60 -35v-65h-150v50c0 135 120 135 240 135h60c30 0 60 0 60 35v95c0 35 -30 35 -60 35h-490zM265 0v120h150v-120h-150z" />
    <glyph glyph-name="at" unicode="@" horiz-adv-x="1210" 
d="M75 -50v580c0 115 100 115 200 115h660c100 0 200 0 200 -115v-530h-620c-100 0 -200 0 -200 115v250c0 115 100 115 200 115h380v-405h120v455c0 55 -50 55 -100 55h-620c-50 0 -100 0 -100 -55v-580c0 -55 50 -55 100 -55h800v-60h-820c-100 0 -200 0 -200 115z
M455 105c0 -30 25 -30 50 -30h250v330h-250c-25 0 -50 0 -50 -30v-270z" />
    <glyph glyph-name="A" unicode="A" 
d="M20 0l330 660h190l330 -660h-150l-105 210h-340l-105 -210h-150zM315 290h260l-130 260z" />
    <glyph glyph-name="B" unicode="B" 
d="M70 0v660h500c120 0 240 0 240 -135v-55c0 -60 -40 -90 -80 -100c40 -10 90 -30 90 -100v-135c0 -135 -120 -135 -240 -135h-510zM220 85h390c30 0 60 0 60 35v170c0 35 -30 35 -60 35h-390v-240zM220 410h380c30 0 60 0 60 35v95c0 35 -30 35 -60 35h-380v-165z" />
    <glyph glyph-name="C" unicode="C" horiz-adv-x="840" 
d="M70 135v390c0 135 120 135 240 135h460v-85h-490c-30 0 -60 0 -60 -35v-420c0 -35 30 -35 60 -35h490v-85h-460c-120 0 -240 0 -240 135z" />
    <glyph glyph-name="D" unicode="D" 
d="M70 0v660h390c180 0 360 -60 360 -300v-60c0 -240 -180 -300 -360 -300h-390zM220 85h210c120 0 240 40 240 200v90c0 160 -120 200 -240 200h-210v-490z" />
    <glyph glyph-name="E" unicode="E" horiz-adv-x="840" 
d="M70 0v660h700v-85h-550v-165h500v-85h-500v-240h550v-85h-700z" />
    <glyph glyph-name="F" unicode="F" horiz-adv-x="820" 
d="M70 0v660h700v-85h-550v-165h490v-85h-490v-325h-150z" />
    <glyph glyph-name="G" unicode="G" 
d="M70 135v390c0 135 120 135 240 135h460v-85h-490c-30 0 -60 0 -60 -35v-420c0 -35 30 -35 60 -35h330c30 0 60 0 60 35v205h-150v85h300v-275c0 -135 -120 -135 -240 -135h-270c-120 0 -240 0 -240 135z" />
    <glyph glyph-name="H" unicode="H" 
d="M70 0v660h150v-250h450v250h150v-660h-150v325h-450v-325h-150z" />
    <glyph glyph-name="I" unicode="I" horiz-adv-x="290" 
d="M70 0v660h150v-660h-150z" />
    <glyph glyph-name="J" unicode="J" 
d="M70 135v120h150v-135c0 -35 30 -35 60 -35h330c30 0 60 0 60 35v540h150v-525c0 -135 -120 -135 -240 -135h-270c-120 0 -240 0 -240 135z" />
    <glyph glyph-name="K" unicode="K" horiz-adv-x="810" 
d="M70 0v660h150v-350l350 350h180l-310 -310l350 -350h-180l-260 260l-130 -130v-130h-150z" />
    <glyph glyph-name="L" unicode="L" horiz-adv-x="800" 
d="M70 0v660h150v-575h550v-85h-700z" />
    <glyph glyph-name="M" unicode="M" horiz-adv-x="1050" 
d="M70 0v660h200l255 -510l255 510h200v-660h-150v490l-245 -490h-120l-245 490v-490h-150z" />
    <glyph glyph-name="N" unicode="N" 
d="M70 0v660h160l440 -490v490h150v-660h-160l-440 490v-490h-150z" />
    <glyph glyph-name="O" unicode="O" 
d="M70 135v390c0 135 120 135 240 135h270c120 0 240 0 240 -135v-390c0 -135 -120 -135 -240 -135h-270c-120 0 -240 0 -240 135zM220 120c0 -35 30 -35 60 -35h330c30 0 60 0 60 35v420c0 35 -30 35 -60 35h-330c-30 0 -60 0 -60 -35v-420z" />
    <glyph glyph-name="P" unicode="P" 
d="M70 0v660h510c120 0 240 0 240 -135v-120c0 -135 -120 -135 -240 -135h-360v-270h-150zM220 355h390c30 0 60 0 60 35v150c0 35 -30 35 -60 35h-390v-220z" />
    <glyph glyph-name="Q" unicode="Q" 
d="M70 135v390c0 135 120 135 240 135h270c120 0 240 0 240 -135v-390c0 -135 -120 -135 -240 -135l150 -150h-180l-150 150h-90c-120 0 -240 0 -240 135zM220 120c0 -35 30 -35 60 -35h330c30 0 60 0 60 35v420c0 35 -30 35 -60 35h-330c-30 0 -60 0 -60 -35v-420z" />
    <glyph glyph-name="R" unicode="R" 
d="M70 0v660h510c120 0 240 0 240 -135v-100c0 -135 -120 -135 -240 -135h-10l290 -290h-180l-290 290h-170v-290h-150zM220 375h390c30 0 60 0 60 35v130c0 35 -30 35 -60 35h-390v-200z" />
    <glyph glyph-name="S" unicode="S" 
d="M70 0v85h540c30 0 60 0 60 35v170c0 35 -30 35 -60 35h-300c-120 0 -240 0 -240 135v65c0 135 120 135 240 135h460v-85h-490c-30 0 -60 0 -60 -35v-95c0 -35 30 -35 60 -35h300c120 0 240 0 240 -135v-140c0 -135 -120 -135 -240 -135h-510z" />
    <glyph glyph-name="T" unicode="T" 
d="M30 575v85h830v-85h-340v-575h-150v575h-340z" />
    <glyph glyph-name="U" unicode="U" 
d="M70 135v525h150v-540c0 -35 30 -35 60 -35h330c30 0 60 0 60 35v540h150v-525c0 -135 -120 -135 -240 -135h-270c-120 0 -240 0 -240 135z" />
    <glyph glyph-name="V" unicode="V" 
d="M20 660h155l270 -540l270 540h155l-330 -660h-190z" />
    <glyph glyph-name="W" unicode="W" horiz-adv-x="1200" 
d="M20 660h150l175 -525l165 495h180l165 -495l175 525h150l-220 -660h-190l-170 510l-170 -510h-190z" />
    <glyph glyph-name="X" unicode="X" horiz-adv-x="880" 
d="M20 660h180l240 -240l240 240h180l-330 -330l330 -330h-180l-240 240l-240 -240h-180l330 330z" />
    <glyph glyph-name="Y" unicode="Y" 
d="M20 660h180l245 -245l245 245h180l-350 -350v-310h-150v310z" />
    <glyph glyph-name="Z" unicode="Z" horiz-adv-x="850" 
d="M50 0v85l535 490h-515v85h710v-85l-535 -490h555v-85h-750z" />
    <glyph glyph-name="bracketleft" unicode="[" horiz-adv-x="455" 
d="M75 -225v885h320v-75h-200v-735h200v-75h-320z" />
    <glyph glyph-name="backslash" unicode="\" horiz-adv-x="620" 
d="M60 660h120l380 -760h-120z" />
    <glyph glyph-name="bracketright" unicode="]" horiz-adv-x="455" 
d="M60 -150h200v735h-200v75h320v-885h-320v75z" />
    <glyph glyph-name="asciicircum" unicode="^" horiz-adv-x="600" 
d="M60 300l180 360h120l180 -360h-120l-120 240l-120 -240h-120z" />
    <glyph glyph-name="underscore" unicode="_" horiz-adv-x="640" 
d="M20 -150h600v-75h-600v75z" />
    <glyph glyph-name="grave" unicode="`" horiz-adv-x="500" 
d="M90 710h150l100 -160h-90z" />
    <glyph glyph-name="a" unicode="a" horiz-adv-x="700" 
d="M60 115v70c0 115 100 115 200 115h240v75c0 30 -25 30 -50 30h-350v75h340c100 0 200 0 200 -115v-365h-380c-100 0 -200 0 -200 115zM200 105c0 -30 25 -30 50 -30h250v150h-250c-25 0 -50 0 -50 -30v-90z" />
    <glyph glyph-name="b" unicode="b" horiz-adv-x="700" 
d="M60 0v660h140v-180h240c100 0 200 0 200 -115v-250c0 -115 -100 -115 -200 -115h-380zM200 75h250c25 0 50 0 50 30v270c0 30 -25 30 -50 30h-250v-330z" />
    <glyph glyph-name="c" unicode="c" horiz-adv-x="660" 
d="M60 115v250c0 115 100 115 200 115h340v-75h-350c-25 0 -50 0 -50 -30v-270c0 -30 25 -30 50 -30h350v-75h-340c-100 0 -200 0 -200 115z" />
    <glyph glyph-name="d" unicode="d" horiz-adv-x="700" 
d="M60 115v250c0 115 100 115 200 115h240v180h140v-660h-380c-100 0 -200 0 -200 115zM200 105c0 -30 25 -30 50 -30h250v330h-250c-25 0 -50 0 -50 -30v-270z" />
    <glyph glyph-name="e" unicode="e" horiz-adv-x="700" 
d="M60 115v250c0 115 100 115 200 115h180c100 0 200 0 200 -115v-140h-440v-120c0 -30 25 -30 50 -30h370v-75h-360c-100 0 -200 0 -200 115zM200 300h300v75c0 30 -25 30 -50 30h-200c-25 0 -50 0 -50 -30v-75z" />
    <glyph glyph-name="f" unicode="f" horiz-adv-x="460" 
d="M60 0v545c0 115 100 115 200 115h140v-75h-150c-25 0 -50 0 -50 -30v-75h200v-75h-200v-405h-140z" />
    <glyph glyph-name="g" unicode="g" horiz-adv-x="700" 
d="M60 115v250c0 115 100 115 200 115h380v-605c0 -100 -100 -100 -200 -100h-360v75h370c25 0 50 0 50 25v125h-240c-100 0 -200 0 -200 115zM200 105c0 -30 25 -30 50 -30h250v330h-250c-25 0 -50 0 -50 -30v-270z" />
    <glyph glyph-name="h" unicode="h" horiz-adv-x="700" 
d="M60 0v660h140v-180h240c100 0 200 0 200 -115v-365h-140v375c0 30 -25 30 -50 30h-250v-405h-140z" />
    <glyph glyph-name="i" unicode="i" horiz-adv-x="260" 
d="M60 0v480h140v-480h-140zM60 560v100h140v-100h-140z" />
    <glyph glyph-name="j" unicode="j" horiz-adv-x="260" 
d="M-50 -150c80 20 110 60 110 150v480h140v-480c0 -200 -150 -215 -250 -225v75zM60 560v100h140v-100h-140z" />
    <glyph glyph-name="k" unicode="k" horiz-adv-x="640" 
d="M60 0v660h140v-420l240 240h160l-230 -230l250 -250h-160l-170 170l-90 -90v-80h-140z" />
    <glyph glyph-name="l" unicode="l" horiz-adv-x="260" 
d="M60 0v660h140v-660h-140z" />
    <glyph glyph-name="m" unicode="m" horiz-adv-x="900" 
d="M60 0v480h580c100 0 200 0 200 -115v-365h-140v375c0 30 -25 30 -50 30h-130v-405h-140v375c0 30 -25 30 -50 30h-130v-405h-140z" />
    <glyph glyph-name="n" unicode="n" horiz-adv-x="700" 
d="M60 0v480h380c100 0 200 0 200 -115v-365h-140v375c0 30 -25 30 -50 30h-250v-405h-140z" />
    <glyph glyph-name="o" unicode="o" horiz-adv-x="700" 
d="M60 115v250c0 115 100 115 200 115h180c100 0 200 0 200 -115v-250c0 -115 -100 -115 -200 -115h-180c-100 0 -200 0 -200 115zM200 105c0 -30 25 -30 50 -30h200c25 0 50 0 50 30v270c0 30 -25 30 -50 30h-200c-25 0 -50 0 -50 -30v-270z" />
    <glyph glyph-name="p" unicode="p" horiz-adv-x="700" 
d="M60 -225v705h380c100 0 200 0 200 -115v-250c0 -115 -100 -115 -200 -115h-240v-225h-140zM200 75h250c25 0 50 0 50 30v270c0 30 -25 30 -50 30h-250v-330z" />
    <glyph glyph-name="q" unicode="q" horiz-adv-x="700" 
d="M60 115v250c0 115 100 115 200 115h380v-705h-140v225h-240c-100 0 -200 0 -200 115zM200 105c0 -30 25 -30 50 -30h250v330h-250c-25 0 -50 0 -50 -30v-270z" />
    <glyph glyph-name="r" unicode="r" horiz-adv-x="460" 
d="M60 0v365c0 115 100 115 200 115h140v-75h-150c-25 0 -50 0 -50 -30v-375h-140z" />
    <glyph glyph-name="s" unicode="s" horiz-adv-x="700" 
d="M60 0v75h390c25 0 50 0 50 30v90c0 30 -25 30 -50 30h-190c-100 0 -200 0 -200 115v25c0 115 100 115 200 115h340v-75h-350c-25 0 -50 0 -50 -30v-45c0 -30 25 -30 50 -30h190c100 0 200 0 200 -115v-70c0 -115 -100 -115 -200 -115h-380z" />
    <glyph glyph-name="t" unicode="t" horiz-adv-x="460" 
d="M60 115v545h140v-180h200v-75h-200v-300c0 -30 25 -30 50 -30h150v-75h-140c-100 0 -200 0 -200 115z" />
    <glyph glyph-name="u" unicode="u" horiz-adv-x="700" 
d="M60 115v365h140v-375c0 -30 25 -30 50 -30h200c25 0 50 0 50 30v375h140v-365c0 -115 -100 -115 -200 -115h-180c-100 0 -200 0 -200 115z" />
    <glyph glyph-name="v" unicode="v" horiz-adv-x="680" 
d="M20 480h140l180 -360l180 360h140l-240 -480h-160z" />
    <glyph glyph-name="w" unicode="w" horiz-adv-x="880" 
d="M20 480h130l115 -345l105 315h140l105 -315l115 345h130l-160 -480h-150l-110 330l-110 -330h-150z" />
    <glyph glyph-name="x" unicode="x" horiz-adv-x="680" 
d="M20 0l240 240l-240 240h160l160 -160l160 160h160l-240 -240l240 -240h-160l-160 160l-160 -160h-160z" />
    <glyph glyph-name="y" unicode="y" horiz-adv-x="680" 
d="M20 480h140l180 -360l180 360h140l-300 -600c-30 -60 -55 -105 -150 -105h-130v75h80c45 0 50 10 65 40l45 90z" />
    <glyph glyph-name="z" unicode="z" horiz-adv-x="680" 
d="M50 0v75l385 330h-365v75h540v-75l-385 -330h405v-75h-580z" />
    <glyph glyph-name="braceleft" unicode="{" horiz-adv-x="625" 
d="M75 175v100l170 85v185c0 115 100 115 200 115h120v-75h-150c-25 0 -50 0 -50 -30v-235l-190 -95l190 -95v-250c0 -30 25 -30 50 -30h150v-75h-120c-100 0 -200 0 -200 115v200z" />
    <glyph glyph-name="bar" unicode="|" horiz-adv-x="320" 
d="M100 -225v885h120v-885h-120z" />
    <glyph glyph-name="braceright" unicode="}" horiz-adv-x="625" 
d="M60 -150h150c25 0 50 0 50 30v250l190 95l-190 95v235c0 30 -25 30 -50 30h-150v75h120c100 0 200 0 200 -115v-185l170 -85v-100l-170 -85v-200c0 -115 -100 -115 -200 -115h-120v75z" />
    <glyph glyph-name="asciitilde" unicode="~" horiz-adv-x="720" 
d="M60 220c60 120 95 190 170 190c25 0 35 -5 65 -20l150 -75c6 -3 10 -3 15 -3c21 0 45 48 70 98h130c-60 -120 -95 -190 -170 -190c-25 0 -35 5 -65 20l-150 75c-6 3 -10 3 -15 3c-21 0 -45 -48 -70 -98h-130z" />
    <glyph glyph-name="uni00A0" unicode="&#xa0;" horiz-adv-x="400" 
 />
    <glyph glyph-name="exclamdown" unicode="&#xa1;" horiz-adv-x="300" 
d="M75 210h150v-435h-150v435zM75 315v120h150v-120h-150z" />
    <glyph glyph-name="cent" unicode="&#xa2;" horiz-adv-x="660" 
d="M60 115v250c0 115 100 115 200 115h60v75h100v-75h180v-75h-180v-330h180v-75h-180v-75h-100v75h-60c-100 0 -200 0 -200 115zM200 105c0 -30 25 -30 50 -30h70v330h-70c-25 0 -50 0 -50 -30v-270z" />
    <glyph glyph-name="sterling" unicode="&#xa3;" 
d="M70 0v85h100v240h-100v75h100v125c0 135 120 135 240 135h170c120 0 240 0 240 -135v-35h-150v50c0 35 -30 35 -60 35h-230c-30 0 -60 0 -60 -35v-140h250v-75h-250v-240h500v-85h-750z" />
    <glyph glyph-name="currency" unicode="&#xa4;" horiz-adv-x="780" 
d="M60 140l100 100v180l-100 100l80 80l100 -100h300l100 100l80 -80l-100 -100v-180l100 -100l-80 -80l-100 100h-300l-100 -100zM280 260c0 -25 20 -25 40 -25h140c20 0 40 0 40 25v140c0 25 -20 25 -40 25h-140c-20 0 -40 0 -40 -25v-140z" />
    <glyph glyph-name="yen" unicode="&#xa5;" 
d="M20 660h180l245 -245l245 245h180l-335 -335h185v-75h-200v-60h200v-75h-200v-115h-150v115h-200v75h200v60h-200v75h185z" />
    <glyph glyph-name="brokenbar" unicode="&#xa6;" horiz-adv-x="320" 
d="M100 140h120v-365h-120v365zM100 300v360h120v-360h-120z" />
    <glyph glyph-name="section" unicode="&#xa7;" horiz-adv-x="840" 
d="M70 -25h150v-30c0 -35 30 -35 60 -35h280c30 0 60 0 60 35v95c0 35 -30 35 -60 35h-250c-120 0 -240 0 -240 135v60c0 60 40 90 80 100c-40 10 -80 40 -80 100v55c0 135 120 135 240 135h220c120 0 240 0 240 -135v-15h-150v30c0 35 -30 35 -60 35h-280
c-30 0 -60 0 -60 -35v-95c0 -35 30 -35 60 -35h250c120 0 240 0 240 -135v-55c0 -60 -40 -90 -80 -100c40 -10 80 -40 80 -100v-60c0 -135 -120 -135 -240 -135h-220c-120 0 -240 0 -240 135v15zM220 195c0 -35 30 -35 60 -35h280c30 0 60 0 60 35v95c0 35 -30 35 -60 35
h-280c-30 0 -60 0 -60 -35v-95z" />
    <glyph glyph-name="dieresis" unicode="&#xa8;" horiz-adv-x="500" 
d="M75 580v100h120v-100h-120zM305 580v100h120v-100h-120z" />
    <glyph glyph-name="copyright" unicode="&#xa9;" horiz-adv-x="1000" 
d="M60 115v430c0 115 100 115 200 115h480c100 0 200 0 200 -115v-430c0 -115 -100 -115 -200 -115h-480c-100 0 -200 0 -200 115zM180 115c0 -55 50 -55 100 -55h440c50 0 100 0 100 55v430c0 55 -50 55 -100 55h-440c-50 0 -100 0 -100 -55v-430zM300 250v160
c0 90 80 90 160 90h240v-60h-240c-20 0 -40 0 -40 -25v-170c0 -25 20 -25 40 -25h240v-60h-240c-80 0 -160 0 -160 90z" />
    <glyph glyph-name="ordfeminine" unicode="&#xaa;" horiz-adv-x="540" 
d="M60 180v60h420v-60h-420zM60 410v35c0 90 80 90 160 90h140v40c0 25 -20 25 -40 25h-220v60h220c80 0 160 0 160 -90v-250h-260c-80 0 -160 0 -160 90zM180 405c0 -25 20 -25 40 -25h140v95h-140c-20 0 -40 0 -40 -25v-45z" />
    <glyph glyph-name="guillemotleft" unicode="&#xab;" horiz-adv-x="730" 
d="M350 240l200 200h120l-180 -200l180 -200h-120zM60 240l200 200h120l-180 -200l180 -200h-120z" />
    <glyph glyph-name="logicalnot" unicode="&#xac;" horiz-adv-x="640" 
d="M60 290v100h520v-300h-120v200h-400z" />
    <glyph glyph-name="uni00AD" unicode="&#xad;" horiz-adv-x="520" 
d="M60 190v100h400v-100h-400z" />
    <glyph glyph-name="registered" unicode="&#xae;" horiz-adv-x="1020" 
d="M60 115v430c0 115 100 115 200 115h500c100 0 200 0 200 -115v-430c0 -115 -100 -115 -200 -115h-500c-100 0 -200 0 -200 115zM180 115c0 -55 50 -55 100 -55h460c50 0 100 0 100 55v430c0 55 -50 55 -100 55h-460c-50 0 -100 0 -100 -55v-430zM300 160v340h260
c80 0 160 0 160 -90v-15c0 -80 -65 -90 -135 -90l145 -145h-120l-145 145h-45v-145h-120zM420 365h140c20 0 40 0 40 25v25c0 25 -20 25 -40 25h-140v-75z" />
    <glyph glyph-name="macron" unicode="&#xaf;" horiz-adv-x="500" 
d="M70 585v75h360v-75h-360z" />
    <glyph glyph-name="degree" unicode="&#xb0;" horiz-adv-x="540" 
d="M60 480v90c0 90 80 90 160 90h100c80 0 160 0 160 -90v-90c0 -90 -80 -90 -160 -90h-100c-80 0 -160 0 -160 90zM180 475c0 -25 20 -25 40 -25h100c20 0 40 0 40 25v100c0 25 -20 25 -40 25h-100c-20 0 -40 0 -40 -25v-100z" />
    <glyph glyph-name="plusminus" unicode="&#xb1;" horiz-adv-x="700" 
d="M60 0v100h580v-100h-580zM60 300v100h215v150h150v-150h215v-100h-215v-150h-150v150h-215z" />
    <glyph glyph-name="uni00B2" unicode="&#xb2;" horiz-adv-x="540" 
d="M60 320v125c0 90 80 90 160 90h100c20 0 40 0 40 25v15c0 25 -20 25 -40 25h-240v60h240c80 0 160 0 160 -90c0 -95 -80 -95 -160 -95h-100c-20 0 -40 0 -40 -25v-70h300v-60h-420z" />
    <glyph glyph-name="uni00B3" unicode="&#xb3;" horiz-adv-x="540" 
d="M60 320v60h260c20 0 40 0 40 25v45c0 25 -20 25 -40 25h-200v60h200c20 0 40 0 40 25v15c0 25 -20 25 -40 25h-260v60h260c80 0 160 0 160 -90c0 -45 -40 -60 -60 -65c20 -5 60 -20 60 -65v-30c0 -90 -80 -90 -160 -90h-260z" />
    <glyph glyph-name="acute" unicode="&#xb4;" horiz-adv-x="500" 
d="M160 550l100 160h150l-160 -160h-90z" />
    <glyph glyph-name="uni00B5" unicode="&#xb5;" horiz-adv-x="700" 
d="M60 -225v705h140v-380c0 -25 25 -25 50 -25h200c25 0 50 0 50 30v375h140v-365c0 -115 -100 -115 -200 -115h-240v-225h-140z" />
    <glyph glyph-name="paragraph" unicode="&#xb6;" horiz-adv-x="710" 
d="M60 430v60c0 130 104 170 230 170h360v-885h-120v810h-120v-810h-120v485c-132 0 -230 40 -230 170z" />
    <glyph glyph-name="periodcentered" unicode="&#xb7;" horiz-adv-x="300" 
d="M75 180v120h150v-120h-150z" />
    <glyph glyph-name="cedilla" unicode="&#xb8;" horiz-adv-x="500" 
d="M160 -175h30c40 0 80 5 80 45c0 30 -15 55 -90 130h100c70 -70 90 -100 90 -135c0 -80 -80 -90 -160 -90h-50v50z" />
    <glyph glyph-name="uni00B9" unicode="&#xb9;" horiz-adv-x="340" 
d="M60 600v60h220v-340h-120v280h-100z" />
    <glyph glyph-name="ordmasculine" unicode="&#xba;" horiz-adv-x="540" 
d="M60 180v60h420v-60h-420zM60 410v160c0 90 80 90 160 90h100c80 0 160 0 160 -90v-160c0 -90 -80 -90 -160 -90h-100c-80 0 -160 0 -160 90zM180 405c0 -25 20 -25 40 -25h100c20 0 40 0 40 25v170c0 25 -20 25 -40 25h-100c-20 0 -40 0 -40 -25v-170z" />
    <glyph glyph-name="guillemotright" unicode="&#xbb;" horiz-adv-x="730" 
d="M350 40l180 200l-180 200h120l200 -200l-200 -200h-120zM60 40l180 200l-180 200h120l200 -200l-200 -200h-120z" />
    <glyph glyph-name="onequarter" unicode="&#xbc;" horiz-adv-x="990" 
d="M510 70v60l270 210h150v-340h-120v70h-300zM639 130h171v133zM210 0l330 660h120l-330 -660h-120zM60 600v60h220v-340h-120v280h-100z" />
    <glyph glyph-name="onehalf" unicode="&#xbd;" horiz-adv-x="1030" 
d="M550 0v125c0 90 80 90 160 90h100c20 0 40 0 40 25v15c0 25 -20 25 -40 25h-240v60h240c80 0 160 0 160 -90c0 -95 -80 -95 -160 -95h-100c-20 0 -40 0 -40 -25v-70h300v-60h-420zM210 0l330 660h120l-330 -660h-120zM60 600v60h220v-340h-120v280h-100z" />
    <glyph glyph-name="threequarters" unicode="&#xbe;" horiz-adv-x="1150" 
d="M670 70v60l270 210h150v-340h-120v70h-300zM799 130h171v133zM60 320v60h260c20 0 40 0 40 25v45c0 25 -20 25 -40 25h-200v60h200c20 0 40 0 40 25v15c0 25 -20 25 -40 25h-260v60h260c80 0 160 0 160 -90c0 -45 -40 -60 -60 -65c20 -5 60 -20 60 -65v-30
c0 -90 -80 -90 -160 -90h-260zM370 0l330 660h120l-330 -660h-120z" />
    <glyph glyph-name="questiondown" unicode="&#xbf;" horiz-adv-x="850" 
d="M75 -25c0 135 120 135 240 135h60c30 0 60 0 60 35v65h150v-50c0 -135 -120 -135 -240 -135h-60c-30 0 -60 0 -60 -35v-95c0 -35 30 -35 60 -35h490v-85h-460c-120 0 -240 0 -240 135v65zM435 315v120h150v-120h-150z" />
    <glyph glyph-name="Agrave" unicode="&#xc0;" 
d="M285 890h150l100 -160h-90zM20 0l330 660h190l330 -660h-150l-105 210h-340l-105 -210h-150zM315 290h260l-130 260z" />
    <glyph glyph-name="Aacute" unicode="&#xc1;" 
d="M355 730l100 160h150l-160 -160h-90zM20 0l330 660h190l330 -660h-150l-105 210h-340l-105 -210h-150zM315 290h260l-130 260z" />
    <glyph glyph-name="Acircumflex" unicode="&#xc2;" 
d="M245 730l160 160h80l160 -160h-100l-100 90l-100 -90h-100zM20 0l330 660h190l330 -660h-150l-105 210h-340l-105 -210h-150zM315 290h260l-130 260z" />
    <glyph glyph-name="Atilde" unicode="&#xc3;" 
d="M340 880c25 0 35 -5 105 -40c40 -20 60 -30 70 -30c15 0 25 10 40 70h90c-25 -105 -55 -140 -95 -140c-25 0 -35 5 -105 40c-40 20 -60 30 -70 30c-15 0 -25 -10 -40 -70h-90c25 105 55 140 95 140zM20 0l330 660h190l330 -660h-150l-105 210h-340l-105 -210h-150z
M315 290h260l-130 260z" />
    <glyph glyph-name="Adieresis" unicode="&#xc4;" 
d="M270 760v100h120v-100h-120zM500 760v100h120v-100h-120zM20 0l330 660h190l330 -660h-150l-105 210h-340l-105 -210h-150zM315 290h260l-130 260z" />
    <glyph glyph-name="Aring" unicode="&#xc5;" 
d="M270 745v60c0 57 40 85 120 85h110c80 0 120 -28 120 -85v-60c0 -57 -40 -85 -120 -85h-110c-80 0 -120 28 -120 85zM370 730c0 -13 10 -20 30 -20h90c20 0 30 7 30 20v90c0 13 -10 20 -30 20h-90c-20 0 -30 -7 -30 -20v-90zM20 0l330 660h190l330 -660h-150l-105 210
h-340l-105 -210h-150zM315 290h260l-130 260z" />
    <glyph glyph-name="AE" unicode="&#xc6;" horiz-adv-x="1290" 
d="M20 0l330 660h870v-85h-500v-165h450v-85h-450v-240h500v-85h-650v210h-295l-105 -210h-150zM315 290h255v285h-113z" />
    <glyph glyph-name="Ccedilla" unicode="&#xc7;" horiz-adv-x="840" 
d="M370 -175h30c40 0 80 5 80 45c0 30 -15 55 -90 130h100c70 -70 90 -100 90 -135c0 -80 -80 -90 -160 -90h-50v50zM70 135v390c0 135 120 135 240 135h460v-85h-490c-30 0 -60 0 -60 -35v-420c0 -35 30 -35 60 -35h490v-85h-460c-120 0 -240 0 -240 135z" />
    <glyph glyph-name="Egrave" unicode="&#xc8;" horiz-adv-x="840" 
d="M260 890h150l100 -160h-90zM70 0v660h700v-85h-550v-165h500v-85h-500v-240h550v-85h-700z" />
    <glyph glyph-name="Eacute" unicode="&#xc9;" horiz-adv-x="840" 
d="M330 730l100 160h150l-160 -160h-90zM70 0v660h700v-85h-550v-165h500v-85h-500v-240h550v-85h-700z" />
    <glyph glyph-name="Ecircumflex" unicode="&#xca;" horiz-adv-x="840" 
d="M220 730l160 160h80l160 -160h-100l-100 90l-100 -90h-100zM70 0v660h700v-85h-550v-165h500v-85h-500v-240h550v-85h-700z" />
    <glyph glyph-name="Edieresis" unicode="&#xcb;" horiz-adv-x="840" 
d="M245 760v100h120v-100h-120zM475 760v100h120v-100h-120zM70 0v660h700v-85h-550v-165h500v-85h-500v-240h550v-85h-700z" />
    <glyph glyph-name="Igrave" unicode="&#xcc;" horiz-adv-x="290" 
d="M-10 890h150l100 -160h-90zM70 0v660h150v-660h-150z" />
    <glyph glyph-name="Iacute" unicode="&#xcd;" horiz-adv-x="290" 
d="M50 730l100 160h150l-160 -160h-90zM70 0v660h150v-660h-150z" />
    <glyph glyph-name="Icircumflex" unicode="&#xce;" horiz-adv-x="320" 
d="M-40 730l160 160h80l160 -160h-100l-100 90l-100 -90h-100zM85 0v660h150v-660h-150z" />
    <glyph glyph-name="Idieresis" unicode="&#xcf;" horiz-adv-x="320" 
d="M-15 760v100h120v-100h-120zM215 760v100h120v-100h-120zM85 0v660h150v-660h-150z" />
    <glyph glyph-name="Eth" unicode="&#xd0;" horiz-adv-x="920" 
d="M20 330v75h80v255h390c180 0 360 -60 360 -300v-60c0 -240 -180 -300 -360 -300h-390v330h-80zM250 85h210c120 0 240 40 240 200v90c0 160 -120 200 -240 200h-210v-170h225v-75h-225v-245z" />
    <glyph glyph-name="Ntilde" unicode="&#xd1;" 
d="M340 880c25 0 35 -5 105 -40c40 -20 60 -30 70 -30c15 0 25 10 40 70h90c-25 -105 -55 -140 -95 -140c-25 0 -35 5 -105 40c-40 20 -60 30 -70 30c-15 0 -25 -10 -40 -70h-90c25 105 55 140 95 140zM70 0v660h160l440 -490v490h150v-660h-160l-440 490v-490h-150z" />
    <glyph glyph-name="Ograve" unicode="&#xd2;" 
d="M285 890h150l100 -160h-90zM70 135v390c0 135 120 135 240 135h270c120 0 240 0 240 -135v-390c0 -135 -120 -135 -240 -135h-270c-120 0 -240 0 -240 135zM220 120c0 -35 30 -35 60 -35h330c30 0 60 0 60 35v420c0 35 -30 35 -60 35h-330c-30 0 -60 0 -60 -35v-420z" />
    <glyph glyph-name="Oacute" unicode="&#xd3;" 
d="M355 730l100 160h150l-160 -160h-90zM70 135v390c0 135 120 135 240 135h270c120 0 240 0 240 -135v-390c0 -135 -120 -135 -240 -135h-270c-120 0 -240 0 -240 135zM220 120c0 -35 30 -35 60 -35h330c30 0 60 0 60 35v420c0 35 -30 35 -60 35h-330c-30 0 -60 0 -60 -35
v-420z" />
    <glyph glyph-name="Ocircumflex" unicode="&#xd4;" 
d="M245 730l160 160h80l160 -160h-100l-100 90l-100 -90h-100zM70 135v390c0 135 120 135 240 135h270c120 0 240 0 240 -135v-390c0 -135 -120 -135 -240 -135h-270c-120 0 -240 0 -240 135zM220 120c0 -35 30 -35 60 -35h330c30 0 60 0 60 35v420c0 35 -30 35 -60 35h-330
c-30 0 -60 0 -60 -35v-420z" />
    <glyph glyph-name="Otilde" unicode="&#xd5;" 
d="M340 880c25 0 35 -5 105 -40c40 -20 60 -30 70 -30c15 0 25 10 40 70h90c-25 -105 -55 -140 -95 -140c-25 0 -35 5 -105 40c-40 20 -60 30 -70 30c-15 0 -25 -10 -40 -70h-90c25 105 55 140 95 140zM70 135v390c0 135 120 135 240 135h270c120 0 240 0 240 -135v-390
c0 -135 -120 -135 -240 -135h-270c-120 0 -240 0 -240 135zM220 120c0 -35 30 -35 60 -35h330c30 0 60 0 60 35v420c0 35 -30 35 -60 35h-330c-30 0 -60 0 -60 -35v-420z" />
    <glyph glyph-name="Odieresis" unicode="&#xd6;" 
d="M270 760v100h120v-100h-120zM500 760v100h120v-100h-120zM70 135v390c0 135 120 135 240 135h270c120 0 240 0 240 -135v-390c0 -135 -120 -135 -240 -135h-270c-120 0 -240 0 -240 135zM220 120c0 -35 30 -35 60 -35h330c30 0 60 0 60 35v420c0 35 -30 35 -60 35h-330
c-30 0 -60 0 -60 -35v-420z" />
    <glyph glyph-name="multiply" unicode="&#xd7;" horiz-adv-x="600" 
d="M60 80l160 160l-160 160l80 80l160 -160l160 160l80 -80l-160 -160l160 -160l-80 -80l-160 160l-160 -160z" />
    <glyph glyph-name="Oslash" unicode="&#xd8;" horiz-adv-x="990" 
d="M20 95v90l100 40v300c0 135 120 135 240 135h270c120 0 240 0 240 -135l100 40v-90l-100 -40v-300c0 -135 -120 -135 -240 -135h-270c-120 0 -240 0 -240 135zM270 120c0 -35 30 -35 60 -35h330c30 0 60 0 60 35v255l-450 -180v-75zM270 285l450 180v75
c0 35 -30 35 -60 35h-330c-30 0 -60 0 -60 -35v-255z" />
    <glyph glyph-name="Ugrave" unicode="&#xd9;" 
d="M285 890h150l100 -160h-90zM70 135v525h150v-540c0 -35 30 -35 60 -35h330c30 0 60 0 60 35v540h150v-525c0 -135 -120 -135 -240 -135h-270c-120 0 -240 0 -240 135z" />
    <glyph glyph-name="Uacute" unicode="&#xda;" 
d="M355 730l100 160h150l-160 -160h-90zM70 135v525h150v-540c0 -35 30 -35 60 -35h330c30 0 60 0 60 35v540h150v-525c0 -135 -120 -135 -240 -135h-270c-120 0 -240 0 -240 135z" />
    <glyph glyph-name="Ucircumflex" unicode="&#xdb;" 
d="M245 730l160 160h80l160 -160h-100l-100 90l-100 -90h-100zM70 135v525h150v-540c0 -35 30 -35 60 -35h330c30 0 60 0 60 35v540h150v-525c0 -135 -120 -135 -240 -135h-270c-120 0 -240 0 -240 135z" />
    <glyph glyph-name="Udieresis" unicode="&#xdc;" 
d="M270 760v100h120v-100h-120zM500 760v100h120v-100h-120zM70 135v525h150v-540c0 -35 30 -35 60 -35h330c30 0 60 0 60 35v540h150v-525c0 -135 -120 -135 -240 -135h-270c-120 0 -240 0 -240 135z" />
    <glyph glyph-name="Yacute" unicode="&#xdd;" 
d="M355 730l100 160h150l-160 -160h-90zM20 660h180l245 -245l245 245h180l-350 -350v-310h-150v310z" />
    <glyph glyph-name="Thorn" unicode="&#xde;" 
d="M70 0v660h150v-125h360c120 0 240 0 240 -135v-140c0 -135 -120 -135 -240 -135h-360v-125h-150zM220 210h390c30 0 60 0 60 35v170c0 35 -30 35 -60 35h-390v-240z" />
    <glyph glyph-name="germandbls" unicode="&#xdf;" horiz-adv-x="700" 
d="M60 0v545c0 115 100 115 200 115h140c100 0 200 0 200 -115v-90c0 -65 -30 -85 -70 -90c40 -5 110 -15 110 -105v-145c0 -115 -100 -115 -200 -115h-120v75h130c25 0 50 0 50 30v190c0 30 -25 30 -50 30h-130v75h90c25 0 50 0 50 30v125c0 30 -25 30 -50 30h-160
c-25 0 -50 0 -50 -30v-555h-140z" />
    <glyph glyph-name="agrave" unicode="&#xe0;" horiz-adv-x="700" 
d="M190 710h150l100 -160h-90zM60 115v70c0 115 100 115 200 115h240v75c0 30 -25 30 -50 30h-350v75h340c100 0 200 0 200 -115v-365h-380c-100 0 -200 0 -200 115zM200 105c0 -30 25 -30 50 -30h250v150h-250c-25 0 -50 0 -50 -30v-90z" />
    <glyph glyph-name="aacute" unicode="&#xe1;" horiz-adv-x="700" 
d="M260 550l100 160h150l-160 -160h-90zM60 115v70c0 115 100 115 200 115h240v75c0 30 -25 30 -50 30h-350v75h340c100 0 200 0 200 -115v-365h-380c-100 0 -200 0 -200 115zM200 105c0 -30 25 -30 50 -30h250v150h-250c-25 0 -50 0 -50 -30v-90z" />
    <glyph glyph-name="acircumflex" unicode="&#xe2;" horiz-adv-x="700" 
d="M150 550l160 160h80l160 -160h-100l-100 90l-100 -90h-100zM60 115v70c0 115 100 115 200 115h240v75c0 30 -25 30 -50 30h-350v75h340c100 0 200 0 200 -115v-365h-380c-100 0 -200 0 -200 115zM200 105c0 -30 25 -30 50 -30h250v150h-250c-25 0 -50 0 -50 -30v-90z" />
    <glyph glyph-name="atilde" unicode="&#xe3;" horiz-adv-x="700" 
d="M245 700c25 0 35 -5 105 -40c40 -20 60 -30 70 -30c15 0 25 10 40 70h90c-25 -105 -55 -140 -95 -140c-25 0 -35 5 -105 40c-40 20 -60 30 -70 30c-15 0 -25 -10 -40 -70h-90c25 105 55 140 95 140zM60 115v70c0 115 100 115 200 115h240v75c0 30 -25 30 -50 30h-350v75
h340c100 0 200 0 200 -115v-365h-380c-100 0 -200 0 -200 115zM200 105c0 -30 25 -30 50 -30h250v150h-250c-25 0 -50 0 -50 -30v-90z" />
    <glyph glyph-name="adieresis" unicode="&#xe4;" horiz-adv-x="700" 
d="M175 580v100h120v-100h-120zM405 580v100h120v-100h-120zM60 115v70c0 115 100 115 200 115h240v75c0 30 -25 30 -50 30h-350v75h340c100 0 200 0 200 -115v-365h-380c-100 0 -200 0 -200 115zM200 105c0 -30 25 -30 50 -30h250v150h-250c-25 0 -50 0 -50 -30v-90z" />
    <glyph glyph-name="aring" unicode="&#xe5;" horiz-adv-x="700" 
d="M175 635v60c0 57 40 85 120 85h110c80 0 120 -28 120 -85v-60c0 -57 -40 -85 -120 -85h-110c-80 0 -120 28 -120 85zM275 620c0 -13 10 -20 30 -20h90c20 0 30 7 30 20v90c0 13 -10 20 -30 20h-90c-20 0 -30 -7 -30 -20v-90zM60 115v70c0 115 100 115 200 115h240v75
c0 30 -25 30 -50 30h-350v75h340c100 0 200 0 200 -115v-365h-380c-100 0 -200 0 -200 115zM200 105c0 -30 25 -30 50 -30h250v150h-250c-25 0 -50 0 -50 -30v-90z" />
    <glyph glyph-name="ae" unicode="&#xe6;" horiz-adv-x="1140" 
d="M60 115v70c0 115 100 115 200 115h240v75c0 30 -25 30 -50 30h-350v75h780c100 0 200 0 200 -115v-140h-440v-120c0 -30 25 -30 50 -30h370v-75h-800c-100 0 -200 0 -200 115zM200 105c0 -30 25 -30 50 -30h250v150h-250c-25 0 -50 0 -50 -30v-90zM640 300h300v75
c0 30 -25 30 -50 30h-200c-25 0 -50 0 -50 -30v-75z" />
    <glyph glyph-name="ccedilla" unicode="&#xe7;" horiz-adv-x="660" 
d="M280 -175h30c40 0 80 5 80 45c0 30 -15 55 -90 130h100c70 -70 90 -100 90 -135c0 -80 -80 -90 -160 -90h-50v50zM60 115v250c0 115 100 115 200 115h340v-75h-350c-25 0 -50 0 -50 -30v-270c0 -30 25 -30 50 -30h350v-75h-340c-100 0 -200 0 -200 115z" />
    <glyph glyph-name="egrave" unicode="&#xe8;" horiz-adv-x="700" 
d="M190 710h150l100 -160h-90zM60 115v250c0 115 100 115 200 115h180c100 0 200 0 200 -115v-140h-440v-120c0 -30 25 -30 50 -30h370v-75h-360c-100 0 -200 0 -200 115zM200 300h300v75c0 30 -25 30 -50 30h-200c-25 0 -50 0 -50 -30v-75z" />
    <glyph glyph-name="eacute" unicode="&#xe9;" horiz-adv-x="700" 
d="M260 550l100 160h150l-160 -160h-90zM60 115v250c0 115 100 115 200 115h180c100 0 200 0 200 -115v-140h-440v-120c0 -30 25 -30 50 -30h370v-75h-360c-100 0 -200 0 -200 115zM200 300h300v75c0 30 -25 30 -50 30h-200c-25 0 -50 0 -50 -30v-75z" />
    <glyph glyph-name="ecircumflex" unicode="&#xea;" horiz-adv-x="700" 
d="M150 550l160 160h80l160 -160h-100l-100 90l-100 -90h-100zM60 115v250c0 115 100 115 200 115h180c100 0 200 0 200 -115v-140h-440v-120c0 -30 25 -30 50 -30h370v-75h-360c-100 0 -200 0 -200 115zM200 300h300v75c0 30 -25 30 -50 30h-200c-25 0 -50 0 -50 -30v-75z
" />
    <glyph glyph-name="edieresis" unicode="&#xeb;" horiz-adv-x="700" 
d="M175 580v100h120v-100h-120zM405 580v100h120v-100h-120zM60 115v250c0 115 100 115 200 115h180c100 0 200 0 200 -115v-140h-440v-120c0 -30 25 -30 50 -30h370v-75h-360c-100 0 -200 0 -200 115zM200 300h300v75c0 30 -25 30 -50 30h-200c-25 0 -50 0 -50 -30v-75z
" />
    <glyph glyph-name="igrave" unicode="&#xec;" horiz-adv-x="290" 
d="M-10 710h150l100 -160h-90zM75 0v480h140v-480h-140z" />
    <glyph glyph-name="iacute" unicode="&#xed;" horiz-adv-x="290" 
d="M50 550l100 160h150l-160 -160h-90zM75 0v480h140v-480h-140z" />
    <glyph glyph-name="icircumflex" unicode="&#xee;" horiz-adv-x="320" 
d="M-40 550l160 160h80l160 -160h-100l-100 90l-100 -90h-100zM90 0v480h140v-480h-140z" />
    <glyph glyph-name="idieresis" unicode="&#xef;" horiz-adv-x="320" 
d="M-15 580v100h120v-100h-120zM215 580v100h120v-100h-120zM90 0v480h140v-480h-140z" />
    <glyph glyph-name="eth" unicode="&#xf0;" horiz-adv-x="700" 
d="M60 115v145c0 115 100 115 200 115h180c20 0 37 0 37 15c0 10 -6 23 -12 35l-25 50l-110 -55l-30 60l110 55l-65 125h150l35 -65l80 40l30 -60l-80 -40l40 -80c40 -80 40 -155 40 -235v-105c0 -115 -100 -115 -200 -115h-180c-100 0 -200 0 -200 115zM200 105
c0 -30 25 -30 50 -30h200c25 0 50 0 50 30v165c0 25 -25 30 -50 30h-200c-25 0 -50 0 -50 -30v-165z" />
    <glyph glyph-name="ntilde" unicode="&#xf1;" horiz-adv-x="700" 
d="M245 700c25 0 35 -5 105 -40c40 -20 60 -30 70 -30c15 0 25 10 40 70h90c-25 -105 -55 -140 -95 -140c-25 0 -35 5 -105 40c-40 20 -60 30 -70 30c-15 0 -25 -10 -40 -70h-90c25 105 55 140 95 140zM60 0v480h380c100 0 200 0 200 -115v-365h-140v375c0 30 -25 30 -50 30
h-250v-405h-140z" />
    <glyph glyph-name="ograve" unicode="&#xf2;" horiz-adv-x="700" 
d="M190 710h150l100 -160h-90zM60 115v250c0 115 100 115 200 115h180c100 0 200 0 200 -115v-250c0 -115 -100 -115 -200 -115h-180c-100 0 -200 0 -200 115zM200 105c0 -30 25 -30 50 -30h200c25 0 50 0 50 30v270c0 30 -25 30 -50 30h-200c-25 0 -50 0 -50 -30v-270z" />
    <glyph glyph-name="oacute" unicode="&#xf3;" horiz-adv-x="700" 
d="M260 550l100 160h150l-160 -160h-90zM60 115v250c0 115 100 115 200 115h180c100 0 200 0 200 -115v-250c0 -115 -100 -115 -200 -115h-180c-100 0 -200 0 -200 115zM200 105c0 -30 25 -30 50 -30h200c25 0 50 0 50 30v270c0 30 -25 30 -50 30h-200c-25 0 -50 0 -50 -30
v-270z" />
    <glyph glyph-name="ocircumflex" unicode="&#xf4;" horiz-adv-x="700" 
d="M150 550l160 160h80l160 -160h-100l-100 90l-100 -90h-100zM60 115v250c0 115 100 115 200 115h180c100 0 200 0 200 -115v-250c0 -115 -100 -115 -200 -115h-180c-100 0 -200 0 -200 115zM200 105c0 -30 25 -30 50 -30h200c25 0 50 0 50 30v270c0 30 -25 30 -50 30h-200
c-25 0 -50 0 -50 -30v-270z" />
    <glyph glyph-name="otilde" unicode="&#xf5;" horiz-adv-x="700" 
d="M245 700c25 0 35 -5 105 -40c40 -20 60 -30 70 -30c15 0 25 10 40 70h90c-25 -105 -55 -140 -95 -140c-25 0 -35 5 -105 40c-40 20 -60 30 -70 30c-15 0 -25 -10 -40 -70h-90c25 105 55 140 95 140zM60 115v250c0 115 100 115 200 115h180c100 0 200 0 200 -115v-250
c0 -115 -100 -115 -200 -115h-180c-100 0 -200 0 -200 115zM200 105c0 -30 25 -30 50 -30h200c25 0 50 0 50 30v270c0 30 -25 30 -50 30h-200c-25 0 -50 0 -50 -30v-270z" />
    <glyph glyph-name="odieresis" unicode="&#xf6;" horiz-adv-x="700" 
d="M175 580v100h120v-100h-120zM405 580v100h120v-100h-120zM60 115v250c0 115 100 115 200 115h180c100 0 200 0 200 -115v-250c0 -115 -100 -115 -200 -115h-180c-100 0 -200 0 -200 115zM200 105c0 -30 25 -30 50 -30h200c25 0 50 0 50 30v270c0 30 -25 30 -50 30h-200
c-25 0 -50 0 -50 -30v-270z" />
    <glyph glyph-name="divide" unicode="&#xf7;" horiz-adv-x="700" 
d="M60 190v100h580v-100h-580zM275 0v120h150v-120h-150zM275 360v120h150v-120h-150z" />
    <glyph glyph-name="oslash" unicode="&#xf8;" horiz-adv-x="780" 
d="M20 91v76l80 24v174c0 115 100 115 200 115h180c100 0 200 0 200 -115l80 24v-76l-80 -24v-174c0 -115 -100 -115 -200 -115h-180c-100 0 -200 0 -200 115zM240 105c0 -30 25 -30 50 -30h200c25 0 50 0 50 30v142l-300 -90v-52zM240 233l300 90v52c0 30 -25 30 -50 30
h-200c-25 0 -50 0 -50 -30v-142z" />
    <glyph glyph-name="ugrave" unicode="&#xf9;" horiz-adv-x="700" 
d="M190 710h150l100 -160h-90zM60 115v365h140v-375c0 -30 25 -30 50 -30h200c25 0 50 0 50 30v375h140v-365c0 -115 -100 -115 -200 -115h-180c-100 0 -200 0 -200 115z" />
    <glyph glyph-name="uacute" unicode="&#xfa;" horiz-adv-x="700" 
d="M260 550l100 160h150l-160 -160h-90zM60 115v365h140v-375c0 -30 25 -30 50 -30h200c25 0 50 0 50 30v375h140v-365c0 -115 -100 -115 -200 -115h-180c-100 0 -200 0 -200 115z" />
    <glyph glyph-name="ucircumflex" unicode="&#xfb;" horiz-adv-x="700" 
d="M150 550l160 160h80l160 -160h-100l-100 90l-100 -90h-100zM60 115v365h140v-375c0 -30 25 -30 50 -30h200c25 0 50 0 50 30v375h140v-365c0 -115 -100 -115 -200 -115h-180c-100 0 -200 0 -200 115z" />
    <glyph glyph-name="udieresis" unicode="&#xfc;" horiz-adv-x="700" 
d="M175 580v100h120v-100h-120zM405 580v100h120v-100h-120zM60 115v365h140v-375c0 -30 25 -30 50 -30h200c25 0 50 0 50 30v375h140v-365c0 -115 -100 -115 -200 -115h-180c-100 0 -200 0 -200 115z" />
    <glyph glyph-name="yacute" unicode="&#xfd;" horiz-adv-x="680" 
d="M250 550l100 160h150l-160 -160h-90zM20 480h140l180 -360l180 360h140l-300 -600c-30 -60 -55 -105 -150 -105h-130v75h80c45 0 50 10 65 40l45 90z" />
    <glyph glyph-name="thorn" unicode="&#xfe;" horiz-adv-x="700" 
d="M60 -225v885h140v-180h240c100 0 200 0 200 -115v-250c0 -115 -100 -115 -200 -115h-240v-225h-140zM200 75h250c25 0 50 0 50 30v270c0 30 -25 30 -50 30h-250v-330z" />
    <glyph glyph-name="ydieresis" unicode="&#xff;" horiz-adv-x="680" 
d="M165 580v100h120v-100h-120zM395 580v100h120v-100h-120zM20 480h140l180 -360l180 360h140l-300 -600c-30 -60 -55 -105 -150 -105h-130v75h80c45 0 50 10 65 40l45 90z" />
    <glyph glyph-name="Amacron" unicode="&#x100;" 
d="M265 765v75h360v-75h-360zM20 0l330 660h190l330 -660h-150l-105 210h-340l-105 -210h-150zM315 290h260l-130 260z" />
    <glyph glyph-name="amacron" unicode="&#x101;" horiz-adv-x="700" 
d="M170 585v75h360v-75h-360zM60 115v70c0 115 100 115 200 115h240v75c0 30 -25 30 -50 30h-350v75h340c100 0 200 0 200 -115v-365h-380c-100 0 -200 0 -200 115zM200 105c0 -30 25 -30 50 -30h250v150h-250c-25 0 -50 0 -50 -30v-90z" />
    <glyph glyph-name="Abreve" unicode="&#x102;" 
d="M285 890h75c0 -47 38 -85 85 -85s85 38 85 85h75c0 -88 -72 -160 -160 -160s-160 72 -160 160zM20 0l330 660h190l330 -660h-150l-105 210h-340l-105 -210h-150zM315 290h260l-130 260z" />
    <glyph glyph-name="abreve" unicode="&#x103;" horiz-adv-x="700" 
d="M190 710h75c0 -47 38 -85 85 -85s85 38 85 85h75c0 -88 -72 -160 -160 -160s-160 72 -160 160zM60 115v70c0 115 100 115 200 115h240v75c0 30 -25 30 -50 30h-350v75h340c100 0 200 0 200 -115v-365h-380c-100 0 -200 0 -200 115zM200 105c0 -30 25 -30 50 -30h250v150
h-250c-25 0 -50 0 -50 -30v-90z" />
    <glyph glyph-name="Aogonek" unicode="&#x104;" 
d="M630 -135c0 35 20 65 90 135h100c-75 -75 -90 -100 -90 -130c0 -40 40 -45 80 -45h10v-50h-30c-80 0 -160 10 -160 90zM20 0l330 660h190l330 -660h-150l-105 210h-340l-105 -210h-150zM315 290h260l-130 260z" />
    <glyph glyph-name="aogonek" unicode="&#x105;" horiz-adv-x="700" 
d="M410 -135c0 35 20 65 90 135h100c-75 -75 -90 -100 -90 -130c0 -40 40 -45 80 -45h10v-50h-30c-80 0 -160 10 -160 90zM60 115v70c0 115 100 115 200 115h240v75c0 30 -25 30 -50 30h-350v75h340c100 0 200 0 200 -115v-365h-380c-100 0 -200 0 -200 115zM200 105
c0 -30 25 -30 50 -30h250v150h-250c-25 0 -50 0 -50 -30v-90z" />
    <glyph glyph-name="Cacute" unicode="&#x106;" horiz-adv-x="840" 
d="M330 730l100 160h150l-160 -160h-90zM70 135v390c0 135 120 135 240 135h460v-85h-490c-30 0 -60 0 -60 -35v-420c0 -35 30 -35 60 -35h490v-85h-460c-120 0 -240 0 -240 135z" />
    <glyph glyph-name="cacute" unicode="&#x107;" horiz-adv-x="660" 
d="M240 550l100 160h150l-160 -160h-90zM60 115v250c0 115 100 115 200 115h340v-75h-350c-25 0 -50 0 -50 -30v-270c0 -30 25 -30 50 -30h350v-75h-340c-100 0 -200 0 -200 115z" />
    <glyph glyph-name="Ccircumflex" unicode="&#x108;" horiz-adv-x="840" 
d="M220 730l160 160h80l160 -160h-100l-100 90l-100 -90h-100zM70 135v390c0 135 120 135 240 135h460v-85h-490c-30 0 -60 0 -60 -35v-420c0 -35 30 -35 60 -35h490v-85h-460c-120 0 -240 0 -240 135z" />
    <glyph glyph-name="ccircumflex" unicode="&#x109;" horiz-adv-x="660" 
d="M130 550l160 160h80l160 -160h-100l-100 90l-100 -90h-100zM60 115v250c0 115 100 115 200 115h340v-75h-350c-25 0 -50 0 -50 -30v-270c0 -30 25 -30 50 -30h350v-75h-340c-100 0 -200 0 -200 115z" />
    <glyph glyph-name="Cdotaccent" unicode="&#x10a;" horiz-adv-x="840" 
d="M360 760v100h120v-100h-120zM70 135v390c0 135 120 135 240 135h460v-85h-490c-30 0 -60 0 -60 -35v-420c0 -35 30 -35 60 -35h490v-85h-460c-120 0 -240 0 -240 135z" />
    <glyph glyph-name="cdotaccent" unicode="&#x10b;" horiz-adv-x="660" 
d="M270 580v100h120v-100h-120zM60 115v250c0 115 100 115 200 115h340v-75h-350c-25 0 -50 0 -50 -30v-270c0 -30 25 -30 50 -30h350v-75h-340c-100 0 -200 0 -200 115z" />
    <glyph glyph-name="Ccaron" unicode="&#x10c;" horiz-adv-x="840" 
d="M220 890h100l100 -90l100 90h100l-160 -160h-80zM70 135v390c0 135 120 135 240 135h460v-85h-490c-30 0 -60 0 -60 -35v-420c0 -35 30 -35 60 -35h490v-85h-460c-120 0 -240 0 -240 135z" />
    <glyph glyph-name="ccaron" unicode="&#x10d;" horiz-adv-x="660" 
d="M130 710h100l100 -90l100 90h100l-160 -160h-80zM60 115v250c0 115 100 115 200 115h340v-75h-350c-25 0 -50 0 -50 -30v-270c0 -30 25 -30 50 -30h350v-75h-340c-100 0 -200 0 -200 115z" />
    <glyph glyph-name="Dcaron" unicode="&#x10e;" 
d="M245 890h100l100 -90l100 90h100l-160 -160h-80zM70 0v660h390c180 0 360 -60 360 -300v-60c0 -240 -180 -300 -360 -300h-390zM220 85h210c120 0 240 40 240 200v90c0 160 -120 200 -240 200h-210v-490z" />
    <glyph glyph-name="dcaron" unicode="&#x10f;" horiz-adv-x="900" 
d="M710 460l50 200h120l-80 -200h-90zM60 115v250c0 115 100 115 200 115h240v180h140v-660h-380c-100 0 -200 0 -200 115zM200 105c0 -30 25 -30 50 -30h250v330h-250c-25 0 -50 0 -50 -30v-270z" />
    <glyph glyph-name="Dcroat" unicode="&#x110;" horiz-adv-x="920" 
d="M20 330v75h80v255h390c180 0 360 -60 360 -300v-60c0 -240 -180 -300 -360 -300h-390v330h-80zM250 85h210c120 0 240 40 240 200v90c0 160 -120 200 -240 200h-210v-170h225v-75h-225v-245z" />
    <glyph glyph-name="dcroat" unicode="&#x111;" horiz-adv-x="720" 
d="M60 115v250c0 115 100 115 200 115h240v60h-150v65h150v55h140v-55h60v-65h-60v-540h-380c-100 0 -200 0 -200 115zM200 105c0 -30 25 -30 50 -30h250v330h-250c-25 0 -50 0 -50 -30v-270z" />
    <glyph glyph-name="Emacron" unicode="&#x112;" horiz-adv-x="840" 
d="M240 765v75h360v-75h-360zM70 0v660h700v-85h-550v-165h500v-85h-500v-240h550v-85h-700z" />
    <glyph glyph-name="emacron" unicode="&#x113;" horiz-adv-x="700" 
d="M170 585v75h360v-75h-360zM60 115v250c0 115 100 115 200 115h180c100 0 200 0 200 -115v-140h-440v-120c0 -30 25 -30 50 -30h370v-75h-360c-100 0 -200 0 -200 115zM200 300h300v75c0 30 -25 30 -50 30h-200c-25 0 -50 0 -50 -30v-75z" />
    <glyph glyph-name="Ebreve" unicode="&#x114;" horiz-adv-x="840" 
d="M260 890h75c0 -47 38 -85 85 -85s85 38 85 85h75c0 -88 -72 -160 -160 -160s-160 72 -160 160zM70 0v660h700v-85h-550v-165h500v-85h-500v-240h550v-85h-700z" />
    <glyph glyph-name="ebreve" unicode="&#x115;" horiz-adv-x="700" 
d="M190 710h75c0 -47 38 -85 85 -85s85 38 85 85h75c0 -88 -72 -160 -160 -160s-160 72 -160 160zM60 115v250c0 115 100 115 200 115h180c100 0 200 0 200 -115v-140h-440v-120c0 -30 25 -30 50 -30h370v-75h-360c-100 0 -200 0 -200 115zM200 300h300v75
c0 30 -25 30 -50 30h-200c-25 0 -50 0 -50 -30v-75z" />
    <glyph glyph-name="Edotaccent" unicode="&#x116;" horiz-adv-x="840" 
d="M360 760v100h120v-100h-120zM70 0v660h700v-85h-550v-165h500v-85h-500v-240h550v-85h-700z" />
    <glyph glyph-name="edotaccent" unicode="&#x117;" horiz-adv-x="700" 
d="M290 580v100h120v-100h-120zM60 115v250c0 115 100 115 200 115h180c100 0 200 0 200 -115v-140h-440v-120c0 -30 25 -30 50 -30h370v-75h-360c-100 0 -200 0 -200 115zM200 300h300v75c0 30 -25 30 -50 30h-200c-25 0 -50 0 -50 -30v-75z" />
    <glyph glyph-name="Eogonek" unicode="&#x118;" horiz-adv-x="840" 
d="M580 -135c0 35 20 65 90 135h100c-75 -75 -90 -100 -90 -130c0 -40 40 -45 80 -45h10v-50h-30c-80 0 -160 10 -160 90zM70 0v660h700v-85h-550v-165h500v-85h-500v-240h550v-85h-700z" />
    <glyph glyph-name="eogonek" unicode="&#x119;" horiz-adv-x="700" 
d="M430 -135c0 35 20 65 90 135h100c-75 -75 -90 -100 -90 -130c0 -40 40 -45 80 -45h10v-50h-30c-80 0 -160 10 -160 90zM60 115v250c0 115 100 115 200 115h180c100 0 200 0 200 -115v-140h-440v-120c0 -30 25 -30 50 -30h370v-75h-360c-100 0 -200 0 -200 115zM200 300
h300v75c0 30 -25 30 -50 30h-200c-25 0 -50 0 -50 -30v-75z" />
    <glyph glyph-name="Ecaron" unicode="&#x11a;" horiz-adv-x="840" 
d="M220 890h100l100 -90l100 90h100l-160 -160h-80zM70 0v660h700v-85h-550v-165h500v-85h-500v-240h550v-85h-700z" />
    <glyph glyph-name="ecaron" unicode="&#x11b;" horiz-adv-x="700" 
d="M150 710h100l100 -90l100 90h100l-160 -160h-80zM60 115v250c0 115 100 115 200 115h180c100 0 200 0 200 -115v-140h-440v-120c0 -30 25 -30 50 -30h370v-75h-360c-100 0 -200 0 -200 115zM200 300h300v75c0 30 -25 30 -50 30h-200c-25 0 -50 0 -50 -30v-75z" />
    <glyph glyph-name="Gcircumflex" unicode="&#x11c;" 
d="M245 730l160 160h80l160 -160h-100l-100 90l-100 -90h-100zM70 135v390c0 135 120 135 240 135h460v-85h-490c-30 0 -60 0 -60 -35v-420c0 -35 30 -35 60 -35h330c30 0 60 0 60 35v205h-150v85h300v-275c0 -135 -120 -135 -240 -135h-270c-120 0 -240 0 -240 135z" />
    <glyph glyph-name="gcircumflex" unicode="&#x11d;" horiz-adv-x="700" 
d="M150 550l160 160h80l160 -160h-100l-100 90l-100 -90h-100zM60 115v250c0 115 100 115 200 115h380v-605c0 -100 -100 -100 -200 -100h-360v75h370c25 0 50 0 50 25v125h-240c-100 0 -200 0 -200 115zM200 105c0 -30 25 -30 50 -30h250v330h-250c-25 0 -50 0 -50 -30
v-270z" />
    <glyph glyph-name="Gbreve" unicode="&#x11e;" 
d="M285 890h75c0 -47 38 -85 85 -85s85 38 85 85h75c0 -88 -72 -160 -160 -160s-160 72 -160 160zM70 135v390c0 135 120 135 240 135h460v-85h-490c-30 0 -60 0 -60 -35v-420c0 -35 30 -35 60 -35h330c30 0 60 0 60 35v205h-150v85h300v-275c0 -135 -120 -135 -240 -135
h-270c-120 0 -240 0 -240 135z" />
    <glyph glyph-name="gbreve" unicode="&#x11f;" horiz-adv-x="700" 
d="M190 710h75c0 -47 38 -85 85 -85s85 38 85 85h75c0 -88 -72 -160 -160 -160s-160 72 -160 160zM60 115v250c0 115 100 115 200 115h380v-605c0 -100 -100 -100 -200 -100h-360v75h370c25 0 50 0 50 25v125h-240c-100 0 -200 0 -200 115zM200 105c0 -30 25 -30 50 -30h250
v330h-250c-25 0 -50 0 -50 -30v-270z" />
    <glyph glyph-name="Gdotaccent" unicode="&#x120;" 
d="M385 760v100h120v-100h-120zM70 135v390c0 135 120 135 240 135h460v-85h-490c-30 0 -60 0 -60 -35v-420c0 -35 30 -35 60 -35h330c30 0 60 0 60 35v205h-150v85h300v-275c0 -135 -120 -135 -240 -135h-270c-120 0 -240 0 -240 135z" />
    <glyph glyph-name="gdotaccent" unicode="&#x121;" horiz-adv-x="700" 
d="M290 580v100h120v-100h-120zM60 115v250c0 115 100 115 200 115h380v-605c0 -100 -100 -100 -200 -100h-360v75h370c25 0 50 0 50 25v125h-240c-100 0 -200 0 -200 115zM200 105c0 -30 25 -30 50 -30h250v330h-250c-25 0 -50 0 -50 -30v-270z" />
    <glyph glyph-name="Gcommaaccent" unicode="&#x122;" 
d="M365 -225l30 155h130l-60 -155h-100zM70 135v390c0 135 120 135 240 135h460v-85h-490c-30 0 -60 0 -60 -35v-420c0 -35 30 -35 60 -35h330c30 0 60 0 60 35v205h-150v85h300v-275c0 -135 -120 -135 -240 -135h-270c-120 0 -240 0 -240 135z" />
    <glyph glyph-name="gcommaaccent" unicode="&#x123;" horiz-adv-x="700" 
d="M280 550l100 250h80l-50 -250h-130zM60 115v250c0 115 100 115 200 115h380v-605c0 -100 -100 -100 -200 -100h-360v75h370c25 0 50 0 50 25v125h-240c-100 0 -200 0 -200 115zM200 105c0 -30 25 -30 50 -30h250v330h-250c-25 0 -50 0 -50 -30v-270z" />
    <glyph glyph-name="Hcircumflex" unicode="&#x124;" 
d="M245 730l160 160h80l160 -160h-100l-100 90l-100 -90h-100zM70 0v660h150v-250h450v250h150v-660h-150v325h-450v-325h-150z" />
    <glyph glyph-name="hcircumflex" unicode="&#x125;" horiz-adv-x="700" 
d="M150 730l160 160h80l160 -160h-100l-100 90l-100 -90h-100zM60 0v660h140v-180h240c100 0 200 0 200 -115v-365h-140v375c0 30 -25 30 -50 30h-250v-405h-140z" />
    <glyph glyph-name="Hbar" unicode="&#x126;" horiz-adv-x="950" 
d="M20 510v75h80v75h150v-75h450v75h150v-75h80v-75h-80v-510h-150v325h-450v-325h-150v510h-80zM250 410h450v100h-450v-100z" />
    <glyph glyph-name="hbar" unicode="&#x127;" horiz-adv-x="720" 
d="M20 540v65h60v55h140v-55h150v-65h-150v-60h240c100 0 200 0 200 -115v-365h-140v375c0 30 -25 30 -50 30h-250v-405h-140v540h-60z" />
    <glyph glyph-name="Itilde" unicode="&#x128;" horiz-adv-x="320" 
d="M55 880c25 0 35 -5 105 -40c40 -20 60 -30 70 -30c15 0 25 10 40 70h90c-25 -105 -55 -140 -95 -140c-25 0 -35 5 -105 40c-40 20 -60 30 -70 30c-15 0 -25 -10 -40 -70h-90c25 105 55 140 95 140zM85 0v660h150v-660h-150z" />
    <glyph glyph-name="itilde" unicode="&#x129;" horiz-adv-x="320" 
d="M55 700c25 0 35 -5 105 -40c40 -20 60 -30 70 -30c15 0 25 10 40 70h90c-25 -105 -55 -140 -95 -140c-25 0 -35 5 -105 40c-40 20 -60 30 -70 30c-15 0 -25 -10 -40 -70h-90c25 105 55 140 95 140zM90 0v480h140v-480h-140z" />
    <glyph glyph-name="Imacron" unicode="&#x12a;" horiz-adv-x="320" 
d="M-20 765v75h360v-75h-360zM85 0v660h150v-660h-150z" />
    <glyph glyph-name="imacron" unicode="&#x12b;" horiz-adv-x="320" 
d="M-20 585v75h360v-75h-360zM90 0v480h140v-480h-140z" />
    <glyph glyph-name="Ibreve" unicode="&#x12c;" horiz-adv-x="290" 
d="M-15 890h75c0 -47 38 -85 85 -85s85 38 85 85h75c0 -88 -72 -160 -160 -160s-160 72 -160 160zM70 0v660h150v-660h-150z" />
    <glyph glyph-name="ibreve" unicode="&#x12d;" horiz-adv-x="280" 
d="M-20 710h75c0 -47 38 -85 85 -85s85 38 85 85h75c0 -88 -72 -160 -160 -160s-160 72 -160 160zM70 0v480h140v-480h-140z" />
    <glyph glyph-name="Iogonek" unicode="&#x12e;" horiz-adv-x="290" 
d="M30 -135c0 35 20 65 90 135h100c-75 -75 -90 -100 -90 -130c0 -40 40 -45 80 -45h10v-50h-30c-80 0 -160 10 -160 90zM70 0v660h150v-660h-150z" />
    <glyph glyph-name="iogonek" unicode="&#x12f;" horiz-adv-x="260" 
d="M10 -135c0 35 20 65 90 135h100c-75 -75 -90 -100 -90 -130c0 -40 40 -45 80 -45h10v-50h-30c-80 0 -160 10 -160 90zM60 0v480h140v-480h-140zM60 560v100h140v-100h-140z" />
    <glyph glyph-name="Idotaccent" unicode="&#x130;" horiz-adv-x="290" 
d="M85 760v100h120v-100h-120zM70 0v660h150v-660h-150z" />
    <glyph glyph-name="dotlessi" unicode="&#x131;" horiz-adv-x="260" 
d="M60 0v480h140v-480h-140z" />
    <glyph glyph-name="IJ" unicode="&#x132;" horiz-adv-x="1150" 
d="M330 135v120h150v-135c0 -35 30 -35 60 -35h330c30 0 60 0 60 35v540h150v-525c0 -135 -120 -135 -240 -135h-270c-120 0 -240 0 -240 135zM70 0v660h150v-660h-150z" />
    <glyph glyph-name="ij" unicode="&#x133;" horiz-adv-x="500" 
d="M190 -150c80 20 110 60 110 150v480h140v-480c0 -200 -150 -215 -250 -225v75zM300 560v100h140v-100h-140zM60 0v480h140v-480h-140zM60 560v100h140v-100h-140z" />
    <glyph glyph-name="Jcircumflex" unicode="&#x134;" 
d="M545 730l160 160h80l160 -160h-100l-100 90l-100 -90h-100zM70 135v120h150v-135c0 -35 30 -35 60 -35h330c30 0 60 0 60 35v540h150v-525c0 -135 -120 -135 -240 -135h-270c-120 0 -240 0 -240 135z" />
    <glyph glyph-name="jcircumflex" unicode="&#x135;" horiz-adv-x="320" 
d="M-40 550l160 160h80l160 -160h-100l-100 90l-100 -90h-100zM-20 -150c80 20 110 60 110 150v480h140v-480c0 -200 -150 -215 -250 -225v75z" />
    <glyph glyph-name="Kcommaaccent" unicode="&#x136;" horiz-adv-x="810" 
d="M325 -225l30 155h130l-60 -155h-100zM70 0v660h150v-350l350 350h180l-310 -310l350 -350h-180l-260 260l-130 -130v-130h-150z" />
    <glyph glyph-name="kcommaaccent" unicode="&#x137;" horiz-adv-x="640" 
d="M245 -225l30 155h130l-60 -155h-100zM60 0v660h140v-420l240 240h160l-230 -230l250 -250h-160l-170 170l-90 -90v-80h-140z" />
    <glyph glyph-name="kgreenlandic" unicode="&#x138;" horiz-adv-x="640" 
d="M60 0v480h140v-240l240 240h160l-230 -230l250 -250h-160l-170 170l-90 -90v-80h-140z" />
    <glyph glyph-name="Lacute" unicode="&#x139;" horiz-adv-x="800" 
d="M310 730l100 160h150l-160 -160h-90zM70 0v660h150v-575h550v-85h-700z" />
    <glyph glyph-name="lacute" unicode="&#x13a;" horiz-adv-x="260" 
d="M10 730l100 160h150l-160 -160h-90zM60 0v660h140v-660h-140z" />
    <glyph glyph-name="Lcommaaccent" unicode="&#x13b;" horiz-adv-x="800" 
d="M340 -225l30 155h130l-60 -155h-100zM70 0v660h150v-575h550v-85h-700z" />
    <glyph glyph-name="lcommaaccent" unicode="&#x13c;" horiz-adv-x="260" 
d="M35 -225l30 155h130l-60 -155h-100zM60 0v660h140v-660h-140z" />
    <glyph glyph-name="Lcaron" unicode="&#x13d;" horiz-adv-x="800" 
d="M460 460l50 200h120l-80 -200h-90zM70 0v660h150v-575h550v-85h-700z" />
    <glyph glyph-name="lcaron" unicode="&#x13e;" horiz-adv-x="460" 
d="M270 460l50 200h120l-80 -200h-90zM60 0v660h140v-660h-140z" />
    <glyph glyph-name="Ldot" unicode="&#x13f;" horiz-adv-x="800" 
d="M410 305v120h150v-120h-150zM70 0v660h150v-575h550v-85h-700z" />
    <glyph glyph-name="ldot" unicode="&#x140;" horiz-adv-x="510" 
d="M300 305v120h150v-120h-150zM60 0v660h140v-660h-140z" />
    <glyph glyph-name="Lslash" unicode="&#x141;" horiz-adv-x="850" 
d="M20 225v95l100 50v290h150v-215l200 100v-95l-200 -100v-265h550v-85h-700v275z" />
    <glyph glyph-name="lslash" unicode="&#x142;" horiz-adv-x="340" 
d="M20 240v90l80 40v290h140v-220l80 40v-90l-80 -40v-350h-140v280z" />
    <glyph glyph-name="Nacute" unicode="&#x143;" 
d="M355 730l100 160h150l-160 -160h-90zM70 0v660h160l440 -490v490h150v-660h-160l-440 490v-490h-150z" />
    <glyph glyph-name="nacute" unicode="&#x144;" horiz-adv-x="700" 
d="M260 550l100 160h150l-160 -160h-90zM60 0v480h380c100 0 200 0 200 -115v-365h-140v375c0 30 -25 30 -50 30h-250v-405h-140z" />
    <glyph glyph-name="Ncommaaccent" unicode="&#x145;" 
d="M365 -225l30 155h130l-60 -155h-100zM70 0v660h160l440 -490v490h150v-660h-160l-440 490v-490h-150z" />
    <glyph glyph-name="ncommaaccent" unicode="&#x146;" horiz-adv-x="700" 
d="M270 -225l30 155h130l-60 -155h-100zM60 0v480h380c100 0 200 0 200 -115v-365h-140v375c0 30 -25 30 -50 30h-250v-405h-140z" />
    <glyph glyph-name="Ncaron" unicode="&#x147;" 
d="M245 890h100l100 -90l100 90h100l-160 -160h-80zM70 0v660h160l440 -490v490h150v-660h-160l-440 490v-490h-150z" />
    <glyph glyph-name="ncaron" unicode="&#x148;" horiz-adv-x="700" 
d="M150 710h100l100 -90l100 90h100l-160 -160h-80zM60 0v480h380c100 0 200 0 200 -115v-365h-140v375c0 30 -25 30 -50 30h-250v-405h-140z" />
    <glyph glyph-name="napostrophe" unicode="&#x149;" horiz-adv-x="830" 
d="M190 0v480h380c100 0 200 0 200 -115v-365h-140v375c0 30 -25 30 -50 30h-250v-405h-140zM20 460l50 200h120l-80 -200h-90z" />
    <glyph glyph-name="Eng" unicode="&#x14a;" 
d="M70 0v660h160l440 -490v490h150v-660c0 -150 -124 -215 -300 -225v85c40 5 140 35 140 140l-440 490v-490h-150z" />
    <glyph glyph-name="eng" unicode="&#x14b;" horiz-adv-x="700" 
d="M60 0v480h380c100 0 200 0 200 -115v-365c0 -200 -150 -215 -250 -225v75c80 20 110 60 110 150v375c0 30 -25 30 -50 30h-250v-405h-140z" />
    <glyph glyph-name="Omacron" unicode="&#x14c;" 
d="M265 765v75h360v-75h-360zM70 135v390c0 135 120 135 240 135h270c120 0 240 0 240 -135v-390c0 -135 -120 -135 -240 -135h-270c-120 0 -240 0 -240 135zM220 120c0 -35 30 -35 60 -35h330c30 0 60 0 60 35v420c0 35 -30 35 -60 35h-330c-30 0 -60 0 -60 -35v-420z" />
    <glyph glyph-name="omacron" unicode="&#x14d;" horiz-adv-x="700" 
d="M170 585v75h360v-75h-360zM60 115v250c0 115 100 115 200 115h180c100 0 200 0 200 -115v-250c0 -115 -100 -115 -200 -115h-180c-100 0 -200 0 -200 115zM200 105c0 -30 25 -30 50 -30h200c25 0 50 0 50 30v270c0 30 -25 30 -50 30h-200c-25 0 -50 0 -50 -30v-270z" />
    <glyph glyph-name="Obreve" unicode="&#x14e;" 
d="M285 890h75c0 -47 38 -85 85 -85s85 38 85 85h75c0 -88 -72 -160 -160 -160s-160 72 -160 160zM70 135v390c0 135 120 135 240 135h270c120 0 240 0 240 -135v-390c0 -135 -120 -135 -240 -135h-270c-120 0 -240 0 -240 135zM220 120c0 -35 30 -35 60 -35h330
c30 0 60 0 60 35v420c0 35 -30 35 -60 35h-330c-30 0 -60 0 -60 -35v-420z" />
    <glyph glyph-name="obreve" unicode="&#x14f;" horiz-adv-x="700" 
d="M190 710h75c0 -47 38 -85 85 -85s85 38 85 85h75c0 -88 -72 -160 -160 -160s-160 72 -160 160zM60 115v250c0 115 100 115 200 115h180c100 0 200 0 200 -115v-250c0 -115 -100 -115 -200 -115h-180c-100 0 -200 0 -200 115zM200 105c0 -30 25 -30 50 -30h200
c25 0 50 0 50 30v270c0 30 -25 30 -50 30h-200c-25 0 -50 0 -50 -30v-270z" />
    <glyph glyph-name="Ohungarumlaut" unicode="&#x150;" 
d="M265 730l80 160h120l-120 -160h-80zM485 730l80 160h120l-120 -160h-80zM70 135v390c0 135 120 135 240 135h270c120 0 240 0 240 -135v-390c0 -135 -120 -135 -240 -135h-270c-120 0 -240 0 -240 135zM220 120c0 -35 30 -35 60 -35h330c30 0 60 0 60 35v420
c0 35 -30 35 -60 35h-330c-30 0 -60 0 -60 -35v-420z" />
    <glyph glyph-name="ohungarumlaut" unicode="&#x151;" horiz-adv-x="700" 
d="M170 550l80 160h120l-120 -160h-80zM390 550l80 160h120l-120 -160h-80zM60 115v250c0 115 100 115 200 115h180c100 0 200 0 200 -115v-250c0 -115 -100 -115 -200 -115h-180c-100 0 -200 0 -200 115zM200 105c0 -30 25 -30 50 -30h200c25 0 50 0 50 30v270
c0 30 -25 30 -50 30h-200c-25 0 -50 0 -50 -30v-270z" />
    <glyph glyph-name="OE" unicode="&#x152;" horiz-adv-x="1340" 
d="M70 135v390c0 135 120 135 240 135h960v-85h-500v-165h450v-85h-450v-240h500v-85h-960c-120 0 -240 0 -240 135zM220 120c0 -35 30 -35 60 -35h280c30 0 60 0 60 35v420c0 35 -30 35 -60 35h-280c-30 0 -60 0 -60 -35v-420z" />
    <glyph glyph-name="oe" unicode="&#x153;" horiz-adv-x="1140" 
d="M60 115v250c0 115 100 115 200 115h620c100 0 200 0 200 -115v-140h-440v-120c0 -30 25 -30 50 -30h370v-75h-800c-100 0 -200 0 -200 115zM200 105c0 -30 25 -30 50 -30h200c25 0 50 0 50 30v270c0 30 -25 30 -50 30h-200c-25 0 -50 0 -50 -30v-270zM640 300h300v75
c0 30 -25 30 -50 30h-200c-25 0 -50 0 -50 -30v-75z" />
    <glyph glyph-name="Racute" unicode="&#x154;" 
d="M355 730l100 160h150l-160 -160h-90zM70 0v660h510c120 0 240 0 240 -135v-100c0 -135 -120 -135 -240 -135h-10l290 -290h-180l-290 290h-170v-290h-150zM220 375h390c30 0 60 0 60 35v130c0 35 -30 35 -60 35h-390v-200z" />
    <glyph glyph-name="racute" unicode="&#x155;" horiz-adv-x="460" 
d="M130 550l100 160h150l-160 -160h-90zM60 0v365c0 115 100 115 200 115h140v-75h-150c-25 0 -50 0 -50 -30v-375h-140z" />
    <glyph glyph-name="Rcommaaccent" unicode="&#x156;" 
d="M365 -225l30 155h130l-60 -155h-100zM70 0v660h510c120 0 240 0 240 -135v-100c0 -135 -120 -135 -240 -135h-10l290 -290h-180l-290 290h-170v-290h-150zM220 375h390c30 0 60 0 60 35v130c0 35 -30 35 -60 35h-390v-200z" />
    <glyph glyph-name="rcommaaccent" unicode="&#x157;" horiz-adv-x="460" 
d="M35 -225l30 155h130l-60 -155h-100zM60 0v365c0 115 100 115 200 115h140v-75h-150c-25 0 -50 0 -50 -30v-375h-140z" />
    <glyph glyph-name="Rcaron" unicode="&#x158;" 
d="M245 890h100l100 -90l100 90h100l-160 -160h-80zM70 0v660h510c120 0 240 0 240 -135v-100c0 -135 -120 -135 -240 -135h-10l290 -290h-180l-290 290h-170v-290h-150zM220 375h390c30 0 60 0 60 35v130c0 35 -30 35 -60 35h-390v-200z" />
    <glyph glyph-name="rcaron" unicode="&#x159;" horiz-adv-x="460" 
d="M30 710h100l100 -90l100 90h100l-160 -160h-80zM60 0v365c0 115 100 115 200 115h140v-75h-150c-25 0 -50 0 -50 -30v-375h-140z" />
    <glyph glyph-name="Sacute" unicode="&#x15a;" 
d="M355 730l100 160h150l-160 -160h-90zM70 0v85h540c30 0 60 0 60 35v170c0 35 -30 35 -60 35h-300c-120 0 -240 0 -240 135v65c0 135 120 135 240 135h460v-85h-490c-30 0 -60 0 -60 -35v-95c0 -35 30 -35 60 -35h300c120 0 240 0 240 -135v-140
c0 -135 -120 -135 -240 -135h-510z" />
    <glyph glyph-name="sacute" unicode="&#x15b;" horiz-adv-x="700" 
d="M260 550l100 160h150l-160 -160h-90zM60 0v75h390c25 0 50 0 50 30v90c0 30 -25 30 -50 30h-190c-100 0 -200 0 -200 115v25c0 115 100 115 200 115h340v-75h-350c-25 0 -50 0 -50 -30v-45c0 -30 25 -30 50 -30h190c100 0 200 0 200 -115v-70c0 -115 -100 -115 -200 -115
h-380z" />
    <glyph glyph-name="Scircumflex" unicode="&#x15c;" 
d="M245 730l160 160h80l160 -160h-100l-100 90l-100 -90h-100zM70 0v85h540c30 0 60 0 60 35v170c0 35 -30 35 -60 35h-300c-120 0 -240 0 -240 135v65c0 135 120 135 240 135h460v-85h-490c-30 0 -60 0 -60 -35v-95c0 -35 30 -35 60 -35h300c120 0 240 0 240 -135v-140
c0 -135 -120 -135 -240 -135h-510z" />
    <glyph glyph-name="scircumflex" unicode="&#x15d;" horiz-adv-x="700" 
d="M150 550l160 160h80l160 -160h-100l-100 90l-100 -90h-100zM60 0v75h390c25 0 50 0 50 30v90c0 30 -25 30 -50 30h-190c-100 0 -200 0 -200 115v25c0 115 100 115 200 115h340v-75h-350c-25 0 -50 0 -50 -30v-45c0 -30 25 -30 50 -30h190c100 0 200 0 200 -115v-70
c0 -115 -100 -115 -200 -115h-380z" />
    <glyph glyph-name="Scedilla" unicode="&#x15e;" 
d="M370 -175h30c40 0 80 5 80 45c0 30 -15 55 -90 130h100c70 -70 90 -100 90 -135c0 -80 -80 -90 -160 -90h-50v50zM70 0v85h540c30 0 60 0 60 35v170c0 35 -30 35 -60 35h-300c-120 0 -240 0 -240 135v65c0 135 120 135 240 135h460v-85h-490c-30 0 -60 0 -60 -35v-95
c0 -35 30 -35 60 -35h300c120 0 240 0 240 -135v-140c0 -135 -120 -135 -240 -135h-510z" />
    <glyph glyph-name="scedilla" unicode="&#x15f;" horiz-adv-x="700" 
d="M270 -175h30c40 0 80 5 80 45c0 30 -15 55 -90 130h100c70 -70 90 -100 90 -135c0 -80 -80 -90 -160 -90h-50v50zM60 0v75h390c25 0 50 0 50 30v90c0 30 -25 30 -50 30h-190c-100 0 -200 0 -200 115v25c0 115 100 115 200 115h340v-75h-350c-25 0 -50 0 -50 -30v-45
c0 -30 25 -30 50 -30h190c100 0 200 0 200 -115v-70c0 -115 -100 -115 -200 -115h-380z" />
    <glyph glyph-name="Scaron" unicode="&#x160;" 
d="M245 890h100l100 -90l100 90h100l-160 -160h-80zM70 0v85h540c30 0 60 0 60 35v170c0 35 -30 35 -60 35h-300c-120 0 -240 0 -240 135v65c0 135 120 135 240 135h460v-85h-490c-30 0 -60 0 -60 -35v-95c0 -35 30 -35 60 -35h300c120 0 240 0 240 -135v-140
c0 -135 -120 -135 -240 -135h-510z" />
    <glyph glyph-name="scaron" unicode="&#x161;" horiz-adv-x="700" 
d="M150 710h100l100 -90l100 90h100l-160 -160h-80zM60 0v75h390c25 0 50 0 50 30v90c0 30 -25 30 -50 30h-190c-100 0 -200 0 -200 115v25c0 115 100 115 200 115h340v-75h-350c-25 0 -50 0 -50 -30v-45c0 -30 25 -30 50 -30h190c100 0 200 0 200 -115v-70
c0 -115 -100 -115 -200 -115h-380z" />
    <glyph glyph-name="Tcommaaccent" unicode="&#x162;" 
d="M350 -175h30c40 0 80 5 80 45c0 30 -15 55 -90 130h100c70 -70 90 -100 90 -135c0 -80 -80 -90 -160 -90h-50v50zM30 575v85h830v-85h-340v-575h-150v575h-340z" />
    <glyph glyph-name="tcommaaccent" unicode="&#x163;" horiz-adv-x="460" 
d="M190 -175h30c40 0 80 5 80 45c0 30 -15 55 -90 130h100c70 -70 90 -100 90 -135c0 -80 -80 -90 -160 -90h-50v50zM60 115v545h140v-180h200v-75h-200v-300c0 -30 25 -30 50 -30h150v-75h-140c-100 0 -200 0 -200 115z" />
    <glyph glyph-name="Tcaron" unicode="&#x164;" 
d="M245 890h100l100 -90l100 90h100l-160 -160h-80zM30 575v85h830v-85h-340v-575h-150v575h-340z" />
    <glyph glyph-name="tcaron" unicode="&#x165;" horiz-adv-x="660" 
d="M470 460l50 200h120l-80 -200h-90zM60 115v545h140v-180h200v-75h-200v-300c0 -30 25 -30 50 -30h150v-75h-140c-100 0 -200 0 -200 115z" />
    <glyph glyph-name="Tbar" unicode="&#x166;" 
d="M30 575v85h830v-85h-340v-170h200v-75h-200v-330h-150v330h-200v75h200v170h-340z" />
    <glyph glyph-name="tbar" unicode="&#x167;" horiz-adv-x="480" 
d="M20 235v65h60v360h140v-180h200v-75h-200v-105h150v-65h-150v-130c0 -30 25 -30 50 -30h150v-75h-140c-100 0 -200 0 -200 115v120h-60z" />
    <glyph glyph-name="Utilde" unicode="&#x168;" 
d="M340 880c25 0 35 -5 105 -40c40 -20 60 -30 70 -30c15 0 25 10 40 70h90c-25 -105 -55 -140 -95 -140c-25 0 -35 5 -105 40c-40 20 -60 30 -70 30c-15 0 -25 -10 -40 -70h-90c25 105 55 140 95 140zM70 135v525h150v-540c0 -35 30 -35 60 -35h330c30 0 60 0 60 35v540
h150v-525c0 -135 -120 -135 -240 -135h-270c-120 0 -240 0 -240 135z" />
    <glyph glyph-name="utilde" unicode="&#x169;" horiz-adv-x="700" 
d="M245 700c25 0 35 -5 105 -40c40 -20 60 -30 70 -30c15 0 25 10 40 70h90c-25 -105 -55 -140 -95 -140c-25 0 -35 5 -105 40c-40 20 -60 30 -70 30c-15 0 -25 -10 -40 -70h-90c25 105 55 140 95 140zM60 115v365h140v-375c0 -30 25 -30 50 -30h200c25 0 50 0 50 30v375
h140v-365c0 -115 -100 -115 -200 -115h-180c-100 0 -200 0 -200 115z" />
    <glyph glyph-name="Umacron" unicode="&#x16a;" 
d="M265 765v75h360v-75h-360zM70 135v525h150v-540c0 -35 30 -35 60 -35h330c30 0 60 0 60 35v540h150v-525c0 -135 -120 -135 -240 -135h-270c-120 0 -240 0 -240 135z" />
    <glyph glyph-name="umacron" unicode="&#x16b;" horiz-adv-x="700" 
d="M170 585v75h360v-75h-360zM60 115v365h140v-375c0 -30 25 -30 50 -30h200c25 0 50 0 50 30v375h140v-365c0 -115 -100 -115 -200 -115h-180c-100 0 -200 0 -200 115z" />
    <glyph glyph-name="Ubreve" unicode="&#x16c;" 
d="M285 890h75c0 -47 38 -85 85 -85s85 38 85 85h75c0 -88 -72 -160 -160 -160s-160 72 -160 160zM70 135v525h150v-540c0 -35 30 -35 60 -35h330c30 0 60 0 60 35v540h150v-525c0 -135 -120 -135 -240 -135h-270c-120 0 -240 0 -240 135z" />
    <glyph glyph-name="ubreve" unicode="&#x16d;" horiz-adv-x="700" 
d="M190 710h75c0 -47 38 -85 85 -85s85 38 85 85h75c0 -88 -72 -160 -160 -160s-160 72 -160 160zM60 115v365h140v-375c0 -30 25 -30 50 -30h200c25 0 50 0 50 30v375h140v-365c0 -115 -100 -115 -200 -115h-180c-100 0 -200 0 -200 115z" />
    <glyph glyph-name="Uring" unicode="&#x16e;" 
d="M270 745v60c0 57 40 85 120 85h110c80 0 120 -28 120 -85v-60c0 -57 -40 -85 -120 -85h-110c-80 0 -120 28 -120 85zM370 730c0 -13 10 -20 30 -20h90c20 0 30 7 30 20v90c0 13 -10 20 -30 20h-90c-20 0 -30 -7 -30 -20v-90zM70 135v525h150v-540c0 -35 30 -35 60 -35
h330c30 0 60 0 60 35v540h150v-525c0 -135 -120 -135 -240 -135h-270c-120 0 -240 0 -240 135z" />
    <glyph glyph-name="uring" unicode="&#x16f;" horiz-adv-x="700" 
d="M175 635v60c0 57 40 85 120 85h110c80 0 120 -28 120 -85v-60c0 -57 -40 -85 -120 -85h-110c-80 0 -120 28 -120 85zM275 620c0 -13 10 -20 30 -20h90c20 0 30 7 30 20v90c0 13 -10 20 -30 20h-90c-20 0 -30 -7 -30 -20v-90zM60 115v365h140v-375c0 -30 25 -30 50 -30
h200c25 0 50 0 50 30v375h140v-365c0 -115 -100 -115 -200 -115h-180c-100 0 -200 0 -200 115z" />
    <glyph glyph-name="Uhungarumlaut" unicode="&#x170;" 
d="M265 730l80 160h120l-120 -160h-80zM485 730l80 160h120l-120 -160h-80zM70 135v525h150v-540c0 -35 30 -35 60 -35h330c30 0 60 0 60 35v540h150v-525c0 -135 -120 -135 -240 -135h-270c-120 0 -240 0 -240 135z" />
    <glyph glyph-name="uhungarumlaut" unicode="&#x171;" horiz-adv-x="700" 
d="M170 550l80 160h120l-120 -160h-80zM390 550l80 160h120l-120 -160h-80zM60 115v365h140v-375c0 -30 25 -30 50 -30h200c25 0 50 0 50 30v375h140v-365c0 -115 -100 -115 -200 -115h-180c-100 0 -200 0 -200 115z" />
    <glyph glyph-name="Uogonek" unicode="&#x172;" 
d="M390 -135c0 35 20 65 90 135h100c-75 -75 -90 -100 -90 -130c0 -40 40 -45 80 -45h10v-50h-30c-80 0 -160 10 -160 90zM70 135v525h150v-540c0 -35 30 -35 60 -35h330c30 0 60 0 60 35v540h150v-525c0 -135 -120 -135 -240 -135h-270c-120 0 -240 0 -240 135z" />
    <glyph glyph-name="uogonek" unicode="&#x173;" horiz-adv-x="700" 
d="M250 -135c0 35 20 65 90 135h100c-75 -75 -90 -100 -90 -130c0 -40 40 -45 80 -45h10v-50h-30c-80 0 -160 10 -160 90zM60 115v365h140v-375c0 -30 25 -30 50 -30h200c25 0 50 0 50 30v375h140v-365c0 -115 -100 -115 -200 -115h-180c-100 0 -200 0 -200 115z" />
    <glyph glyph-name="Wcircumflex" unicode="&#x174;" horiz-adv-x="1200" 
d="M400 730l160 160h80l160 -160h-100l-100 90l-100 -90h-100zM20 660h150l175 -525l165 495h180l165 -495l175 525h150l-220 -660h-190l-170 510l-170 -510h-190z" />
    <glyph glyph-name="wcircumflex" unicode="&#x175;" horiz-adv-x="880" 
d="M240 550l160 160h80l160 -160h-100l-100 90l-100 -90h-100zM20 480h130l115 -345l105 315h140l105 -315l115 345h130l-160 -480h-150l-110 330l-110 -330h-150z" />
    <glyph glyph-name="Ycircumflex" unicode="&#x176;" 
d="M245 730l160 160h80l160 -160h-100l-100 90l-100 -90h-100zM20 660h180l245 -245l245 245h180l-350 -350v-310h-150v310z" />
    <glyph glyph-name="ycircumflex" unicode="&#x177;" horiz-adv-x="680" 
d="M140 550l160 160h80l160 -160h-100l-100 90l-100 -90h-100zM20 480h140l180 -360l180 360h140l-300 -600c-30 -60 -55 -105 -150 -105h-130v75h80c45 0 50 10 65 40l45 90z" />
    <glyph glyph-name="Ydieresis" unicode="&#x178;" 
d="M270 760v100h120v-100h-120zM500 760v100h120v-100h-120zM20 660h180l245 -245l245 245h180l-350 -350v-310h-150v310z" />
    <glyph glyph-name="Zacute" unicode="&#x179;" horiz-adv-x="850" 
d="M335 730l100 160h150l-160 -160h-90zM50 0v85l535 490h-515v85h710v-85l-535 -490h555v-85h-750z" />
    <glyph glyph-name="zacute" unicode="&#x17a;" horiz-adv-x="680" 
d="M250 550l100 160h150l-160 -160h-90zM50 0v75l385 330h-365v75h540v-75l-385 -330h405v-75h-580z" />
    <glyph glyph-name="Zdotaccent" unicode="&#x17b;" horiz-adv-x="850" 
d="M365 760v100h120v-100h-120zM50 0v85l535 490h-515v85h710v-85l-535 -490h555v-85h-750z" />
    <glyph glyph-name="zdotaccent" unicode="&#x17c;" horiz-adv-x="680" 
d="M280 580v100h120v-100h-120zM50 0v75l385 330h-365v75h540v-75l-385 -330h405v-75h-580z" />
    <glyph glyph-name="Zcaron" unicode="&#x17d;" horiz-adv-x="850" 
d="M225 890h100l100 -90l100 90h100l-160 -160h-80zM50 0v85l535 490h-515v85h710v-85l-535 -490h555v-85h-750z" />
    <glyph glyph-name="zcaron" unicode="&#x17e;" horiz-adv-x="680" 
d="M140 710h100l100 -90l100 90h100l-160 -160h-80zM50 0v75l385 330h-365v75h540v-75l-385 -330h405v-75h-580z" />
    <glyph glyph-name="longs" unicode="&#x17f;" horiz-adv-x="560" 
d="M60 405v75h100v65c0 115 100 115 200 115h140v-75h-150c-25 0 -50 0 -50 -30v-555h-140v405h-100z" />
    <glyph glyph-name="florin" unicode="&#x192;" horiz-adv-x="560" 
d="M20 -150h90c25 0 50 0 50 30v525h-100v75h100v65c0 115 100 115 200 115h140v-75h-150c-25 0 -50 0 -50 -30v-75h200v-75h-200v-515c0 -115 -100 -115 -200 -115h-80v75z" />
    <glyph glyph-name="Aringacute" unicode="&#x1fa;" 
d="M270 745v60c0 57 40 85 120 85h110c80 0 120 -28 120 -85v-60c0 -57 -40 -85 -120 -85h-110c-80 0 -120 28 -120 85zM370 730c0 -13 10 -20 30 -20h90c20 0 30 7 30 20v90c0 13 -10 20 -30 20h-90c-20 0 -30 -7 -30 -20v-90zM20 0l330 660h190l330 -660h-150l-105 210
h-340l-105 -210h-150zM315 290h260l-130 260zM640 730l100 160h150l-160 -160h-90z" />
    <glyph glyph-name="aringacute" unicode="&#x1fb;" horiz-adv-x="760" 
d="M175 635v60c0 57 40 85 120 85h110c80 0 120 -28 120 -85v-60c0 -57 -40 -85 -120 -85h-110c-80 0 -120 28 -120 85zM275 620c0 -13 10 -20 30 -20h90c20 0 30 7 30 20v90c0 13 -10 20 -30 20h-90c-20 0 -30 -7 -30 -20v-90zM60 115v70c0 115 100 115 200 115h240v75
c0 30 -25 30 -50 30h-350v75h340c100 0 200 0 200 -115v-365h-380c-100 0 -200 0 -200 115zM200 105c0 -30 25 -30 50 -30h250v150h-250c-25 0 -50 0 -50 -30v-90zM545 730l100 160h150l-160 -160h-90z" />
    <glyph glyph-name="AEacute" unicode="&#x1fc;" horiz-adv-x="1290" 
d="M555 730l100 160h150l-160 -160h-90zM20 0l330 660h870v-85h-500v-165h450v-85h-450v-240h500v-85h-650v210h-295l-105 -210h-150zM315 290h255v285h-113z" />
    <glyph glyph-name="aeacute" unicode="&#x1fd;" horiz-adv-x="1140" 
d="M480 550l100 160h150l-160 -160h-90zM60 115v70c0 115 100 115 200 115h240v75c0 30 -25 30 -50 30h-350v75h780c100 0 200 0 200 -115v-140h-440v-120c0 -30 25 -30 50 -30h370v-75h-800c-100 0 -200 0 -200 115zM200 105c0 -30 25 -30 50 -30h250v150h-250
c-25 0 -50 0 -50 -30v-90zM640 300h300v75c0 30 -25 30 -50 30h-200c-25 0 -50 0 -50 -30v-75z" />
    <glyph glyph-name="Oslashacute" unicode="&#x1fe;" horiz-adv-x="990" 
d="M405 730l100 160h150l-160 -160h-90zM20 95v90l100 40v300c0 135 120 135 240 135h270c120 0 240 0 240 -135l100 40v-90l-100 -40v-300c0 -135 -120 -135 -240 -135h-270c-120 0 -240 0 -240 135zM270 120c0 -35 30 -35 60 -35h330c30 0 60 0 60 35v255l-450 -180v-75z
M270 285l450 180v75c0 35 -30 35 -60 35h-330c-30 0 -60 0 -60 -35v-255z" />
    <glyph glyph-name="oslashacute" unicode="&#x1ff;" horiz-adv-x="780" 
d="M300 550l100 160h150l-160 -160h-90zM20 91v76l80 24v174c0 115 100 115 200 115h180c100 0 200 0 200 -115l80 24v-76l-80 -24v-174c0 -115 -100 -115 -200 -115h-180c-100 0 -200 0 -200 115zM240 105c0 -30 25 -30 50 -30h200c25 0 50 0 50 30v142l-300 -90v-52z
M240 233l300 90v52c0 30 -25 30 -50 30h-200c-25 0 -50 0 -50 -30v-142z" />
    <glyph glyph-name="Scommaaccent" unicode="&#x218;" 
d="M365 -225l30 155h130l-60 -155h-100zM70 0v85h540c30 0 60 0 60 35v170c0 35 -30 35 -60 35h-300c-120 0 -240 0 -240 135v65c0 135 120 135 240 135h460v-85h-490c-30 0 -60 0 -60 -35v-95c0 -35 30 -35 60 -35h300c120 0 240 0 240 -135v-140
c0 -135 -120 -135 -240 -135h-510z" />
    <glyph glyph-name="scommaaccent" unicode="&#x219;" horiz-adv-x="700" 
d="M270 -225l30 155h130l-60 -155h-100zM60 0v75h390c25 0 50 0 50 30v90c0 30 -25 30 -50 30h-190c-100 0 -200 0 -200 115v25c0 115 100 115 200 115h340v-75h-350c-25 0 -50 0 -50 -30v-45c0 -30 25 -30 50 -30h190c100 0 200 0 200 -115v-70c0 -115 -100 -115 -200 -115
h-380z" />
    <glyph glyph-name="uni021A" unicode="&#x21a;" 
d="M350 -225l30 155h130l-60 -155h-100zM30 575v85h830v-85h-340v-575h-150v575h-340z" />
    <glyph glyph-name="uni021B" unicode="&#x21b;" horiz-adv-x="460" 
d="M140 -225l30 155h130l-60 -155h-100zM60 115v545h140v-180h200v-75h-200v-300c0 -30 25 -30 50 -30h150v-75h-140c-100 0 -200 0 -200 115z" />
    <glyph glyph-name="uni0237" unicode="&#x237;" horiz-adv-x="260" 
d="M-50 -150c80 20 110 60 110 150v480h140v-480c0 -200 -150 -215 -250 -225v75z" />
    <glyph glyph-name="afii57929" unicode="&#x2bc;" horiz-adv-x="320" 
d="M75 460l50 200h120l-80 -200h-90z" />
    <glyph glyph-name="circumflex" unicode="&#x2c6;" horiz-adv-x="500" 
d="M50 550l160 160h80l160 -160h-100l-100 90l-100 -90h-100z" />
    <glyph glyph-name="caron" unicode="&#x2c7;" horiz-adv-x="500" 
d="M50 710h100l100 -90l100 90h100l-160 -160h-80z" />
    <glyph glyph-name="uni02C9" unicode="&#x2c9;" horiz-adv-x="500" 
d="M70 585v75h360v-75h-360z" />
    <glyph glyph-name="breve" unicode="&#x2d8;" horiz-adv-x="500" 
d="M90 710h75c0 -47 38 -85 85 -85s85 38 85 85h75c0 -88 -72 -160 -160 -160s-160 72 -160 160z" />
    <glyph glyph-name="dotaccent" unicode="&#x2d9;" horiz-adv-x="500" 
d="M190 580v100h120v-100h-120z" />
    <glyph glyph-name="ring" unicode="&#x2da;" horiz-adv-x="500" 
d="M75 635v60c0 57 40 85 120 85h110c80 0 120 -28 120 -85v-60c0 -57 -40 -85 -120 -85h-110c-80 0 -120 28 -120 85zM175 620c0 -13 10 -20 30 -20h90c20 0 30 7 30 20v90c0 13 -10 20 -30 20h-90c-20 0 -30 -7 -30 -20v-90z" />
    <glyph glyph-name="ogonek" unicode="&#x2db;" horiz-adv-x="500" 
d="M130 -135c0 35 20 65 90 135h100c-75 -75 -90 -100 -90 -130c0 -40 40 -45 80 -45h10v-50h-30c-80 0 -160 10 -160 90z" />
    <glyph glyph-name="tilde" unicode="&#x2dc;" horiz-adv-x="500" 
d="M145 700c25 0 35 -5 105 -40c40 -20 60 -30 70 -30c15 0 25 10 40 70h90c-25 -105 -55 -140 -95 -140c-25 0 -35 5 -105 40c-40 20 -60 30 -70 30c-15 0 -25 -10 -40 -70h-90c25 105 55 140 95 140z" />
    <glyph glyph-name="hungarumlaut" unicode="&#x2dd;" horiz-adv-x="500" 
d="M70 550l80 160h120l-120 -160h-80zM290 550l80 160h120l-120 -160h-80z" />
    <glyph glyph-name="uni0312" unicode="&#x312;" horiz-adv-x="0" 
d="M-420 550l100 250h80l-50 -250h-130z" />
    <glyph glyph-name="uni0326" unicode="&#x326;" horiz-adv-x="0" 
d="M-430 -225l30 155h130l-60 -155h-100z" />
    <glyph glyph-name="uni037A" unicode="&#x37a;" horiz-adv-x="500" 
d="M170 -50h100v-100c0 -25 20 -25 40 -25h20v-50c-80 0 -160 0 -160 90v85z" />
    <glyph glyph-name="uni037E" unicode="&#x37e;" horiz-adv-x="330" 
d="M45 -150l60 270h140l-120 -270h-80zM105 360v120h150v-120h-150z" />
    <glyph glyph-name="tonos" unicode="&#x384;" horiz-adv-x="500" 
d="M170 550l60 160h130l-100 -160h-90z" />
    <glyph glyph-name="dieresistonos" unicode="&#x385;" horiz-adv-x="500" 
d="M75 580v100h120v-100h-120zM305 580v100h120v-100h-120zM170 730l60 160h130l-100 -160h-90z" />
    <glyph glyph-name="Alphatonos" unicode="&#x386;" 
d="M50 500l60 160h130l-100 -160h-90zM20 0l330 660h190l330 -660h-150l-105 210h-340l-105 -210h-150zM315 290h260l-130 260z" />
    <glyph glyph-name="anoteleia" unicode="&#x387;" horiz-adv-x="300" 
d="M75 180v120h150v-120h-150z" />
    <glyph glyph-name="Epsilontonos" unicode="&#x388;" horiz-adv-x="1030" 
d="M20 500l60 160h130l-100 -160h-90zM260 0v660h700v-85h-550v-165h500v-85h-500v-240h550v-85h-700z" />
    <glyph glyph-name="Etatonos" unicode="&#x389;" horiz-adv-x="1080" 
d="M20 500l60 160h130l-100 -160h-90zM260 0v660h150v-250h450v250h150v-660h-150v325h-450v-325h-150z" />
    <glyph glyph-name="Iotatonos" unicode="&#x38a;" horiz-adv-x="480" 
d="M20 500l60 160h130l-100 -160h-90zM260 0v660h150v-660h-150z" />
    <glyph glyph-name="Omicrontonos" unicode="&#x38c;" horiz-adv-x="1060" 
d="M20 500l60 160h130l-100 -160h-90zM240 135v390c0 135 120 135 240 135h270c120 0 240 0 240 -135v-390c0 -135 -120 -135 -240 -135h-270c-120 0 -240 0 -240 135zM390 120c0 -35 30 -35 60 -35h330c30 0 60 0 60 35v420c0 35 -30 35 -60 35h-330c-30 0 -60 0 -60 -35
v-420z" />
    <glyph glyph-name="Upsilontonos" unicode="&#x38e;" horiz-adv-x="1100" 
d="M20 500l60 160h130l-100 -160h-90zM230 660h180l245 -245l245 245h180l-350 -350v-310h-150v310z" />
    <glyph glyph-name="Omegatonos" unicode="&#x38f;" horiz-adv-x="1000" 
d="M20 500l60 160h130l-100 -160h-90zM160 0v85h95c-45 45 -75 115 -75 215v60c0 235 150 300 350 300h50c200 0 350 -65 350 -300v-60c0 -100 -30 -170 -75 -215h95v-85h-345v85c110 0 175 40 175 200v90c0 160 -65 200 -175 200h-100c-110 0 -175 -40 -175 -200v-90
c0 -160 65 -200 175 -200v-85h-345z" />
    <glyph glyph-name="iotadieresistonos" unicode="&#x390;" horiz-adv-x="350" 
d="M65 115v365h140v-375c0 -30 25 -30 50 -30h30v-75h-20c-100 0 -200 0 -200 115zM-40 580v100h120v-100h-120zM190 580v100h120v-100h-120zM55 730l60 160h130l-100 -160h-90z" />
    <glyph glyph-name="Alpha" unicode="&#x391;" 
d="M20 0l330 660h190l330 -660h-150l-105 210h-340l-105 -210h-150zM315 290h260l-130 260z" />
    <glyph glyph-name="Beta" unicode="&#x392;" 
d="M70 0v660h500c120 0 240 0 240 -135v-55c0 -60 -40 -90 -80 -100c40 -10 90 -30 90 -100v-135c0 -135 -120 -135 -240 -135h-510zM220 85h390c30 0 60 0 60 35v170c0 35 -30 35 -60 35h-390v-240zM220 410h380c30 0 60 0 60 35v95c0 35 -30 35 -60 35h-380v-165z" />
    <glyph glyph-name="Gamma" unicode="&#x393;" horiz-adv-x="800" 
d="M70 0v660h700v-85h-550v-575h-150z" />
    <glyph glyph-name="Delta" unicode="&#x394;" 
d="M20 0l330 660h190l330 -660h-850zM213 86h464l-232 464z" />
    <glyph glyph-name="Epsilon" unicode="&#x395;" horiz-adv-x="840" 
d="M70 0v660h700v-85h-550v-165h500v-85h-500v-240h550v-85h-700z" />
    <glyph glyph-name="Zeta" unicode="&#x396;" horiz-adv-x="850" 
d="M50 0v85l535 490h-515v85h710v-85l-535 -490h555v-85h-750z" />
    <glyph glyph-name="Eta" unicode="&#x397;" 
d="M70 0v660h150v-250h450v250h150v-660h-150v325h-450v-325h-150z" />
    <glyph glyph-name="Theta" unicode="&#x398;" 
d="M70 135v390c0 135 120 135 240 135h270c120 0 240 0 240 -135v-390c0 -135 -120 -135 -240 -135h-270c-120 0 -240 0 -240 135zM220 120c0 -35 30 -35 60 -35h330c30 0 60 0 60 35v420c0 35 -30 35 -60 35h-330c-30 0 -60 0 -60 -35v-420zM320 325v85h250v-85h-250z" />
    <glyph glyph-name="Iota" unicode="&#x399;" horiz-adv-x="290" 
d="M70 0v660h150v-660h-150z" />
    <glyph glyph-name="Kappa" unicode="&#x39a;" horiz-adv-x="810" 
d="M70 0v660h150v-350l350 350h180l-310 -310l350 -350h-180l-260 260l-130 -130v-130h-150z" />
    <glyph glyph-name="Lambda" unicode="&#x39b;" 
d="M20 0l330 660h190l330 -660h-150l-275 550l-275 -550h-150z" />
    <glyph glyph-name="Mu" unicode="&#x39c;" horiz-adv-x="1050" 
d="M70 0v660h200l255 -510l255 510h200v-660h-150v490l-245 -490h-120l-245 490v-490h-150z" />
    <glyph glyph-name="Nu" unicode="&#x39d;" 
d="M70 0v660h160l440 -490v490h150v-660h-160l-440 490v-490h-150z" />
    <glyph glyph-name="Xi" unicode="&#x39e;" 
d="M70 0v170h150v-85h450v85h150v-170h-750zM70 525v135h750v-135h-150v50h-450v-50h-150zM220 325v85h450v-85h-450z" />
    <glyph glyph-name="Omicron" unicode="&#x39f;" 
d="M70 135v390c0 135 120 135 240 135h270c120 0 240 0 240 -135v-390c0 -135 -120 -135 -240 -135h-270c-120 0 -240 0 -240 135zM220 120c0 -35 30 -35 60 -35h330c30 0 60 0 60 35v420c0 35 -30 35 -60 35h-330c-30 0 -60 0 -60 -35v-420z" />
    <glyph glyph-name="Pi" unicode="&#x3a0;" 
d="M70 0v660h750v-660h-150v575h-450v-575h-150z" />
    <glyph glyph-name="Rho" unicode="&#x3a1;" 
d="M70 0v660h510c120 0 240 0 240 -135v-120c0 -135 -120 -135 -240 -135h-360v-270h-150zM220 355h390c30 0 60 0 60 35v150c0 35 -30 35 -60 35h-390v-220z" />
    <glyph glyph-name="Sigma" unicode="&#x3a3;" horiz-adv-x="840" 
d="M70 0v85l245 245l-245 245v85h700v-85h-520l245 -245l-245 -245h520v-85h-700z" />
    <glyph glyph-name="Tau" unicode="&#x3a4;" 
d="M30 575v85h830v-85h-340v-575h-150v575h-340z" />
    <glyph glyph-name="Upsilon" unicode="&#x3a5;" 
d="M20 660h180l245 -245l245 245h180l-350 -350v-310h-150v310z" />
    <glyph glyph-name="Phi" unicode="&#x3a6;" horiz-adv-x="990" 
d="M70 210v240c0 135 120 135 240 135h110v75h150v-75h110c120 0 240 0 240 -135v-240c0 -135 -120 -135 -240 -135h-110v-75h-150v75h-110c-120 0 -240 0 -240 135zM220 195c0 -35 30 -35 60 -35h140v340h-140c-30 0 -60 0 -60 -35v-270zM570 160h140c30 0 60 0 60 35v270
c0 35 -30 35 -60 35h-140v-340z" />
    <glyph glyph-name="Chi" unicode="&#x3a7;" horiz-adv-x="880" 
d="M20 660h180l240 -240l240 240h180l-330 -330l330 -330h-180l-240 240l-240 -240h-180l330 330z" />
    <glyph glyph-name="Psi" unicode="&#x3a8;" horiz-adv-x="990" 
d="M70 330v330h150v-345c0 -35 30 -35 60 -35h140v380h150v-380h140c30 0 60 0 60 35v345h150v-330c0 -135 -120 -135 -240 -135h-110v-195h-150v195h-110c-120 0 -240 0 -240 135z" />
    <glyph glyph-name="Omega" unicode="&#x3a9;" 
d="M50 0v85h95c-45 45 -75 115 -75 215v60c0 235 150 300 350 300h50c200 0 350 -65 350 -300v-60c0 -100 -30 -170 -75 -215h95v-85h-345v85c110 0 175 40 175 200v90c0 160 -65 200 -175 200h-100c-110 0 -175 -40 -175 -200v-90c0 -160 65 -200 175 -200v-85h-345z" />
    <glyph glyph-name="Iotadieresis" unicode="&#x3aa;" horiz-adv-x="290" 
d="M-30 760v100h120v-100h-120zM200 760v100h120v-100h-120zM70 0v660h150v-660h-150z" />
    <glyph glyph-name="Upsilondieresis" unicode="&#x3ab;" 
d="M270 760v100h120v-100h-120zM500 760v100h120v-100h-120zM20 660h180l245 -245l245 245h180l-350 -350v-310h-150v310z" />
    <glyph glyph-name="alphatonos" unicode="&#x3ac;" horiz-adv-x="750" 
d="M295 550l60 160h130l-100 -160h-90zM60 115v250c0 115 100 115 200 115h75c90 0 160 -40 213 -102l32 102h130l-75 -240l75 -240h-130l-32 102c-53 -62 -123 -102 -213 -102h-75c-100 0 -200 0 -200 115zM200 105c0 -30 25 -30 50 -30h85c75 0 125 70 164 165
c-39 95 -89 165 -164 165h-85c-25 0 -50 0 -50 -30v-270z" />
    <glyph glyph-name="epsilontonos" unicode="&#x3ad;" horiz-adv-x="660" 
d="M250 550l60 160h130l-100 -160h-90zM60 115v60c0 80 75 90 75 90s-75 10 -75 90v10c0 115 100 115 200 115h340v-75h-350c-25 0 -50 0 -50 -30v-45c0 -30 25 -30 50 -30h270v-75h-270c-25 0 -50 0 -50 -30v-90c0 -30 25 -30 50 -30h350v-75h-340c-100 0 -200 0 -200 115z
" />
    <glyph glyph-name="etatonos" unicode="&#x3ae;" horiz-adv-x="700" 
d="M270 550l60 160h130l-100 -160h-90zM60 0v480h380c100 0 200 0 200 -115v-590h-140v600c0 30 -25 30 -50 30h-250v-405h-140z" />
    <glyph glyph-name="iotatonos" unicode="&#x3af;" horiz-adv-x="340" 
d="M80 550l60 160h130l-100 -160h-90zM60 115v365h140v-375c0 -30 25 -30 50 -30h30v-75h-20c-100 0 -200 0 -200 115z" />
    <glyph glyph-name="upsilondieresistonos" unicode="&#x3b0;" horiz-adv-x="700" 
d="M175 580v100h120v-100h-120zM405 580v100h120v-100h-120zM270 730l60 160h130l-100 -160h-90zM60 115v365h140v-375c0 -30 25 -30 50 -30h110c70 0 140 0 140 80v325h140v-310c0 -170 -150 -170 -300 -170h-80c-100 0 -200 0 -200 115z" />
    <glyph glyph-name="alpha" unicode="&#x3b1;" horiz-adv-x="750" 
d="M60 115v250c0 115 100 115 200 115h75c90 0 160 -40 213 -102l32 102h130l-75 -240l75 -240h-130l-32 102c-53 -62 -123 -102 -213 -102h-75c-100 0 -200 0 -200 115zM200 105c0 -30 25 -30 50 -30h85c75 0 125 70 164 165c-39 95 -89 165 -164 165h-85
c-25 0 -50 0 -50 -30v-270z" />
    <glyph glyph-name="beta" unicode="&#x3b2;" horiz-adv-x="700" 
d="M60 -225v770c0 115 100 115 200 115h140c100 0 200 0 200 -115v-90c0 -65 -30 -85 -70 -90c40 -5 110 -15 110 -105v-145c0 -115 -100 -115 -200 -115h-240v-225h-140zM200 75h250c25 0 50 0 50 30v190c0 30 -25 30 -50 30h-170v75h130c25 0 50 0 50 30v125
c0 30 -25 30 -50 30h-160c-25 0 -50 0 -50 -30v-480z" />
    <glyph glyph-name="gamma" unicode="&#x3b3;" horiz-adv-x="680" 
d="M20 480h140l180 -360l180 360h140l-250 -500v-205h-140v205z" />
    <glyph glyph-name="delta" unicode="&#x3b4;" horiz-adv-x="700" 
d="M60 115v190c0 115 100 115 200 115h150l-310 155v85h500v-75h-310l240 -120c100 -50 110 -105 110 -160v-190c0 -115 -100 -115 -200 -115h-180c-100 0 -200 0 -200 115zM200 105c0 -30 25 -30 50 -30h200c25 0 50 0 50 30v210c0 30 -25 30 -50 30h-200
c-25 0 -50 0 -50 -30v-210z" />
    <glyph glyph-name="epsilon" unicode="&#x3b5;" horiz-adv-x="660" 
d="M60 115v60c0 80 75 90 75 90s-75 10 -75 90v10c0 115 100 115 200 115h340v-75h-350c-25 0 -50 0 -50 -30v-45c0 -30 25 -30 50 -30h270v-75h-270c-25 0 -50 0 -50 -30v-90c0 -30 25 -30 50 -30h350v-75h-340c-100 0 -200 0 -200 115z" />
    <glyph glyph-name="zeta" unicode="&#x3b6;" horiz-adv-x="660" 
d="M60 115v160c0 75 0 90 90 150l240 160h-290v75h460v-85l-300 -200c-60 -40 -60 -40 -60 -100v-170c0 -30 25 -30 50 -30h150c100 0 200 0 200 -115c0 -110 -100 -170 -220 -185v75c70 20 100 65 100 115c0 35 -30 35 -60 35h-160c-100 0 -200 0 -200 115z" />
    <glyph glyph-name="eta" unicode="&#x3b7;" horiz-adv-x="700" 
d="M60 0v480h380c100 0 200 0 200 -115v-590h-140v600c0 30 -25 30 -50 30h-250v-405h-140z" />
    <glyph glyph-name="theta" unicode="&#x3b8;" horiz-adv-x="700" 
d="M60 115v430c0 115 100 115 200 115h180c100 0 200 0 200 -115v-430c0 -115 -100 -115 -200 -115h-180c-100 0 -200 0 -200 115zM200 105c0 -30 25 -30 50 -30h200c25 0 50 0 50 30v220h-300v-220zM200 400h300v155c0 30 -25 30 -50 30h-200c-25 0 -50 0 -50 -30v-155z
" />
    <glyph glyph-name="iota" unicode="&#x3b9;" horiz-adv-x="340" 
d="M60 115v365h140v-375c0 -30 25 -30 50 -30h30v-75h-20c-100 0 -200 0 -200 115z" />
    <glyph glyph-name="kappa" unicode="&#x3ba;" horiz-adv-x="640" 
d="M60 0v480h140v-240l240 240h160l-230 -230l250 -250h-160l-170 170l-90 -90v-80h-140z" />
    <glyph glyph-name="lambda" unicode="&#x3bb;" horiz-adv-x="630" 
d="M20 0l225 450l-50 100c-15 30 -25 35 -65 35h-60v75h115c90 0 115 -40 145 -100l280 -560h-140l-155 310l-155 -310h-140z" />
    <glyph glyph-name="mu" unicode="&#x3bc;" horiz-adv-x="700" 
d="M60 -225v705h140v-375c0 -30 25 -30 50 -30h200c25 0 50 0 50 30v375h140v-365c0 -115 -100 -115 -200 -115h-240v-225h-140z" />
    <glyph glyph-name="nu" unicode="&#x3bd;" horiz-adv-x="680" 
d="M20 480h140l180 -360l180 360h140l-240 -480h-160z" />
    <glyph glyph-name="xi" unicode="&#x3be;" horiz-adv-x="660" 
d="M60 115v160c0 55 35 80 75 90c-40 10 -75 35 -75 90v90c0 115 100 115 200 115h340v-75h-350c-25 0 -50 0 -50 -30v-130c0 -25 35 -25 60 -25h260v-75h-270c-25 0 -50 0 -50 -25v-195c0 -30 25 -30 50 -30h150c100 0 200 0 200 -115c0 -110 -100 -170 -220 -185v75
c70 20 100 65 100 115c0 35 -30 35 -60 35h-160c-100 0 -200 0 -200 115z" />
    <glyph glyph-name="omicron" unicode="&#x3bf;" horiz-adv-x="700" 
d="M60 115v250c0 115 100 115 200 115h180c100 0 200 0 200 -115v-250c0 -115 -100 -115 -200 -115h-180c-100 0 -200 0 -200 115zM200 105c0 -30 25 -30 50 -30h200c25 0 50 0 50 30v270c0 30 -25 30 -50 30h-200c-25 0 -50 0 -50 -30v-270z" />
    <glyph glyph-name="pi" unicode="&#x3c0;" horiz-adv-x="820" 
d="M60 405v75h700v-75h-140v-405h-140v405h-140v-405h-140v405h-140z" />
    <glyph glyph-name="rho" unicode="&#x3c1;" horiz-adv-x="700" 
d="M60 -225v590c0 115 100 115 200 115h180c100 0 200 0 200 -115v-250c0 -115 -100 -115 -200 -115h-240v-225h-140zM200 75h250c25 0 50 0 50 30v270c0 30 -25 30 -50 30h-200c-25 0 -50 0 -50 -30v-300z" />
    <glyph glyph-name="sigma1" unicode="&#x3c2;" horiz-adv-x="660" 
d="M60 115v250c0 115 100 115 200 115h340v-75h-350c-25 0 -50 0 -50 -30v-270c0 -30 25 -30 50 -30h150c100 0 200 0 200 -115c0 -110 -100 -170 -220 -185v75c70 20 100 65 100 115c0 35 -30 35 -60 35h-160c-100 0 -200 0 -200 115z" />
    <glyph glyph-name="sigma" unicode="&#x3c3;" horiz-adv-x="840" 
d="M60 115v250c0 115 100 115 200 115h520v-75h-140v-290c0 -115 -100 -115 -200 -115h-180c-100 0 -200 0 -200 115zM200 105c0 -30 25 -30 50 -30h200c25 0 50 0 50 30v270c0 30 -25 30 -50 30h-200c-25 0 -50 0 -50 -30v-270z" />
    <glyph glyph-name="tau" unicode="&#x3c4;" horiz-adv-x="700" 
d="M500 0h-20c-100 0 -200 0 -200 115v290h-220v75h580v-75h-220v-300c0 -30 25 -30 50 -30h30v-75z" />
    <glyph glyph-name="upsilon" unicode="&#x3c5;" horiz-adv-x="700" 
d="M60 115v365h140v-375c0 -30 25 -30 50 -30h110c70 0 140 0 140 80v325h140v-310c0 -170 -150 -170 -300 -170h-80c-100 0 -200 0 -200 115z" />
    <glyph glyph-name="phi" unicode="&#x3c6;" horiz-adv-x="900" 
d="M60 115v345h140v-355c0 -30 25 -30 50 -30h130v290c0 115 100 115 200 115h60c100 0 200 0 200 -115v-250c0 -115 -100 -115 -200 -115h-120v-225h-140v225h-120c-100 0 -200 0 -200 115zM520 75h130c25 0 50 0 50 30v270c0 30 -25 30 -50 30h-80c-25 0 -50 0 -50 -30
v-300z" />
    <glyph glyph-name="chi" unicode="&#x3c7;" horiz-adv-x="660" 
d="M20 -225l235 353l-235 352h150l160 -240l160 240h150l-235 -352l235 -353h-150l-160 240l-160 -240h-150z" />
    <glyph glyph-name="psi" unicode="&#x3c8;" horiz-adv-x="900" 
d="M60 115v365h140v-375c0 -30 25 -30 50 -30h130v405h140v-405h130c25 0 50 0 50 30v375h140v-365c0 -115 -100 -115 -200 -115h-120v-225h-140v225h-120c-100 0 -200 0 -200 115z" />
    <glyph glyph-name="omega" unicode="&#x3c9;" horiz-adv-x="940" 
d="M60 115v140c0 200 150 215 250 225v-75c-80 -20 -110 -60 -110 -150v-150c0 -30 25 -30 50 -30h100c25 0 50 0 50 30v195h140v-195c0 -30 25 -30 50 -30h100c25 0 50 0 50 30v150c0 90 -30 130 -110 150v75c100 -10 250 -25 250 -225v-140c0 -115 -100 -115 -200 -115
h-420c-100 0 -200 0 -200 115z" />
    <glyph glyph-name="iotadieresis" unicode="&#x3ca;" horiz-adv-x="350" 
d="M-35 580v100h120v-100h-120zM195 580v100h120v-100h-120zM70 115v365h140v-375c0 -30 25 -30 50 -30h30v-75h-20c-100 0 -200 0 -200 115z" />
    <glyph glyph-name="upsilondieresis" unicode="&#x3cb;" horiz-adv-x="700" 
d="M175 580v100h120v-100h-120zM405 580v100h120v-100h-120zM60 115v365h140v-375c0 -30 25 -30 50 -30h110c70 0 140 0 140 80v325h140v-310c0 -170 -150 -170 -300 -170h-80c-100 0 -200 0 -200 115z" />
    <glyph glyph-name="omicrontonos" unicode="&#x3cc;" horiz-adv-x="700" 
d="M270 550l60 160h130l-100 -160h-90zM60 115v250c0 115 100 115 200 115h180c100 0 200 0 200 -115v-250c0 -115 -100 -115 -200 -115h-180c-100 0 -200 0 -200 115zM200 105c0 -30 25 -30 50 -30h200c25 0 50 0 50 30v270c0 30 -25 30 -50 30h-200c-25 0 -50 0 -50 -30
v-270z" />
    <glyph glyph-name="upsilontonos" unicode="&#x3cd;" horiz-adv-x="700" 
d="M270 550l60 160h130l-100 -160h-90zM60 115v365h140v-375c0 -30 25 -30 50 -30h110c70 0 140 0 140 80v325h140v-310c0 -170 -150 -170 -300 -170h-80c-100 0 -200 0 -200 115z" />
    <glyph glyph-name="omegatonos" unicode="&#x3ce;" horiz-adv-x="940" 
d="M390 550l60 160h130l-100 -160h-90zM60 115v140c0 200 150 215 250 225v-75c-80 -20 -110 -60 -110 -150v-150c0 -30 25 -30 50 -30h100c25 0 50 0 50 30v195h140v-195c0 -30 25 -30 50 -30h100c25 0 50 0 50 30v150c0 90 -30 130 -110 150v75c100 -10 250 -25 250 -225
v-140c0 -115 -100 -115 -200 -115h-420c-100 0 -200 0 -200 115z" />
    <glyph glyph-name="uni0400" unicode="&#x400;" horiz-adv-x="840" 
d="M260 890h150l100 -160h-90zM70 0v660h700v-85h-550v-165h500v-85h-500v-240h550v-85h-700z" />
    <glyph glyph-name="afii10023" unicode="&#x401;" horiz-adv-x="840" 
d="M245 760v100h120v-100h-120zM475 760v100h120v-100h-120zM70 0v660h700v-85h-550v-165h500v-85h-500v-240h550v-85h-700z" />
    <glyph glyph-name="afii10051" unicode="&#x402;" horiz-adv-x="1140" 
d="M30 575v85h830v-85h-340v-165h310c120 0 240 0 240 -135v-225c0 -245 -200 -265 -300 -275v85c50 10 150 30 150 190v240c0 35 -30 35 -60 35h-340v-325h-150v575h-340z" />
    <glyph glyph-name="afii10052" unicode="&#x403;" horiz-adv-x="800" 
d="M305 730l100 160h150l-160 -160h-90zM70 0v660h700v-85h-550v-575h-150z" />
    <glyph glyph-name="afii10053" unicode="&#x404;" 
d="M70 170v320c0 170 150 170 300 170h150c150 0 300 0 300 -170h-150c0 85 -75 85 -150 85h-150c-75 0 -150 0 -150 -85v-80h375v-85h-375v-155c0 -85 75 -85 150 -85h150c75 0 150 0 150 85h150c0 -170 -150 -170 -300 -170h-150c-150 0 -300 0 -300 170z" />
    <glyph glyph-name="afii10054" unicode="&#x405;" 
d="M70 0v85h540c30 0 60 0 60 35v170c0 35 -30 35 -60 35h-300c-120 0 -240 0 -240 135v65c0 135 120 135 240 135h460v-85h-490c-30 0 -60 0 -60 -35v-95c0 -35 30 -35 60 -35h300c120 0 240 0 240 -135v-140c0 -135 -120 -135 -240 -135h-510z" />
    <glyph glyph-name="afii10055" unicode="&#x406;" horiz-adv-x="290" 
d="M70 0v660h150v-660h-150z" />
    <glyph glyph-name="afii10056" unicode="&#x407;" horiz-adv-x="320" 
d="M-15 760v100h120v-100h-120zM215 760v100h120v-100h-120zM85 0v660h150v-660h-150z" />
    <glyph glyph-name="afii10057" unicode="&#x408;" 
d="M70 135v120h150v-135c0 -35 30 -35 60 -35h330c30 0 60 0 60 35v540h150v-525c0 -135 -120 -135 -240 -135h-270c-120 0 -240 0 -240 135z" />
    <glyph glyph-name="afii10058" unicode="&#x409;" horiz-adv-x="1310" 
d="M40 0v85c50 10 150 30 150 190v385h500v-250h310c120 0 240 0 240 -135v-140c0 -135 -120 -135 -240 -135h-460v575h-200v-300c0 -245 -200 -265 -300 -275zM690 85h340c30 0 60 0 60 35v170c0 35 -30 35 -60 35h-340v-240z" />
    <glyph glyph-name="afii10059" unicode="&#x40a;" horiz-adv-x="1390" 
d="M70 0v660h150v-250h400v250h150v-250h310c120 0 240 0 240 -135v-140c0 -135 -120 -135 -240 -135h-460v325h-400v-325h-150zM770 85h340c30 0 60 0 60 35v170c0 35 -30 35 -60 35h-340v-240z" />
    <glyph glyph-name="afii10060" unicode="&#x40b;" horiz-adv-x="1140" 
d="M30 575v85h830v-85h-340v-165h310c120 0 240 0 240 -135v-275h-150v290c0 35 -30 35 -60 35h-340v-325h-150v575h-340z" />
    <glyph glyph-name="afii10061" unicode="&#x40c;" horiz-adv-x="810" 
d="M315 730l100 160h150l-160 -160h-90zM70 0v660h150v-350l350 350h180l-310 -310l350 -350h-180l-260 260l-130 -130v-130h-150z" />
    <glyph glyph-name="uni040D" unicode="&#x40d;" 
d="M285 890h150l100 -160h-90zM70 0v660h150v-490l440 490h160v-660h-150v490l-440 -490h-160z" />
    <glyph glyph-name="afii10062" unicode="&#x40e;" horiz-adv-x="800" 
d="M240 890h75c0 -47 38 -85 85 -85s85 38 85 85h75c0 -88 -72 -160 -160 -160s-160 72 -160 160zM20 660h160l220 -330l220 330h160l-380 -570c-40 -60 -60 -90 -150 -90h-130v85h60c55 0 60 5 90 50l50 75z" />
    <glyph glyph-name="afii10145" unicode="&#x40f;" 
d="M70 0v660h150v-575h450v575h150v-660h-310v-150h-130v150h-310z" />
    <glyph glyph-name="afii10017" unicode="&#x410;" 
d="M20 0l330 660h190l330 -660h-150l-105 210h-340l-105 -210h-150zM315 290h260l-130 260z" />
    <glyph glyph-name="afii10018" unicode="&#x411;" 
d="M70 0v660h700v-85h-550v-165h360c120 0 240 0 240 -135v-140c0 -135 -120 -135 -240 -135h-510zM220 85h390c30 0 60 0 60 35v170c0 35 -30 35 -60 35h-390v-240z" />
    <glyph glyph-name="afii10019" unicode="&#x412;" 
d="M70 0v660h500c120 0 240 0 240 -135v-55c0 -60 -40 -90 -80 -100c40 -10 90 -30 90 -100v-135c0 -135 -120 -135 -240 -135h-510zM220 85h390c30 0 60 0 60 35v170c0 35 -30 35 -60 35h-390v-240zM220 410h380c30 0 60 0 60 35v95c0 35 -30 35 -60 35h-380v-165z" />
    <glyph glyph-name="afii10020" unicode="&#x413;" horiz-adv-x="800" 
d="M70 0v660h700v-85h-550v-575h-150z" />
    <glyph glyph-name="afii10021" unicode="&#x414;" horiz-adv-x="980" 
d="M40 85c145 0 200 65 200 200v375h600v-575h100v-235h-130v150h-640v-150h-130v235zM320 85h370v490h-300v-290c0 -100 -30 -155 -70 -200z" />
    <glyph glyph-name="afii10022" unicode="&#x415;" horiz-adv-x="840" 
d="M70 0v660h700v-85h-550v-165h500v-85h-500v-240h550v-85h-700z" />
    <glyph glyph-name="afii10024" unicode="&#x416;" horiz-adv-x="1150" 
d="M20 0l350 350l-310 310h180l260 -260v260h150v-260l260 260h180l-310 -310l350 -350h-180l-260 260l-40 -40v-220h-150v220l-40 40l-260 -260h-180z" />
    <glyph glyph-name="afii10025" unicode="&#x417;" horiz-adv-x="840" 
d="M70 0v85h490c30 0 60 0 60 35v170c0 35 -30 35 -60 35h-400v85h400c30 0 60 0 60 35v95c0 35 -30 35 -60 35h-490v85h460c120 0 240 0 240 -135v-55c0 -60 -40 -90 -80 -100c40 -10 80 -40 80 -100v-135c0 -135 -120 -135 -240 -135h-460z" />
    <glyph glyph-name="afii10026" unicode="&#x418;" 
d="M70 0v660h150v-490l440 490h160v-660h-150v490l-440 -490h-160z" />
    <glyph glyph-name="afii10027" unicode="&#x419;" 
d="M285 890h75c0 -47 38 -85 85 -85s85 38 85 85h75c0 -88 -72 -160 -160 -160s-160 72 -160 160zM70 0v660h150v-490l440 490h160v-660h-150v490l-440 -490h-160z" />
    <glyph glyph-name="afii10028" unicode="&#x41a;" horiz-adv-x="810" 
d="M70 0v660h150v-350l350 350h180l-310 -310l350 -350h-180l-260 260l-130 -130v-130h-150z" />
    <glyph glyph-name="afii10029" unicode="&#x41b;" horiz-adv-x="910" 
d="M40 0v85c50 10 150 30 150 190v385h650v-660h-150v575h-350v-300c0 -245 -200 -265 -300 -275z" />
    <glyph glyph-name="afii10030" unicode="&#x41c;" horiz-adv-x="1050" 
d="M70 0v660h200l255 -510l255 510h200v-660h-150v490l-245 -490h-120l-245 490v-490h-150z" />
    <glyph glyph-name="afii10031" unicode="&#x41d;" 
d="M70 0v660h150v-250h450v250h150v-660h-150v325h-450v-325h-150z" />
    <glyph glyph-name="afii10032" unicode="&#x41e;" 
d="M70 135v390c0 135 120 135 240 135h270c120 0 240 0 240 -135v-390c0 -135 -120 -135 -240 -135h-270c-120 0 -240 0 -240 135zM220 120c0 -35 30 -35 60 -35h330c30 0 60 0 60 35v420c0 35 -30 35 -60 35h-330c-30 0 -60 0 -60 -35v-420z" />
    <glyph glyph-name="afii10033" unicode="&#x41f;" 
d="M70 0v660h750v-660h-150v575h-450v-575h-150z" />
    <glyph glyph-name="afii10034" unicode="&#x420;" 
d="M70 0v660h510c120 0 240 0 240 -135v-120c0 -135 -120 -135 -240 -135h-360v-270h-150zM220 355h390c30 0 60 0 60 35v150c0 35 -30 35 -60 35h-390v-220z" />
    <glyph glyph-name="afii10035" unicode="&#x421;" horiz-adv-x="840" 
d="M70 135v390c0 135 120 135 240 135h460v-85h-490c-30 0 -60 0 -60 -35v-420c0 -35 30 -35 60 -35h490v-85h-460c-120 0 -240 0 -240 135z" />
    <glyph glyph-name="afii10036" unicode="&#x422;" 
d="M30 575v85h830v-85h-340v-575h-150v575h-340z" />
    <glyph glyph-name="afii10037" unicode="&#x423;" horiz-adv-x="800" 
d="M20 660h160l220 -330l220 330h160l-380 -570c-40 -60 -60 -90 -150 -90h-130v85h60c55 0 60 5 90 50l50 75z" />
    <glyph glyph-name="afii10038" unicode="&#x424;" horiz-adv-x="990" 
d="M70 210v240c0 135 120 135 240 135h110v75h150v-75h110c120 0 240 0 240 -135v-240c0 -135 -120 -135 -240 -135h-110v-75h-150v75h-110c-120 0 -240 0 -240 135zM220 195c0 -35 30 -35 60 -35h140v340h-140c-30 0 -60 0 -60 -35v-270zM570 160h140c30 0 60 0 60 35v270
c0 35 -30 35 -60 35h-140v-340z" />
    <glyph glyph-name="afii10039" unicode="&#x425;" horiz-adv-x="880" 
d="M20 660h180l240 -240l240 240h180l-330 -330l330 -330h-180l-240 240l-240 -240h-180l330 330z" />
    <glyph glyph-name="afii10040" unicode="&#x426;" horiz-adv-x="960" 
d="M70 0v660h150v-575h450v575h150v-575h100v-235h-130v150h-720z" />
    <glyph glyph-name="afii10041" unicode="&#x427;" 
d="M70 405v255h150v-270c0 -35 30 -35 60 -35h390v305h150v-660h-150v270h-360c-120 0 -240 0 -240 135z" />
    <glyph glyph-name="afii10042" unicode="&#x428;" horiz-adv-x="1090" 
d="M70 0v660h150v-575h250v575h150v-575h250v575h150v-660h-950z" />
    <glyph glyph-name="afii10043" unicode="&#x429;" horiz-adv-x="1160" 
d="M70 0v660h150v-575h250v575h150v-575h250v575h150v-575h100v-235h-130v150h-920z" />
    <glyph glyph-name="afii10044" unicode="&#x42a;" horiz-adv-x="1040" 
d="M30 575v85h390v-250h310c120 0 240 0 240 -135v-140c0 -135 -120 -135 -240 -135h-460v575h-240zM420 85h340c30 0 60 0 60 35v170c0 35 -30 35 -60 35h-340v-240z" />
    <glyph glyph-name="afii10045" unicode="&#x42b;" horiz-adv-x="1090" 
d="M70 0v660h150v-250h310c120 0 240 0 240 -135v-140c0 -135 -120 -135 -240 -135h-460zM220 85h340c30 0 60 0 60 35v170c0 35 -30 35 -60 35h-340v-240zM870 0v660h150v-660h-150z" />
    <glyph glyph-name="afii10046" unicode="&#x42c;" horiz-adv-x="840" 
d="M70 0v660h150v-250h310c120 0 240 0 240 -135v-140c0 -135 -120 -135 -240 -135h-460zM220 85h340c30 0 60 0 60 35v170c0 35 -30 35 -60 35h-340v-240z" />
    <glyph glyph-name="afii10047" unicode="&#x42d;" 
d="M70 170h150c0 -85 75 -85 150 -85h150c75 0 150 0 150 85v155h-375v85h375v80c0 85 -75 85 -150 85h-150c-75 0 -150 0 -150 -85h-150c0 170 150 170 300 170h150c150 0 300 0 300 -170v-320c0 -170 -150 -170 -300 -170h-150c-150 0 -300 0 -300 170z" />
    <glyph glyph-name="afii10048" unicode="&#x42e;" horiz-adv-x="1190" 
d="M70 0v660h150v-285h150v150c0 135 120 135 240 135h270c120 0 240 0 240 -135v-390c0 -135 -120 -135 -240 -135h-270c-120 0 -240 0 -240 135v155h-150v-290h-150zM520 120c0 -35 30 -35 60 -35h330c30 0 60 0 60 35v420c0 35 -30 35 -60 35h-330c-30 0 -60 0 -60 -35
v-420z" />
    <glyph glyph-name="afii10049" unicode="&#x42f;" 
d="M30 0l290 290h-10c-120 0 -240 0 -240 135v100c0 135 120 135 240 135h510v-660h-150v290h-170l-290 -290h-180zM220 410c0 -35 30 -35 60 -35h390v200h-390c-30 0 -60 0 -60 -35v-130z" />
    <glyph glyph-name="afii10065" unicode="&#x430;" horiz-adv-x="700" 
d="M60 115v70c0 115 100 115 200 115h240v75c0 30 -25 30 -50 30h-350v75h340c100 0 200 0 200 -115v-365h-380c-100 0 -200 0 -200 115zM200 105c0 -30 25 -30 50 -30h250v150h-250c-25 0 -50 0 -50 -30v-90z" />
    <glyph glyph-name="afii10066" unicode="&#x431;" horiz-adv-x="700" 
d="M60 115v310c0 170 145 235 540 235v-60c-195 0 -400 -35 -400 -120h240c100 0 200 0 200 -115v-250c0 -115 -100 -115 -200 -115h-180c-100 0 -200 0 -200 115zM200 105c0 -30 25 -30 50 -30h200c25 0 50 0 50 30v270c0 30 -25 30 -50 30h-200c-25 0 -50 0 -50 -30v-270z
" />
    <glyph glyph-name="afii10067" unicode="&#x432;" horiz-adv-x="700" 
d="M60 0v480h370c100 0 200 0 200 -100v-25c0 -55 -25 -80 -65 -90c40 -10 75 -35 75 -90v-75c0 -100 -100 -100 -200 -100h-380zM200 75h250c25 0 50 0 50 25v100c0 25 -25 25 -50 25h-250v-150zM200 300h240c25 0 50 0 50 25v55c0 25 -25 25 -50 25h-240v-105z" />
    <glyph glyph-name="afii10068" unicode="&#x433;" horiz-adv-x="660" 
d="M60 0v480h540v-75h-400v-405h-140z" />
    <glyph glyph-name="afii10069" unicode="&#x434;" horiz-adv-x="810" 
d="M30 75c135 0 190 31 190 150v255h480v-405h80v-200h-120v125h-510v-125h-120v200zM308 75h252v330h-200v-180c0 -53 -10 -108 -52 -150z" />
    <glyph glyph-name="afii10070" unicode="&#x435;" horiz-adv-x="700" 
d="M60 115v250c0 115 100 115 200 115h180c100 0 200 0 200 -115v-140h-440v-120c0 -30 25 -30 50 -30h370v-75h-360c-100 0 -200 0 -200 115zM200 300h300v75c0 30 -25 30 -50 30h-200c-25 0 -50 0 -50 -30v-75z" />
    <glyph glyph-name="afii10072" unicode="&#x436;" horiz-adv-x="920" 
d="M20 0l250 250l-230 230h160l190 -190v190h140v-190l190 190h160l-230 -230l250 -250h-160l-170 170l-40 -40v-130h-140v130l-40 40l-170 -170h-160z" />
    <glyph glyph-name="afii10073" unicode="&#x437;" horiz-adv-x="660" 
d="M60 0v75h350c25 0 50 0 50 30v90c0 30 -25 30 -50 30h-270v75h270c25 0 50 0 50 30v45c0 30 -25 30 -50 30h-350v75h340c100 0 200 0 200 -115v-10c0 -55 -35 -80 -75 -90c40 -10 75 -35 75 -90v-60c0 -115 -100 -115 -200 -115h-340z" />
    <glyph glyph-name="afii10074" unicode="&#x438;" horiz-adv-x="700" 
d="M60 0v480h140v-330l290 330h150v-480h-140v330l-290 -330h-150z" />
    <glyph glyph-name="afii10075" unicode="&#x439;" horiz-adv-x="700" 
d="M190 710h75c0 -47 38 -85 85 -85s85 38 85 85h75c0 -88 -72 -160 -160 -160s-160 72 -160 160zM60 0v480h140v-330l290 330h150v-480h-140v330l-290 -330h-150z" />
    <glyph glyph-name="afii10076" unicode="&#x43a;" horiz-adv-x="640" 
d="M60 0v480h140v-240l240 240h160l-230 -230l250 -250h-160l-170 170l-90 -90v-80h-140z" />
    <glyph glyph-name="afii10077" unicode="&#x43b;" horiz-adv-x="680" 
d="M30 0v75c80 20 110 60 110 150v255h480v-480h-140v405h-200v-180c0 -200 -150 -215 -250 -225z" />
    <glyph glyph-name="afii10078" unicode="&#x43c;" horiz-adv-x="850" 
d="M60 0v480h195l170 -340l170 340h195v-480h-140v340l-170 -340h-110l-170 340v-340h-140z" />
    <glyph glyph-name="afii10079" unicode="&#x43d;" horiz-adv-x="700" 
d="M60 0v480h140v-180h300v180h140v-480h-140v225h-300v-225h-140z" />
    <glyph glyph-name="afii10080" unicode="&#x43e;" horiz-adv-x="700" 
d="M60 115v250c0 115 100 115 200 115h180c100 0 200 0 200 -115v-250c0 -115 -100 -115 -200 -115h-180c-100 0 -200 0 -200 115zM200 105c0 -30 25 -30 50 -30h200c25 0 50 0 50 30v270c0 30 -25 30 -50 30h-200c-25 0 -50 0 -50 -30v-270z" />
    <glyph glyph-name="afii10081" unicode="&#x43f;" horiz-adv-x="700" 
d="M60 0v480h580v-480h-140v405h-300v-405h-140z" />
    <glyph glyph-name="afii10082" unicode="&#x440;" horiz-adv-x="700" 
d="M60 -225v705h380c100 0 200 0 200 -115v-250c0 -115 -100 -115 -200 -115h-240v-225h-140zM200 75h250c25 0 50 0 50 30v270c0 30 -25 30 -50 30h-250v-330z" />
    <glyph glyph-name="afii10083" unicode="&#x441;" horiz-adv-x="660" 
d="M60 115v250c0 115 100 115 200 115h340v-75h-350c-25 0 -50 0 -50 -30v-270c0 -30 25 -30 50 -30h350v-75h-340c-100 0 -200 0 -200 115z" />
    <glyph glyph-name="afii10084" unicode="&#x442;" horiz-adv-x="700" 
d="M60 405v75h580v-75h-220v-405h-140v405h-220z" />
    <glyph glyph-name="afii10085" unicode="&#x443;" horiz-adv-x="680" 
d="M20 480h140l180 -360l180 360h140l-300 -600c-30 -60 -55 -105 -150 -105h-130v75h80c45 0 50 10 65 40l45 90z" />
    <glyph glyph-name="afii10086" unicode="&#x444;" horiz-adv-x="940" 
d="M60 115v250c0 115 100 115 200 115h140v180h140v-180h140c100 0 200 0 200 -115v-250c0 -115 -100 -115 -200 -115h-140v-225h-140v225h-140c-100 0 -200 0 -200 115zM200 105c0 -30 25 -30 50 -30h150v330h-150c-25 0 -50 0 -50 -30v-270zM540 75h150c25 0 50 0 50 30
v270c0 30 -25 30 -50 30h-150v-330z" />
    <glyph glyph-name="afii10087" unicode="&#x445;" horiz-adv-x="680" 
d="M20 0l240 240l-240 240h160l160 -160l160 160h160l-240 -240l240 -240h-160l-160 160l-160 -160h-160z" />
    <glyph glyph-name="afii10088" unicode="&#x446;" horiz-adv-x="750" 
d="M60 0v480h140v-405h300v405h140v-405h80v-200h-120v125h-540z" />
    <glyph glyph-name="afii10089" unicode="&#x447;" horiz-adv-x="700" 
d="M60 310v170h140v-180c0 -30 25 -30 50 -30h250v210h140v-480h-140v195h-240c-100 0 -200 0 -200 115z" />
    <glyph glyph-name="afii10090" unicode="&#x448;" horiz-adv-x="900" 
d="M60 0v480h140v-405h180v405h140v-405h180v405h140v-480h-780z" />
    <glyph glyph-name="afii10091" unicode="&#x449;" horiz-adv-x="950" 
d="M60 0v480h140v-405h180v405h140v-405h180v405h140v-405h80v-200h-120v125h-740z" />
    <glyph glyph-name="afii10092" unicode="&#x44a;" horiz-adv-x="820" 
d="M60 405v75h300v-180h200c100 0 200 0 200 -115v-70c0 -115 -100 -115 -200 -115h-340v405h-160zM360 75h210c25 0 50 0 50 30v90c0 30 -25 30 -50 30h-210v-150z" />
    <glyph glyph-name="afii10093" unicode="&#x44b;" horiz-adv-x="900" 
d="M60 0v480h140v-180h200c100 0 200 0 200 -115v-70c0 -115 -100 -115 -200 -115h-340zM200 75h210c25 0 50 0 50 30v90c0 30 -25 30 -50 30h-210v-150zM700 0v480h140v-480h-140z" />
    <glyph glyph-name="afii10094" unicode="&#x44c;" horiz-adv-x="660" 
d="M60 0v480h140v-180h200c100 0 200 0 200 -115v-70c0 -115 -100 -115 -200 -115h-340zM200 75h210c25 0 50 0 50 30v90c0 30 -25 30 -50 30h-210v-150z" />
    <glyph glyph-name="afii10095" unicode="&#x44d;" horiz-adv-x="700" 
d="M60 130h140c0 -50 55 -55 110 -55h80c55 0 110 0 110 65v85h-250v75h250v40c0 60 -55 65 -110 65h-80c-55 0 -110 -5 -110 -55h-140c0 125 130 130 260 130h60c130 0 260 0 260 -145v-190c0 -145 -130 -145 -260 -145h-60c-130 0 -260 5 -260 130z" />
    <glyph glyph-name="afii10096" unicode="&#x44e;" horiz-adv-x="980" 
d="M60 0v480h140v-200h140v85c0 115 100 115 200 115h180c100 0 200 0 200 -115v-250c0 -115 -100 -115 -200 -115h-180c-100 0 -200 0 -200 115v90h-140v-205h-140zM480 105c0 -30 25 -30 50 -30h200c25 0 50 0 50 30v270c0 30 -25 30 -50 30h-200c-25 0 -50 0 -50 -30
v-270z" />
    <glyph glyph-name="afii10097" unicode="&#x44f;" horiz-adv-x="700" 
d="M40 0l195 195c-90 0 -175 10 -175 115v55c0 115 100 115 200 115h380v-480h-140v195h-105l-195 -195h-160zM200 300c0 -30 25 -30 50 -30h250v135h-250c-25 0 -50 0 -50 -30v-75z" />
    <glyph glyph-name="uni0450" unicode="&#x450;" horiz-adv-x="700" 
d="M190 710h150l100 -160h-90zM60 115v250c0 115 100 115 200 115h180c100 0 200 0 200 -115v-140h-440v-120c0 -30 25 -30 50 -30h370v-75h-360c-100 0 -200 0 -200 115zM200 300h300v75c0 30 -25 30 -50 30h-200c-25 0 -50 0 -50 -30v-75z" />
    <glyph glyph-name="afii10071" unicode="&#x451;" horiz-adv-x="700" 
d="M175 580v100h120v-100h-120zM405 580v100h120v-100h-120zM60 115v250c0 115 100 115 200 115h180c100 0 200 0 200 -115v-140h-440v-120c0 -30 25 -30 50 -30h370v-75h-360c-100 0 -200 0 -200 115zM200 300h300v75c0 30 -25 30 -50 30h-200c-25 0 -50 0 -50 -30v-75z
" />
    <glyph glyph-name="afii10099" unicode="&#x452;" horiz-adv-x="740" 
d="M20 510v65h80v85h140v-85h220v-65h-220v-105h240c100 0 200 0 200 -100v-305c0 -200 -150 -215 -250 -225v75c80 20 110 60 110 150v305c0 25 -25 25 -50 25h-250v-330h-140v510h-80z" />
    <glyph glyph-name="afii10100" unicode="&#x453;" horiz-adv-x="660" 
d="M240 550l100 160h150l-160 -160h-90zM60 0v480h540v-75h-400v-405h-140z" />
    <glyph glyph-name="afii10101" unicode="&#x454;" horiz-adv-x="700" 
d="M60 145v190c0 145 130 145 260 145h60c130 0 260 -5 260 -130h-140c0 50 -55 55 -110 55h-80c-55 0 -110 0 -110 -65v-40h250v-75h-250v-85c0 -65 55 -65 110 -65h80c55 0 110 5 110 55h140c0 -125 -130 -130 -260 -130h-60c-130 0 -260 0 -260 145z" />
    <glyph glyph-name="afii10102" unicode="&#x455;" horiz-adv-x="700" 
d="M60 0v75h390c25 0 50 0 50 30v90c0 30 -25 30 -50 30h-190c-100 0 -200 0 -200 115v25c0 115 100 115 200 115h340v-75h-350c-25 0 -50 0 -50 -30v-45c0 -30 25 -30 50 -30h190c100 0 200 0 200 -115v-70c0 -115 -100 -115 -200 -115h-380z" />
    <glyph glyph-name="afii10103" unicode="&#x456;" horiz-adv-x="260" 
d="M60 0v480h140v-480h-140zM60 560v100h140v-100h-140z" />
    <glyph glyph-name="afii10104" unicode="&#x457;" horiz-adv-x="320" 
d="M-15 580v100h120v-100h-120zM215 580v100h120v-100h-120zM90 0v480h140v-480h-140z" />
    <glyph glyph-name="afii10105" unicode="&#x458;" horiz-adv-x="260" 
d="M-50 -150c80 20 110 60 110 150v480h140v-480c0 -200 -150 -215 -250 -225v75zM60 560v100h140v-100h-140z" />
    <glyph glyph-name="afii10106" unicode="&#x459;" horiz-adv-x="1020" 
d="M30 0v75c80 20 110 60 110 150v255h420v-180h200c100 0 200 0 200 -115v-70c0 -115 -100 -115 -200 -115h-340v405h-140v-180c0 -200 -150 -215 -250 -225zM560 75h210c25 0 50 0 50 30v90c0 30 -25 30 -50 30h-210v-150z" />
    <glyph glyph-name="afii10107" unicode="&#x45a;" horiz-adv-x="1060" 
d="M60 0v480h140v-180h260v180h140v-180h200c100 0 200 0 200 -115v-70c0 -115 -100 -115 -200 -115h-340v225h-260v-225h-140zM600 75h210c25 0 50 0 50 30v90c0 30 -25 30 -50 30h-210v-150z" />
    <glyph glyph-name="afii10108" unicode="&#x45b;" horiz-adv-x="740" 
d="M20 510v65h80v85h140v-85h220v-65h-220v-105h240c100 0 200 0 200 -115v-290h-140v300c0 30 -25 30 -50 30h-250v-330h-140v510h-80z" />
    <glyph glyph-name="afii10109" unicode="&#x45c;" horiz-adv-x="640" 
d="M230 550l100 160h150l-160 -160h-90zM60 0v480h140v-240l240 240h160l-230 -230l250 -250h-160l-170 170l-90 -90v-80h-140z" />
    <glyph glyph-name="uni045D" unicode="&#x45d;" horiz-adv-x="700" 
d="M190 710h150l100 -160h-90zM60 0v480h140v-330l290 330h150v-480h-140v330l-290 -330h-150z" />
    <glyph glyph-name="afii10110" unicode="&#x45e;" horiz-adv-x="680" 
d="M180 710h75c0 -47 38 -85 85 -85s85 38 85 85h75c0 -88 -72 -160 -160 -160s-160 72 -160 160zM20 480h140l180 -360l180 360h140l-300 -600c-30 -60 -55 -105 -150 -105h-130v75h80c45 0 50 10 65 40l45 90z" />
    <glyph glyph-name="afii10193" unicode="&#x45f;" horiz-adv-x="700" 
d="M60 0v480h140v-405h300v405h140v-480h-230v-125h-120v125h-230z" />
    <glyph glyph-name="afii10146" unicode="&#x462;" horiz-adv-x="920" 
d="M20 510v75h80v75h150v-75h225v-75h-225v-100h360c120 0 240 0 240 -135v-140c0 -135 -120 -135 -240 -135h-510v510h-80zM250 85h390c30 0 60 0 60 35v170c0 35 -30 35 -60 35h-390v-240z" />
    <glyph glyph-name="afii10194" unicode="&#x463;" horiz-adv-x="720" 
d="M20 360v65h60v55h140v-55h150v-65h-150v-60h240c100 0 200 0 200 -115v-70c0 -115 -100 -115 -200 -115h-380v360h-60zM220 75h250c25 0 50 0 50 30v90c0 30 -25 30 -50 30h-250v-150z" />
    <glyph glyph-name="afii10147" unicode="&#x472;" 
d="M70 135v390c0 135 120 135 240 135h270c120 0 240 0 240 -135v-390c0 -135 -120 -135 -240 -135h-270c-120 0 -240 0 -240 135zM220 120c0 -35 30 -35 60 -35h330c30 0 60 0 60 35v205h-450v-205zM220 410h450v130c0 35 -30 35 -60 35h-330c-30 0 -60 0 -60 -35v-130z
" />
    <glyph glyph-name="afii10195" unicode="&#x473;" horiz-adv-x="700" 
d="M60 115v250c0 115 100 115 200 115h180c100 0 200 0 200 -115v-250c0 -115 -100 -115 -200 -115h-180c-100 0 -200 0 -200 115zM200 105c0 -30 25 -30 50 -30h200c25 0 50 0 50 30v120h-300v-120zM200 300h300v75c0 30 -25 30 -50 30h-200c-25 0 -50 0 -50 -30v-75z" />
    <glyph glyph-name="afii10148" unicode="&#x474;" horiz-adv-x="990" 
d="M20 660h155l270 -540l210 420c30 60 60 120 170 120h135v-85h-80c-50 0 -60 -15 -80 -55l-260 -520h-190z" />
    <glyph glyph-name="afii10196" unicode="&#x475;" horiz-adv-x="780" 
d="M20 480h140l180 -360l128 256c30 60 55 104 150 104h102v-75h-52c-45 0 -50 -9 -65 -39l-183 -366h-160z" />
    <glyph glyph-name="uni048C" unicode="&#x48c;" horiz-adv-x="920" 
d="M20 510v75h80v75h150v-75h225v-75h-225v-100h360c120 0 240 0 240 -135v-140c0 -135 -120 -135 -240 -135h-510v510h-80zM250 85h390c30 0 60 0 60 35v170c0 35 -30 35 -60 35h-390v-240z" />
    <glyph glyph-name="uni048D" unicode="&#x48d;" horiz-adv-x="720" 
d="M20 360v65h60v55h140v-55h150v-65h-150v-60h240c100 0 200 0 200 -115v-70c0 -115 -100 -115 -200 -115h-380v360h-60zM220 75h250c25 0 50 0 50 30v90c0 30 -25 30 -50 30h-250v-150z" />
    <glyph glyph-name="uni048E" unicode="&#x48e;" 
d="M70 0v660h510c120 0 240 0 240 -135v-120c0 -135 -120 -135 -240 -135l50 -50l-60 -60l-110 110h-240v-270h-150zM220 355h155l-50 50l60 60l110 -110h115c30 0 60 0 60 35v150c0 35 -30 35 -60 35h-390v-220z" />
    <glyph glyph-name="uni048F" unicode="&#x48f;" horiz-adv-x="700" 
d="M60 -225v705h380c100 0 200 0 200 -115v-250c0 -85 -50 -110 -145 -115l50 -50l-60 -60l-110 110h-175v-225h-140zM200 75h100l-50 50l60 60l110 -110h30c25 0 50 0 50 30v270c0 30 -25 30 -50 30h-250v-330z" />
    <glyph glyph-name="afii10050" unicode="&#x490;" horiz-adv-x="800" 
d="M70 0v660h570v150h130v-235h-550v-575h-150z" />
    <glyph glyph-name="afii10098" unicode="&#x491;" horiz-adv-x="660" 
d="M60 0v480h420v125h120v-200h-400v-405h-140z" />
    <glyph glyph-name="uni0492" unicode="&#x492;" horiz-adv-x="830" 
d="M20 330v75h80v255h700v-85h-550v-170h225v-75h-225v-330h-150v330h-80z" />
    <glyph glyph-name="uni0493" unicode="&#x493;" horiz-adv-x="680" 
d="M20 230v65h60v185h540v-75h-400v-110h150v-65h-150v-230h-140v230h-60z" />
    <glyph glyph-name="uni0494" unicode="&#x494;" 
d="M70 0v660h700v-85h-550v-165h360c120 0 240 0 240 -135v-225c0 -245 -200 -265 -300 -275v85c50 10 150 30 150 190v240c0 35 -30 35 -60 35h-390v-325h-150z" />
    <glyph glyph-name="uni0495" unicode="&#x495;" horiz-adv-x="700" 
d="M60 0v480h540v-75h-400v-105h240c100 0 200 0 200 -100v-200c0 -200 -150 -215 -250 -225v75c80 20 110 60 110 150v200c0 25 -25 25 -50 25h-250v-225h-140z" />
    <glyph glyph-name="uni0496" unicode="&#x496;" horiz-adv-x="1170" 
d="M20 0l350 350l-310 310h180l260 -260v260h150v-260l260 260h180l-310 -310l265 -265h85v-235h-130v150h-50l-260 260l-40 -40v-220h-150v220l-40 40l-260 -260h-180z" />
    <glyph glyph-name="uni0497" unicode="&#x497;" horiz-adv-x="930" 
d="M20 0l250 250l-230 230h160l190 -190v190h140v-190l190 190h160l-230 -230l175 -175h75v-200h-120v125h-40l-170 170l-40 -40v-130h-140v130l-40 40l-170 -170h-160z" />
    <glyph glyph-name="uni0498" unicode="&#x498;" horiz-adv-x="840" 
d="M340 -175h30c40 0 80 5 80 45c0 30 -15 55 -90 130h100c70 -70 90 -100 90 -135c0 -80 -80 -90 -160 -90h-50v50zM70 0v85h490c30 0 60 0 60 35v170c0 35 -30 35 -60 35h-400v85h400c30 0 60 0 60 35v95c0 35 -30 35 -60 35h-490v85h460c120 0 240 0 240 -135v-55
c0 -60 -40 -90 -80 -100c40 -10 80 -40 80 -100v-135c0 -135 -120 -135 -240 -135h-460z" />
    <glyph glyph-name="uni0499" unicode="&#x499;" horiz-adv-x="660" 
d="M230 -175h30c40 0 80 5 80 45c0 30 -15 55 -90 130h100c70 -70 90 -100 90 -135c0 -80 -80 -90 -160 -90h-50v50zM60 0v75h350c25 0 50 0 50 30v90c0 30 -25 30 -50 30h-270v75h270c25 0 50 0 50 30v45c0 30 -25 30 -50 30h-350v75h340c100 0 200 0 200 -115v-10
c0 -55 -35 -80 -75 -90c40 -10 75 -35 75 -90v-60c0 -115 -100 -115 -200 -115h-340z" />
    <glyph glyph-name="uni049A" unicode="&#x49a;" horiz-adv-x="830" 
d="M70 0v660h150v-350l350 350h180l-310 -310l265 -265h85v-235h-130v150h-50l-260 260l-130 -130v-130h-150z" />
    <glyph glyph-name="uni049B" unicode="&#x49b;" horiz-adv-x="650" 
d="M60 0v480h140v-240l240 240h160l-230 -230l175 -175h75v-200h-120v125h-40l-170 170l-90 -90v-80h-140z" />
    <glyph glyph-name="uni049C" unicode="&#x49c;" horiz-adv-x="810" 
d="M70 0v660h150v-350l65 65v200h75v-125l210 210h180l-310 -310l350 -350h-180l-250 250v-165h-75v110l-65 -65v-130h-150z" />
    <glyph glyph-name="uni049D" unicode="&#x49d;" horiz-adv-x="640" 
d="M60 0v480h140v-240l50 50v140h65v-75l125 125h160l-230 -230l250 -250h-160l-145 145v-95h-65v80l-50 -50v-80h-140z" />
    <glyph glyph-name="uni049E" unicode="&#x49e;" horiz-adv-x="840" 
d="M20 500v75h80v85h150v-85h80v-75h-80v-190l350 350h180l-310 -310l350 -350h-180l-260 260l-130 -130v-130h-150v500h-80z" />
    <glyph glyph-name="uni049F" unicode="&#x49f;" horiz-adv-x="660" 
d="M20 340v65h60v75h140v-75h60v-65h-60v-100l240 240h160l-230 -230l250 -250h-160l-170 170l-90 -90v-80h-140v340h-60z" />
    <glyph glyph-name="uni04A0" unicode="&#x4a0;" horiz-adv-x="1010" 
d="M30 575v85h390v-350l350 350h180l-310 -310l350 -350h-180l-260 260l-130 -130v-130h-150v575h-240z" />
    <glyph glyph-name="uni04A1" unicode="&#x4a1;" horiz-adv-x="800" 
d="M60 405v75h300v-240l240 240h160l-230 -230l250 -250h-160l-170 170l-90 -90v-80h-140v405h-160z" />
    <glyph glyph-name="uni04A2" unicode="&#x4a2;" horiz-adv-x="960" 
d="M70 0v660h150v-250h450v250h150v-575h100v-235h-130v150h-120v325h-450v-325h-150z" />
    <glyph glyph-name="uni04A3" unicode="&#x4a3;" horiz-adv-x="750" 
d="M60 0v480h140v-180h300v180h140v-405h80v-200h-120v125h-100v225h-300v-225h-140z" />
    <glyph glyph-name="uni04A4" unicode="&#x4a4;" horiz-adv-x="1250" 
d="M70 0v660h150v-250h450v250h550v-85h-400v-575h-150v325h-450v-325h-150z" />
    <glyph glyph-name="uni04A5" unicode="&#x4a5;" horiz-adv-x="960" 
d="M60 0v480h140v-180h300v180h400v-75h-260v-405h-140v225h-300v-225h-140z" />
    <glyph glyph-name="uni04A6" unicode="&#x4a6;" horiz-adv-x="1390" 
d="M70 0v660h700v-250h310c120 0 240 0 240 -135v-225c0 -245 -200 -265 -300 -275v85c50 10 150 30 150 190v240c0 35 -30 35 -60 35h-340v-325h-150v575h-400v-575h-150z" />
    <glyph glyph-name="uni04A7" unicode="&#x4a7;" horiz-adv-x="1060" 
d="M60 0v480h540v-180h200c100 0 200 0 200 -115v-185c0 -200 -150 -215 -250 -225v75c80 20 110 60 110 150v195c0 30 -25 30 -50 30h-210v-225h-140v405h-260v-405h-140z" />
    <glyph glyph-name="uni04A8" unicode="&#x4a8;" horiz-adv-x="1120" 
d="M70 170v320c0 170 150 170 300 170h150v-85h-150c-75 0 -150 0 -150 -85v-320c0 -85 75 -85 150 -85h20c-10 15 -20 45 -20 85v140c0 170 150 170 300 170s300 0 300 -170v-140c0 -40 -10 -70 -20 -85h100v-85h-680c-150 0 -300 0 -300 170zM520 170
c0 -85 75 -85 150 -85s150 0 150 85v140c0 85 -75 85 -150 85s-150 0 -150 -85v-140z" />
    <glyph glyph-name="uni04A9" unicode="&#x4a9;" horiz-adv-x="960" 
d="M60 145v190c0 145 130 145 260 145h160v-75h-170c-55 0 -110 0 -110 -65v-200c0 -65 55 -65 110 -65h45c-10 20 -15 40 -15 70v40c0 145 130 145 250 145s250 0 250 -145v-40c0 -30 -5 -50 -15 -70h75v-75h-580c-130 0 -260 0 -260 145zM480 140c0 -65 55 -65 110 -65
s110 0 110 65v50c0 65 -55 65 -110 65s-110 0 -110 -65v-50z" />
    <glyph glyph-name="uni04AA" unicode="&#x4aa;" horiz-adv-x="840" 
d="M370 -175h30c40 0 80 5 80 45c0 30 -15 55 -90 130h100c70 -70 90 -100 90 -135c0 -80 -80 -90 -160 -90h-50v50zM70 135v390c0 135 120 135 240 135h460v-85h-490c-30 0 -60 0 -60 -35v-420c0 -35 30 -35 60 -35h490v-85h-460c-120 0 -240 0 -240 135z" />
    <glyph glyph-name="uni04AB" unicode="&#x4ab;" horiz-adv-x="660" 
d="M280 -175h30c40 0 80 5 80 45c0 30 -15 55 -90 130h100c70 -70 90 -100 90 -135c0 -80 -80 -90 -160 -90h-50v50zM60 115v250c0 115 100 115 200 115h340v-75h-350c-25 0 -50 0 -50 -30v-270c0 -30 25 -30 50 -30h350v-75h-340c-100 0 -200 0 -200 115z" />
    <glyph glyph-name="uni04AC" unicode="&#x4ac;" 
d="M30 575v85h830v-85h-340v-490h100v-235h-130v150h-120v575h-340z" />
    <glyph glyph-name="uni04AD" unicode="&#x4ad;" horiz-adv-x="700" 
d="M60 405v75h580v-75h-220v-330h80v-200h-120v125h-100v405h-220z" />
    <glyph glyph-name="uni04AE" unicode="&#x4ae;" 
d="M20 660h180l245 -245l245 245h180l-350 -350v-310h-150v310z" />
    <glyph glyph-name="uni04AF" unicode="&#x4af;" horiz-adv-x="680" 
d="M20 480h140l180 -360l180 360h140l-250 -500v-205h-140v205z" />
    <glyph glyph-name="uni04B0" unicode="&#x4b0;" 
d="M20 660h180l245 -245l245 245h180l-350 -350v-100h175v-75h-175v-135h-150v135h-175v75h175v100z" />
    <glyph glyph-name="uni04B1" unicode="&#x4b1;" horiz-adv-x="680" 
d="M20 480h140l180 -360l180 360h140l-250 -500v-60h125v-65h-125v-80h-140v80h-125v65h125v60z" />
    <glyph glyph-name="uni04B2" unicode="&#x4b2;" horiz-adv-x="900" 
d="M860 85v-235h-130v150h-50l-240 240l-240 -240h-180l330 330l-330 330h180l240 -240l240 240h180l-330 -330l245 -245h85z" />
    <glyph glyph-name="uni04B3" unicode="&#x4b3;" horiz-adv-x="690" 
d="M20 0l240 240l-240 240h160l160 -160l160 160h160l-240 -240l165 -165h75v-200h-120v125h-40l-160 160l-160 -160h-160z" />
    <glyph glyph-name="uni04B4" unicode="&#x4b4;" horiz-adv-x="1260" 
d="M30 575v85h830v-85h-340v-490h450v575h150v-575h100v-235h-130v150h-720v575h-340z" />
    <glyph glyph-name="uni04B5" unicode="&#x4b5;" horiz-adv-x="970" 
d="M60 405v75h580v-75h-220v-330h300v405h140v-405h80v-200h-120v125h-540v405h-220z" />
    <glyph glyph-name="uni04B6" unicode="&#x4b6;" horiz-adv-x="960" 
d="M70 405v255h150v-270c0 -35 30 -35 60 -35h390v305h150v-575h100v-235h-130v150h-120v270h-360c-120 0 -240 0 -240 135z" />
    <glyph glyph-name="uni04B7" unicode="&#x4b7;" horiz-adv-x="750" 
d="M60 310v170h140v-180c0 -30 25 -30 50 -30h250v210h140v-405h80v-200h-120v125h-100v195h-240c-100 0 -200 0 -200 115z" />
    <glyph glyph-name="uni04B8" unicode="&#x4b8;" 
d="M70 405v255h150v-270c0 -35 30 -35 60 -35h125v135h75v-135h190v305h150v-660h-150v270h-190v-135h-75v135h-95c-120 0 -240 0 -240 135z" />
    <glyph glyph-name="uni04B9" unicode="&#x4b9;" horiz-adv-x="700" 
d="M60 310v170h140v-180c0 -30 25 -30 50 -30h65v100h65v-100h120v210h140v-480h-140v195h-120v-100h-65v100h-55c-100 0 -200 0 -200 115z" />
    <glyph glyph-name="uni04BA" unicode="&#x4ba;" 
d="M70 0v660h150v-250h360c120 0 240 0 240 -135v-275h-150v290c0 35 -30 35 -60 35h-390v-325h-150z" />
    <glyph glyph-name="uni04BB" unicode="&#x4bb;" horiz-adv-x="700" 
d="M60 0v480h140v-180h240c100 0 200 0 200 -115v-185h-140v195c0 30 -25 30 -50 30h-250v-225h-140z" />
    <glyph glyph-name="uni04BC" unicode="&#x4bc;" horiz-adv-x="1100" 
d="M40 460v50h150v-65c0 -35 30 -35 60 -35h30v80c0 170 150 170 300 170h150c150 0 300 0 300 -170v-165h-600v-155c0 -85 75 -85 150 -85h150c75 0 150 0 150 85h150c0 -170 -150 -170 -300 -170h-150c-150 0 -300 0 -300 170v155c-120 0 -240 0 -240 135zM430 410h450v80
c0 85 -75 85 -150 85h-150c-75 0 -150 0 -150 -85v-80z" />
    <glyph glyph-name="uni04BD" unicode="&#x4bd;" horiz-adv-x="900" 
d="M40 340v50h140v-60c0 -30 25 -30 50 -30h30v35c0 145 130 145 260 145h60c130 0 260 -5 260 -130v-125h-440v-85c0 -65 55 -65 110 -65h80c55 0 110 5 110 55h140c0 -125 -130 -130 -260 -130h-60c-130 0 -260 0 -260 145v80h-20c-100 0 -200 0 -200 115zM400 300h300v50
c0 55 -55 55 -110 55h-80c-55 0 -110 0 -110 -65v-40z" />
    <glyph glyph-name="uni04BE" unicode="&#x4be;" horiz-adv-x="1100" 
d="M40 460v50h150v-65c0 -35 30 -35 60 -35h30v80c0 170 150 170 300 170h150c150 0 300 0 300 -170v-165h-600v-155c0 -85 75 -85 150 -85h150c75 0 150 0 150 85h150c0 -170 -150 -170 -300 -170h-10v-150h-130v150h-10c-150 0 -300 0 -300 170v155
c-120 0 -240 0 -240 135zM430 410h450v80c0 85 -75 85 -150 85h-150c-75 0 -150 0 -150 -85v-80z" />
    <glyph glyph-name="uni04BF" unicode="&#x4bf;" horiz-adv-x="900" 
d="M40 340v50h140v-60c0 -30 25 -30 50 -30h30v35c0 145 130 145 260 145h60c130 0 260 -5 260 -130v-125h-440v-85c0 -65 55 -65 110 -65h80c55 0 110 5 110 55h140c0 -120 -125 -130 -230 -130v-125h-120v125c-105 0 -230 5 -230 145v80h-20c-100 0 -200 0 -200 115z
M400 300h300v50c0 55 -55 55 -110 55h-80c-55 0 -110 0 -110 -65v-40z" />
    <glyph glyph-name="uni04C0" unicode="&#x4c0;" horiz-adv-x="290" 
d="M70 0v660h150v-660h-150z" />
    <glyph glyph-name="uni04C1" unicode="&#x4c1;" horiz-adv-x="1150" 
d="M415 890h75c0 -47 38 -85 85 -85s85 38 85 85h75c0 -88 -72 -160 -160 -160s-160 72 -160 160zM20 0l350 350l-310 310h180l260 -260v260h150v-260l260 260h180l-310 -310l350 -350h-180l-260 260l-40 -40v-220h-150v220l-40 40l-260 -260h-180z" />
    <glyph glyph-name="uni04C2" unicode="&#x4c2;" horiz-adv-x="920" 
d="M300 710h75c0 -47 38 -85 85 -85s85 38 85 85h75c0 -88 -72 -160 -160 -160s-160 72 -160 160zM20 0l250 250l-230 230h160l190 -190v190h140v-190l190 190h160l-230 -230l250 -250h-160l-170 170l-40 -40v-130h-140v130l-40 40l-170 -170h-160z" />
    <glyph glyph-name="uni04C3" unicode="&#x4c3;" horiz-adv-x="780" 
d="M70 0v660h150v-250h100l250 250h180l-250 -250c110 0 210 -10 210 -120v-240c0 -245 -200 -265 -300 -275v85c50 10 150 30 150 190v245c0 30 -30 30 -60 30h-280v-325h-150z" />
    <glyph glyph-name="uni04C4" unicode="&#x4c4;" horiz-adv-x="640" 
d="M60 0v480h140v-180h60l180 180h160l-180 -180c85 0 160 -15 160 -115v-185c0 -200 -150 -215 -250 -225v75c80 20 110 60 110 150v195c0 30 -25 30 -50 30h-190v-225h-140z" />
    <glyph glyph-name="uni04C7" unicode="&#x4c7;" 
d="M70 0v660h150v-250h450v250h150v-610c0 -245 -200 -265 -300 -275v85c50 10 150 30 150 190v275h-450v-325h-150z" />
    <glyph glyph-name="uni04C8" unicode="&#x4c8;" horiz-adv-x="700" 
d="M60 0v480h140v-180h300v180h140v-480c0 -200 -150 -215 -250 -225v75c80 20 110 60 110 150v225h-300v-225h-140z" />
    <glyph glyph-name="uni04CB" unicode="&#x4cb;" 
d="M70 405v255h150v-270c0 -35 30 -35 60 -35h390v305h150v-660h-120v-150h-130v235h100v185h-360c-120 0 -240 0 -240 135z" />
    <glyph glyph-name="uni04CC" unicode="&#x4cc;" horiz-adv-x="700" 
d="M60 310v170h140v-180c0 -30 25 -30 50 -30h250v210h140v-480h-100v-125h-120v200h80v120h-240c-100 0 -200 0 -200 115z" />
    <glyph glyph-name="uni04D0" unicode="&#x4d0;" 
d="M285 890h75c0 -47 38 -85 85 -85s85 38 85 85h75c0 -88 -72 -160 -160 -160s-160 72 -160 160zM20 0l330 660h190l330 -660h-150l-105 210h-340l-105 -210h-150zM315 290h260l-130 260z" />
    <glyph glyph-name="uni04D1" unicode="&#x4d1;" horiz-adv-x="700" 
d="M190 710h75c0 -47 38 -85 85 -85s85 38 85 85h75c0 -88 -72 -160 -160 -160s-160 72 -160 160zM60 115v70c0 115 100 115 200 115h240v75c0 30 -25 30 -50 30h-350v75h340c100 0 200 0 200 -115v-365h-380c-100 0 -200 0 -200 115zM200 105c0 -30 25 -30 50 -30h250v150
h-250c-25 0 -50 0 -50 -30v-90z" />
    <glyph glyph-name="uni04D2" unicode="&#x4d2;" 
d="M270 760v100h120v-100h-120zM500 760v100h120v-100h-120zM20 0l330 660h190l330 -660h-150l-105 210h-340l-105 -210h-150zM315 290h260l-130 260z" />
    <glyph glyph-name="uni04D3" unicode="&#x4d3;" horiz-adv-x="700" 
d="M175 580v100h120v-100h-120zM405 580v100h120v-100h-120zM60 115v70c0 115 100 115 200 115h240v75c0 30 -25 30 -50 30h-350v75h340c100 0 200 0 200 -115v-365h-380c-100 0 -200 0 -200 115zM200 105c0 -30 25 -30 50 -30h250v150h-250c-25 0 -50 0 -50 -30v-90z" />
    <glyph glyph-name="uni04D4" unicode="&#x4d4;" horiz-adv-x="1290" 
d="M20 0l330 660h870v-85h-500v-165h450v-85h-450v-240h500v-85h-650v210h-295l-105 -210h-150zM315 290h255v285h-113z" />
    <glyph glyph-name="uni04D5" unicode="&#x4d5;" horiz-adv-x="1140" 
d="M60 115v70c0 115 100 115 200 115h240v75c0 30 -25 30 -50 30h-350v75h780c100 0 200 0 200 -115v-140h-440v-120c0 -30 25 -30 50 -30h370v-75h-800c-100 0 -200 0 -200 115zM200 105c0 -30 25 -30 50 -30h250v150h-250c-25 0 -50 0 -50 -30v-90zM640 300h300v75
c0 30 -25 30 -50 30h-200c-25 0 -50 0 -50 -30v-75z" />
    <glyph glyph-name="uni04D6" unicode="&#x4d6;" horiz-adv-x="840" 
d="M260 890h75c0 -47 38 -85 85 -85s85 38 85 85h75c0 -88 -72 -160 -160 -160s-160 72 -160 160zM70 0v660h700v-85h-550v-165h500v-85h-500v-240h550v-85h-700z" />
    <glyph glyph-name="uni04D7" unicode="&#x4d7;" horiz-adv-x="700" 
d="M190 710h75c0 -47 38 -85 85 -85s85 38 85 85h75c0 -88 -72 -160 -160 -160s-160 72 -160 160zM60 115v250c0 115 100 115 200 115h180c100 0 200 0 200 -115v-140h-440v-120c0 -30 25 -30 50 -30h370v-75h-360c-100 0 -200 0 -200 115zM200 300h300v75
c0 30 -25 30 -50 30h-200c-25 0 -50 0 -50 -30v-75z" />
    <glyph glyph-name="uni04D8" unicode="&#x4d8;" 
d="M70 170v165h600v155c0 85 -75 85 -150 85h-150c-75 0 -150 0 -150 -85h-150c0 170 150 170 300 170h150c150 0 300 0 300 -170v-320c0 -170 -150 -170 -300 -170h-150c-150 0 -300 0 -300 170zM220 170c0 -85 75 -85 150 -85h150c75 0 150 0 150 85v80h-450v-80z" />
    <glyph glyph-name="afii10846" unicode="&#x4d9;" horiz-adv-x="700" 
d="M60 130v125h440v85c0 65 -55 65 -110 65h-80c-55 0 -110 -5 -110 -55h-140c0 125 130 130 260 130h60c130 0 260 0 260 -145v-190c0 -145 -130 -145 -260 -145h-60c-130 0 -260 5 -260 130zM200 130c0 -55 55 -55 110 -55h80c55 0 110 0 110 65v40h-300v-50z" />
    <glyph glyph-name="uni04DA" unicode="&#x4da;" 
d="M270 760v100h120v-100h-120zM500 760v100h120v-100h-120zM70 170v165h600v155c0 85 -75 85 -150 85h-150c-75 0 -150 0 -150 -85h-150c0 170 150 170 300 170h150c150 0 300 0 300 -170v-320c0 -170 -150 -170 -300 -170h-150c-150 0 -300 0 -300 170zM220 170
c0 -85 75 -85 150 -85h150c75 0 150 0 150 85v80h-450v-80z" />
    <glyph glyph-name="uni04DB" unicode="&#x4db;" horiz-adv-x="700" 
d="M175 580v100h120v-100h-120zM405 580v100h120v-100h-120zM60 130v125h440v85c0 65 -55 65 -110 65h-80c-55 0 -110 -5 -110 -55h-140c0 125 130 130 260 130h60c130 0 260 0 260 -145v-190c0 -145 -130 -145 -260 -145h-60c-130 0 -260 5 -260 130zM200 130
c0 -55 55 -55 110 -55h80c55 0 110 0 110 65v40h-300v-50z" />
    <glyph glyph-name="uni04DC" unicode="&#x4dc;" horiz-adv-x="1150" 
d="M400 760v100h120v-100h-120zM630 760v100h120v-100h-120zM20 0l350 350l-310 310h180l260 -260v260h150v-260l260 260h180l-310 -310l350 -350h-180l-260 260l-40 -40v-220h-150v220l-40 40l-260 -260h-180z" />
    <glyph glyph-name="uni04DD" unicode="&#x4dd;" horiz-adv-x="920" 
d="M285 580v100h120v-100h-120zM515 580v100h120v-100h-120zM20 0l250 250l-230 230h160l190 -190v190h140v-190l190 190h160l-230 -230l250 -250h-160l-170 170l-40 -40v-130h-140v130l-40 40l-170 -170h-160z" />
    <glyph glyph-name="uni04DE" unicode="&#x4de;" horiz-adv-x="840" 
d="M245 760v100h120v-100h-120zM475 760v100h120v-100h-120zM70 0v85h490c30 0 60 0 60 35v170c0 35 -30 35 -60 35h-400v85h400c30 0 60 0 60 35v95c0 35 -30 35 -60 35h-490v85h460c120 0 240 0 240 -135v-55c0 -60 -40 -90 -80 -100c40 -10 80 -40 80 -100v-135
c0 -135 -120 -135 -240 -135h-460z" />
    <glyph glyph-name="uni04DF" unicode="&#x4df;" horiz-adv-x="660" 
d="M155 580v100h120v-100h-120zM385 580v100h120v-100h-120zM60 0v75h350c25 0 50 0 50 30v90c0 30 -25 30 -50 30h-270v75h270c25 0 50 0 50 30v45c0 30 -25 30 -50 30h-350v75h340c100 0 200 0 200 -115v-10c0 -55 -35 -80 -75 -90c40 -10 75 -35 75 -90v-60
c0 -115 -100 -115 -200 -115h-340z" />
    <glyph glyph-name="uni04E0" unicode="&#x4e0;" horiz-adv-x="840" 
d="M70 0v85h490c30 0 60 0 60 35v170c0 35 -30 35 -60 35h-185v85l205 165h-510v85h700v-85l-205 -165c110 0 205 -15 205 -135v-140c0 -135 -120 -135 -240 -135h-460z" />
    <glyph glyph-name="uni04E1" unicode="&#x4e1;" horiz-adv-x="660" 
d="M60 0v75h350c25 0 50 0 50 30v90c0 30 -25 30 -50 30h-105v75l135 105h-380v75h540v-75l-135 -105c75 0 135 -30 135 -115v-70c0 -115 -100 -115 -200 -115h-340z" />
    <glyph glyph-name="uni04E2" unicode="&#x4e2;" 
d="M265 765v75h360v-75h-360zM70 0v660h150v-490l440 490h160v-660h-150v490l-440 -490h-160z" />
    <glyph glyph-name="uni04E3" unicode="&#x4e3;" horiz-adv-x="700" 
d="M170 585v75h360v-75h-360zM60 0v480h140v-330l290 330h150v-480h-140v330l-290 -330h-150z" />
    <glyph glyph-name="uni04E4" unicode="&#x4e4;" 
d="M270 760v100h120v-100h-120zM500 760v100h120v-100h-120zM70 0v660h150v-490l440 490h160v-660h-150v490l-440 -490h-160z" />
    <glyph glyph-name="uni04E5" unicode="&#x4e5;" horiz-adv-x="700" 
d="M175 580v100h120v-100h-120zM405 580v100h120v-100h-120zM60 0v480h140v-330l290 330h150v-480h-140v330l-290 -330h-150z" />
    <glyph glyph-name="uni04E6" unicode="&#x4e6;" 
d="M270 760v100h120v-100h-120zM500 760v100h120v-100h-120zM70 135v390c0 135 120 135 240 135h270c120 0 240 0 240 -135v-390c0 -135 -120 -135 -240 -135h-270c-120 0 -240 0 -240 135zM220 120c0 -35 30 -35 60 -35h330c30 0 60 0 60 35v420c0 35 -30 35 -60 35h-330
c-30 0 -60 0 -60 -35v-420z" />
    <glyph glyph-name="uni04E7" unicode="&#x4e7;" horiz-adv-x="700" 
d="M175 580v100h120v-100h-120zM405 580v100h120v-100h-120zM60 115v250c0 115 100 115 200 115h180c100 0 200 0 200 -115v-250c0 -115 -100 -115 -200 -115h-180c-100 0 -200 0 -200 115zM200 105c0 -30 25 -30 50 -30h200c25 0 50 0 50 30v270c0 30 -25 30 -50 30h-200
c-25 0 -50 0 -50 -30v-270z" />
    <glyph glyph-name="uni04E8" unicode="&#x4e8;" 
d="M70 135v390c0 135 120 135 240 135h270c120 0 240 0 240 -135v-390c0 -135 -120 -135 -240 -135h-270c-120 0 -240 0 -240 135zM220 120c0 -35 30 -35 60 -35h330c30 0 60 0 60 35v205h-450v-205zM220 410h450v130c0 35 -30 35 -60 35h-330c-30 0 -60 0 -60 -35v-130z
" />
    <glyph glyph-name="uni04E9" unicode="&#x4e9;" horiz-adv-x="700" 
d="M60 115v250c0 115 100 115 200 115h180c100 0 200 0 200 -115v-250c0 -115 -100 -115 -200 -115h-180c-100 0 -200 0 -200 115zM200 105c0 -30 25 -30 50 -30h200c25 0 50 0 50 30v120h-300v-120zM200 300h300v75c0 30 -25 30 -50 30h-200c-25 0 -50 0 -50 -30v-75z" />
    <glyph glyph-name="uni04EA" unicode="&#x4ea;" 
d="M270 760v100h120v-100h-120zM500 760v100h120v-100h-120zM70 135v390c0 135 120 135 240 135h270c120 0 240 0 240 -135v-390c0 -135 -120 -135 -240 -135h-270c-120 0 -240 0 -240 135zM220 120c0 -35 30 -35 60 -35h330c30 0 60 0 60 35v205h-450v-205zM220 410h450
v130c0 35 -30 35 -60 35h-330c-30 0 -60 0 -60 -35v-130z" />
    <glyph glyph-name="uni04EB" unicode="&#x4eb;" horiz-adv-x="700" 
d="M175 580v100h120v-100h-120zM405 580v100h120v-100h-120zM60 115v250c0 115 100 115 200 115h180c100 0 200 0 200 -115v-250c0 -115 -100 -115 -200 -115h-180c-100 0 -200 0 -200 115zM200 105c0 -30 25 -30 50 -30h200c25 0 50 0 50 30v120h-300v-120zM200 300h300v75
c0 30 -25 30 -50 30h-200c-25 0 -50 0 -50 -30v-75z" />
    <glyph glyph-name="uni04EC" unicode="&#x4ec;" 
d="M270 760v100h120v-100h-120zM500 760v100h120v-100h-120zM70 170h150c0 -85 75 -85 150 -85h150c75 0 150 0 150 85v155h-375v85h375v80c0 85 -75 85 -150 85h-150c-75 0 -150 0 -150 -85h-150c0 170 150 170 300 170h150c150 0 300 0 300 -170v-320
c0 -170 -150 -170 -300 -170h-150c-150 0 -300 0 -300 170z" />
    <glyph glyph-name="uni04ED" unicode="&#x4ed;" horiz-adv-x="700" 
d="M175 580v100h120v-100h-120zM405 580v100h120v-100h-120zM60 130h140c0 -50 55 -55 110 -55h80c55 0 110 0 110 65v85h-250v75h250v40c0 60 -55 65 -110 65h-80c-55 0 -110 -5 -110 -55h-140c0 125 130 130 260 130h60c130 0 260 0 260 -145v-190
c0 -145 -130 -145 -260 -145h-60c-130 0 -260 5 -260 130z" />
    <glyph glyph-name="uni04EE" unicode="&#x4ee;" horiz-adv-x="800" 
d="M220 765v75h360v-75h-360zM20 660h160l220 -330l220 330h160l-380 -570c-40 -60 -60 -90 -150 -90h-130v85h60c55 0 60 5 90 50l50 75z" />
    <glyph glyph-name="uni04EF" unicode="&#x4ef;" horiz-adv-x="680" 
d="M160 585v75h360v-75h-360zM20 480h140l180 -360l180 360h140l-300 -600c-30 -60 -55 -105 -150 -105h-130v75h80c45 0 50 10 65 40l45 90z" />
    <glyph glyph-name="uni04F0" unicode="&#x4f0;" horiz-adv-x="800" 
d="M225 760v100h120v-100h-120zM455 760v100h120v-100h-120zM20 660h160l220 -330l220 330h160l-380 -570c-40 -60 -60 -90 -150 -90h-130v85h60c55 0 60 5 90 50l50 75z" />
    <glyph glyph-name="uni04F1" unicode="&#x4f1;" horiz-adv-x="680" 
d="M165 580v100h120v-100h-120zM395 580v100h120v-100h-120zM20 480h140l180 -360l180 360h140l-300 -600c-30 -60 -55 -105 -150 -105h-130v75h80c45 0 50 10 65 40l45 90z" />
    <glyph glyph-name="uni04F2" unicode="&#x4f2;" horiz-adv-x="800" 
d="M220 730l80 160h120l-120 -160h-80zM440 730l80 160h120l-120 -160h-80zM20 660h160l220 -330l220 330h160l-380 -570c-40 -60 -60 -90 -150 -90h-130v85h60c55 0 60 5 90 50l50 75z" />
    <glyph glyph-name="uni04F3" unicode="&#x4f3;" horiz-adv-x="680" 
d="M160 550l80 160h120l-120 -160h-80zM380 550l80 160h120l-120 -160h-80zM20 480h140l180 -360l180 360h140l-300 -600c-30 -60 -55 -105 -150 -105h-130v75h80c45 0 50 10 65 40l45 90z" />
    <glyph glyph-name="uni04F4" unicode="&#x4f4;" 
d="M270 760v100h120v-100h-120zM500 760v100h120v-100h-120zM70 405v255h150v-270c0 -35 30 -35 60 -35h390v305h150v-660h-150v270h-360c-120 0 -240 0 -240 135z" />
    <glyph glyph-name="uni04F5" unicode="&#x4f5;" horiz-adv-x="700" 
d="M175 580v100h120v-100h-120zM405 580v100h120v-100h-120zM60 310v170h140v-180c0 -30 25 -30 50 -30h250v210h140v-480h-140v195h-240c-100 0 -200 0 -200 115z" />
    <glyph glyph-name="uni04F8" unicode="&#x4f8;" horiz-adv-x="1090" 
d="M370 760v100h120v-100h-120zM600 760v100h120v-100h-120zM70 0v660h150v-250h310c120 0 240 0 240 -135v-140c0 -135 -120 -135 -240 -135h-460zM220 85h340c30 0 60 0 60 35v170c0 35 -30 35 -60 35h-340v-240zM870 0v660h150v-660h-150z" />
    <glyph glyph-name="uni04F9" unicode="&#x4f9;" horiz-adv-x="900" 
d="M265 580v100h120v-100h-120zM495 580v100h120v-100h-120zM60 0v480h140v-180h200c100 0 200 0 200 -115v-70c0 -115 -100 -115 -200 -115h-340zM200 75h210c25 0 50 0 50 30v90c0 30 -25 30 -50 30h-210v-150zM700 0v480h140v-480h-140z" />
    <glyph glyph-name="uni1E02" unicode="&#x1e02;" 
d="M385 760v100h120v-100h-120zM70 0v660h500c120 0 240 0 240 -135v-55c0 -60 -40 -90 -80 -100c40 -10 90 -30 90 -100v-135c0 -135 -120 -135 -240 -135h-510zM220 85h390c30 0 60 0 60 35v170c0 35 -30 35 -60 35h-390v-240zM220 410h380c30 0 60 0 60 35v95
c0 35 -30 35 -60 35h-380v-165z" />
    <glyph glyph-name="uni1E03" unicode="&#x1e03;" horiz-adv-x="700" 
d="M70 760v100h120v-100h-120zM60 0v660h140v-180h240c100 0 200 0 200 -115v-250c0 -115 -100 -115 -200 -115h-380zM200 75h250c25 0 50 0 50 30v270c0 30 -25 30 -50 30h-250v-330z" />
    <glyph glyph-name="uni1E0A" unicode="&#x1e0a;" 
d="M385 760v100h120v-100h-120zM70 0v660h390c180 0 360 -60 360 -300v-60c0 -240 -180 -300 -360 -300h-390zM220 85h210c120 0 240 40 240 200v90c0 160 -120 200 -240 200h-210v-490z" />
    <glyph glyph-name="uni1E0B" unicode="&#x1e0b;" horiz-adv-x="700" 
d="M510 760v100h120v-100h-120zM60 115v250c0 115 100 115 200 115h240v180h140v-660h-380c-100 0 -200 0 -200 115zM200 105c0 -30 25 -30 50 -30h250v330h-250c-25 0 -50 0 -50 -30v-270z" />
    <glyph glyph-name="uni1E1E" unicode="&#x1e1e;" horiz-adv-x="820" 
d="M350 760v100h120v-100h-120zM70 0v660h700v-85h-550v-165h490v-85h-490v-325h-150z" />
    <glyph glyph-name="uni1E1F" unicode="&#x1e1f;" horiz-adv-x="460" 
d="M170 760v100h120v-100h-120zM60 0v545c0 115 100 115 200 115h140v-75h-150c-25 0 -50 0 -50 -30v-75h200v-75h-200v-405h-140z" />
    <glyph glyph-name="uni1E40" unicode="&#x1e40;" horiz-adv-x="1050" 
d="M465 760v100h120v-100h-120zM70 0v660h200l255 -510l255 510h200v-660h-150v490l-245 -490h-120l-245 490v-490h-150z" />
    <glyph glyph-name="uni1E41" unicode="&#x1e41;" horiz-adv-x="900" 
d="M390 580v100h120v-100h-120zM60 0v480h580c100 0 200 0 200 -115v-365h-140v375c0 30 -25 30 -50 30h-130v-405h-140v375c0 30 -25 30 -50 30h-130v-405h-140z" />
    <glyph glyph-name="uni1E56" unicode="&#x1e56;" 
d="M385 760v100h120v-100h-120zM70 0v660h510c120 0 240 0 240 -135v-120c0 -135 -120 -135 -240 -135h-360v-270h-150zM220 355h390c30 0 60 0 60 35v150c0 35 -30 35 -60 35h-390v-220z" />
    <glyph glyph-name="uni1E57" unicode="&#x1e57;" horiz-adv-x="700" 
d="M290 580v100h120v-100h-120zM60 -225v705h380c100 0 200 0 200 -115v-250c0 -115 -100 -115 -200 -115h-240v-225h-140zM200 75h250c25 0 50 0 50 30v270c0 30 -25 30 -50 30h-250v-330z" />
    <glyph glyph-name="uni1E60" unicode="&#x1e60;" 
d="M385 760v100h120v-100h-120zM70 0v85h540c30 0 60 0 60 35v170c0 35 -30 35 -60 35h-300c-120 0 -240 0 -240 135v65c0 135 120 135 240 135h460v-85h-490c-30 0 -60 0 -60 -35v-95c0 -35 30 -35 60 -35h300c120 0 240 0 240 -135v-140c0 -135 -120 -135 -240 -135h-510z
" />
    <glyph glyph-name="uni1E61" unicode="&#x1e61;" horiz-adv-x="700" 
d="M290 580v100h120v-100h-120zM60 0v75h390c25 0 50 0 50 30v90c0 30 -25 30 -50 30h-190c-100 0 -200 0 -200 115v25c0 115 100 115 200 115h340v-75h-350c-25 0 -50 0 -50 -30v-45c0 -30 25 -30 50 -30h190c100 0 200 0 200 -115v-70c0 -115 -100 -115 -200 -115h-380z
" />
    <glyph glyph-name="uni1E6A" unicode="&#x1e6a;" 
d="M385 760v100h120v-100h-120zM30 575v85h830v-85h-340v-575h-150v575h-340z" />
    <glyph glyph-name="uni1E6B" unicode="&#x1e6b;" horiz-adv-x="460" 
d="M70 760v100h120v-100h-120zM60 115v545h140v-180h200v-75h-200v-300c0 -30 25 -30 50 -30h150v-75h-140c-100 0 -200 0 -200 115z" />
    <glyph glyph-name="Wgrave" unicode="&#x1e80;" horiz-adv-x="1200" 
d="M440 890h150l100 -160h-90zM20 660h150l175 -525l165 495h180l165 -495l175 525h150l-220 -660h-190l-170 510l-170 -510h-190z" />
    <glyph glyph-name="wgrave" unicode="&#x1e81;" horiz-adv-x="880" 
d="M280 710h150l100 -160h-90zM20 480h130l115 -345l105 315h140l105 -315l115 345h130l-160 -480h-150l-110 330l-110 -330h-150z" />
    <glyph glyph-name="Wacute" unicode="&#x1e82;" horiz-adv-x="1200" 
d="M510 730l100 160h150l-160 -160h-90zM20 660h150l175 -525l165 495h180l165 -495l175 525h150l-220 -660h-190l-170 510l-170 -510h-190z" />
    <glyph glyph-name="wacute" unicode="&#x1e83;" horiz-adv-x="880" 
d="M350 550l100 160h150l-160 -160h-90zM20 480h130l115 -345l105 315h140l105 -315l115 345h130l-160 -480h-150l-110 330l-110 -330h-150z" />
    <glyph glyph-name="Wdieresis" unicode="&#x1e84;" horiz-adv-x="1200" 
d="M425 760v100h120v-100h-120zM655 760v100h120v-100h-120zM20 660h150l175 -525l165 495h180l165 -495l175 525h150l-220 -660h-190l-170 510l-170 -510h-190z" />
    <glyph glyph-name="wdieresis" unicode="&#x1e85;" horiz-adv-x="880" 
d="M265 580v100h120v-100h-120zM495 580v100h120v-100h-120zM20 480h130l115 -345l105 315h140l105 -315l115 345h130l-160 -480h-150l-110 330l-110 -330h-150z" />
    <glyph glyph-name="Ygrave" unicode="&#x1ef2;" 
d="M285 890h150l100 -160h-90zM20 660h180l245 -245l245 245h180l-350 -350v-310h-150v310z" />
    <glyph glyph-name="ygrave" unicode="&#x1ef3;" horiz-adv-x="680" 
d="M180 710h150l100 -160h-90zM20 480h140l180 -360l180 360h140l-300 -600c-30 -60 -55 -105 -150 -105h-130v75h80c45 0 50 10 65 40l45 90z" />
    <glyph glyph-name="figuredash" unicode="&#x2012;" horiz-adv-x="870" 
d="M210 190v100h450v-100h-450z" />
    <glyph glyph-name="endash" unicode="&#x2013;" horiz-adv-x="500" 
d="M20 190v100h460v-100h-460z" />
    <glyph glyph-name="emdash" unicode="&#x2014;" horiz-adv-x="1000" 
d="M20 190v100h960v-100h-960z" />
    <glyph glyph-name="afii00208" unicode="&#x2015;" horiz-adv-x="1000" 
d="M20 190v100h960v-100h-960z" />
    <glyph glyph-name="quoteleft" unicode="&#x2018;" horiz-adv-x="330" 
d="M75 410l100 250h80l-50 -250h-130z" />
    <glyph glyph-name="quoteright" unicode="&#x2019;" horiz-adv-x="330" 
d="M75 410l50 250h130l-100 -250h-80z" />
    <glyph glyph-name="quotesinglbase" unicode="&#x201a;" horiz-adv-x="330" 
d="M75 -130l50 250h130l-100 -250h-80z" />
    <glyph glyph-name="quotereversed" unicode="&#x201b;" horiz-adv-x="330" 
d="M75 660h130l50 -250h-80z" />
    <glyph glyph-name="quotedblleft" unicode="&#x201c;" horiz-adv-x="560" 
d="M305 410l100 250h80l-50 -250h-130zM75 410l100 250h80l-50 -250h-130z" />
    <glyph glyph-name="quotedblright" unicode="&#x201d;" horiz-adv-x="560" 
d="M305 410l50 250h130l-100 -250h-80zM75 410l50 250h130l-100 -250h-80z" />
    <glyph glyph-name="quotedblbase" unicode="&#x201e;" horiz-adv-x="560" 
d="M305 -130l50 250h130l-100 -250h-80zM75 -130l50 250h130l-100 -250h-80z" />
    <glyph glyph-name="uni201F" unicode="&#x201f;" horiz-adv-x="560" 
d="M305 660h130l50 -250h-80zM75 660h130l50 -250h-80z" />
    <glyph glyph-name="dagger" unicode="&#x2020;" horiz-adv-x="660" 
d="M60 405v75h200v180h140v-180h200v-75h-200v-510h-140v510h-200z" />
    <glyph glyph-name="daggerdbl" unicode="&#x2021;" horiz-adv-x="660" 
d="M60 75v75h200v255h-200v75h200v180h140v-180h200v-75h-200v-255h200v-75h-200v-180h-140v180h-200z" />
    <glyph glyph-name="bullet" unicode="&#x2022;" horiz-adv-x="440" 
d="M100 360c0 66 54 120 120 120s120 -54 120 -120s-54 -120 -120 -120s-120 54 -120 120z" />
    <glyph glyph-name="ellipsis" unicode="&#x2026;" horiz-adv-x="900" 
d="M675 0v120h150v-120h-150zM375 0v120h150v-120h-150zM75 0v120h150v-120h-150z" />
    <glyph glyph-name="perthousand" unicode="&#x2030;" horiz-adv-x="1670" 
d="M710 90v160c0 90 80 90 160 90h100c80 0 160 0 160 -90v-160c0 -90 -80 -90 -160 -90h-100c-80 0 -160 0 -160 90zM830 85c0 -25 20 -25 40 -25h100c20 0 40 0 40 25v170c0 25 -20 25 -40 25h-100c-20 0 -40 0 -40 -25v-170zM1190 90v160c0 90 80 90 160 90h100
c80 0 160 0 160 -90v-160c0 -90 -80 -90 -160 -90h-100c-80 0 -160 0 -160 90zM1310 85c0 -25 20 -25 40 -25h100c20 0 40 0 40 25v170c0 25 -20 25 -40 25h-100c-20 0 -40 0 -40 -25v-170zM60 410v160c0 90 80 90 160 90h100c80 0 160 0 160 -90v-160
c0 -90 -80 -90 -160 -90h-100c-80 0 -160 0 -160 90zM180 405c0 -25 20 -25 40 -25h100c20 0 40 0 40 25v170c0 25 -20 25 -40 25h-100c-20 0 -40 0 -40 -25v-170zM370 0l330 660h120l-330 -660h-120z" />
    <glyph glyph-name="minute" unicode="&#x2032;" horiz-adv-x="330" 
d="M75 410l50 250h130l-100 -250h-80z" />
    <glyph glyph-name="second" unicode="&#x2033;" horiz-adv-x="560" 
d="M305 410l50 250h130l-100 -250h-80zM75 410l50 250h130l-100 -250h-80z" />
    <glyph glyph-name="guilsinglleft" unicode="&#x2039;" horiz-adv-x="440" 
d="M60 240l200 200h120l-180 -200l180 -200h-120z" />
    <glyph glyph-name="guilsinglright" unicode="&#x203a;" horiz-adv-x="440" 
d="M60 40l180 200l-180 200h120l200 -200l-200 -200h-120z" />
    <glyph glyph-name="uni203D" unicode="&#x203d;" horiz-adv-x="850" 
d="M75 575v85h460c120 0 240 0 240 -135v-65c0 -135 -120 -135 -240 -135h-60c-30 0 -60 0 -60 -35v-65h-150v350h-190zM265 0v120h150v-120h-150zM415 410h150c30 0 60 0 60 35v95c0 35 -30 35 -60 35h-150v-165z" />
    <glyph glyph-name="uni203E" unicode="&#x203e;" horiz-adv-x="640" 
d="M20 800h600v-75h-600v75z" />
    <glyph glyph-name="fraction" unicode="&#x2044;" horiz-adv-x="90" 
d="M-180 0l330 660h120l-330 -660h-120z" />
    <glyph glyph-name="uni2070" unicode="&#x2070;" horiz-adv-x="540" 
d="M60 410v160c0 90 80 90 160 90h100c80 0 160 0 160 -90v-160c0 -90 -80 -90 -160 -90h-100c-80 0 -160 0 -160 90zM180 405c0 -25 20 -25 40 -25h100c20 0 40 0 40 25v170c0 25 -20 25 -40 25h-100c-20 0 -40 0 -40 -25v-170z" />
    <glyph glyph-name="uni2074" unicode="&#x2074;" horiz-adv-x="540" 
d="M60 390v60l270 210h150v-340h-120v70h-300zM189 450h171v133z" />
    <glyph glyph-name="uni2075" unicode="&#x2075;" horiz-adv-x="540" 
d="M60 320v60h260c20 0 40 0 40 25v45c0 25 -20 25 -40 25h-260v185h400v-60h-280v-65h140c80 0 160 0 160 -90v-35c0 -90 -80 -90 -160 -90h-260z" />
    <glyph glyph-name="uni2076" unicode="&#x2076;" horiz-adv-x="540" 
d="M60 410v150c0 100 90 100 180 100h220v-60h-230c-25 0 -50 0 -50 -30v-35h140c80 0 160 0 160 -90v-35c0 -90 -80 -90 -160 -90h-100c-80 0 -160 0 -160 90zM180 405c0 -25 20 -25 40 -25h100c20 0 40 0 40 25v45c0 25 -20 25 -40 25h-100c-20 0 -40 0 -40 -25v-45z" />
    <glyph glyph-name="uni2077" unicode="&#x2077;" horiz-adv-x="540" 
d="M60 600v60h420v-60l-180 -280h-130l180 280h-290z" />
    <glyph glyph-name="uni2078" unicode="&#x2078;" horiz-adv-x="540" 
d="M60 410v30c0 45 40 60 60 65c-20 5 -60 20 -60 65c0 90 80 90 160 90h100c80 0 160 0 160 -90c0 -45 -40 -60 -60 -65c20 -5 60 -20 60 -65v-30c0 -90 -80 -90 -160 -90h-100c-80 0 -160 0 -160 90zM180 405c0 -25 20 -25 40 -25h100c20 0 40 0 40 25v45
c0 25 -20 25 -40 25h-100c-20 0 -40 0 -40 -25v-45zM180 560c0 -25 20 -25 40 -25h100c20 0 40 0 40 25v15c0 25 -20 25 -40 25h-100c-20 0 -40 0 -40 -25v-15z" />
    <glyph glyph-name="uni2079" unicode="&#x2079;" horiz-adv-x="540" 
d="M60 565v5c0 90 80 90 160 90h100c80 0 160 0 160 -90v-150c0 -100 -90 -100 -180 -100h-220v60h230c25 0 50 0 50 30v65h-140c-80 0 -160 0 -160 90zM180 560c0 -25 20 -25 40 -25h100c20 0 40 0 40 25v15c0 25 -20 25 -40 25h-100c-20 0 -40 0 -40 -25v-15z" />
    <glyph glyph-name="uni207A" unicode="&#x207a;" horiz-adv-x="460" 
d="M60 410v70h120v90h100v-90h120v-70h-120v-90h-100v90h-120z" />
    <glyph glyph-name="uni207B" unicode="&#x207b;" horiz-adv-x="420" 
d="M60 410v70h300v-70h-300z" />
    <glyph glyph-name="uni207C" unicode="&#x207c;" horiz-adv-x="460" 
d="M60 340v70h340v-70h-340zM60 480v70h340v-70h-340z" />
    <glyph glyph-name="uni207D" unicode="&#x207d;" horiz-adv-x="295" 
d="M60 430c0 85 30 165 85 230h90c-50 -70 -75 -145 -75 -230s25 -160 75 -230h-90c-55 65 -85 145 -85 230z" />
    <glyph glyph-name="uni207E" unicode="&#x207e;" horiz-adv-x="295" 
d="M60 200c50 70 75 145 75 230s-25 160 -75 230h90c55 -65 85 -145 85 -230s-30 -165 -85 -230h-90z" />
    <glyph glyph-name="uni207F" unicode="&#x207f;" horiz-adv-x="540" 
d="M60 320v340h260c80 0 160 0 160 -90v-250h-120v255c0 25 -20 25 -40 25h-140v-280h-120z" />
    <glyph glyph-name="uni2080" unicode="&#x2080;" horiz-adv-x="540" 
d="M60 90v160c0 90 80 90 160 90h100c80 0 160 0 160 -90v-160c0 -90 -80 -90 -160 -90h-100c-80 0 -160 0 -160 90zM180 85c0 -25 20 -25 40 -25h100c20 0 40 0 40 25v170c0 25 -20 25 -40 25h-100c-20 0 -40 0 -40 -25v-170z" />
    <glyph glyph-name="uni2081" unicode="&#x2081;" horiz-adv-x="340" 
d="M60 280v60h220v-340h-120v280h-100z" />
    <glyph glyph-name="uni2082" unicode="&#x2082;" horiz-adv-x="540" 
d="M60 0v125c0 90 80 90 160 90h100c20 0 40 0 40 25v15c0 25 -20 25 -40 25h-240v60h240c80 0 160 0 160 -90c0 -95 -80 -95 -160 -95h-100c-20 0 -40 0 -40 -25v-70h300v-60h-420z" />
    <glyph glyph-name="uni2083" unicode="&#x2083;" horiz-adv-x="540" 
d="M60 0v60h260c20 0 40 0 40 25v45c0 25 -20 25 -40 25h-200v60h200c20 0 40 0 40 25v15c0 25 -20 25 -40 25h-260v60h260c80 0 160 0 160 -90c0 -45 -40 -60 -60 -65c20 -5 60 -20 60 -65v-30c0 -90 -80 -90 -160 -90h-260z" />
    <glyph glyph-name="uni2084" unicode="&#x2084;" horiz-adv-x="540" 
d="M60 70v60l270 210h150v-340h-120v70h-300zM189 130h171v133z" />
    <glyph glyph-name="uni2085" unicode="&#x2085;" horiz-adv-x="540" 
d="M60 0v60h260c20 0 40 0 40 25v45c0 25 -20 25 -40 25h-260v185h400v-60h-280v-65h140c80 0 160 0 160 -90v-35c0 -90 -80 -90 -160 -90h-260z" />
    <glyph glyph-name="uni2086" unicode="&#x2086;" horiz-adv-x="540" 
d="M60 90v150c0 100 90 100 180 100h220v-60h-230c-25 0 -50 0 -50 -30v-35h140c80 0 160 0 160 -90v-35c0 -90 -80 -90 -160 -90h-100c-80 0 -160 0 -160 90zM180 85c0 -25 20 -25 40 -25h100c20 0 40 0 40 25v45c0 25 -20 25 -40 25h-100c-20 0 -40 0 -40 -25v-45z" />
    <glyph glyph-name="uni2087" unicode="&#x2087;" horiz-adv-x="540" 
d="M60 280v60h420v-60l-180 -280h-130l180 280h-290z" />
    <glyph glyph-name="uni2088" unicode="&#x2088;" horiz-adv-x="540" 
d="M60 90v30c0 45 40 60 60 65c-20 5 -60 20 -60 65c0 90 80 90 160 90h100c80 0 160 0 160 -90c0 -45 -40 -60 -60 -65c20 -5 60 -20 60 -65v-30c0 -90 -80 -90 -160 -90h-100c-80 0 -160 0 -160 90zM180 85c0 -25 20 -25 40 -25h100c20 0 40 0 40 25v45
c0 25 -20 25 -40 25h-100c-20 0 -40 0 -40 -25v-45zM180 240c0 -25 20 -25 40 -25h100c20 0 40 0 40 25v15c0 25 -20 25 -40 25h-100c-20 0 -40 0 -40 -25v-15z" />
    <glyph glyph-name="uni2089" unicode="&#x2089;" horiz-adv-x="540" 
d="M60 245v5c0 90 80 90 160 90h100c80 0 160 0 160 -90v-150c0 -100 -90 -100 -180 -100h-220v60h230c25 0 50 0 50 30v65h-140c-80 0 -160 0 -160 90zM180 240c0 -25 20 -25 40 -25h100c20 0 40 0 40 25v15c0 25 -20 25 -40 25h-100c-20 0 -40 0 -40 -25v-15z" />
    <glyph glyph-name="uni208A" unicode="&#x208a;" horiz-adv-x="460" 
d="M60 90v70h120v90h100v-90h120v-70h-120v-90h-100v90h-120z" />
    <glyph glyph-name="uni208B" unicode="&#x208b;" horiz-adv-x="420" 
d="M60 90v70h300v-70h-300z" />
    <glyph glyph-name="uni208C" unicode="&#x208c;" horiz-adv-x="460" 
d="M60 20v70h340v-70h-340zM60 160v70h340v-70h-340z" />
    <glyph glyph-name="uni208D" unicode="&#x208d;" horiz-adv-x="295" 
d="M60 110c0 85 30 165 85 230h90c-50 -70 -75 -145 -75 -230s25 -160 75 -230h-90c-55 65 -85 145 -85 230z" />
    <glyph glyph-name="uni208E" unicode="&#x208e;" horiz-adv-x="295" 
d="M60 -120c50 70 75 145 75 230s-25 160 -75 230h90c55 -65 85 -145 85 -230s-30 -165 -85 -230h-90z" />
    <glyph glyph-name="lira" unicode="&#x20a4;" 
d="M70 0v85h100v140h-100v75h100v60h-100v75h100v90c0 135 120 135 240 135h170c120 0 240 0 240 -135v-35h-150v50c0 35 -30 35 -60 35h-230c-30 0 -60 0 -60 -35v-105h250v-75h-250v-60h250v-75h-250v-140h500v-85h-750z" />
    <glyph glyph-name="Euro" unicode="&#x20ac;" horiz-adv-x="990" 
d="M70 225v75h100v60h-100v75h100v55c0 170 150 170 300 170h150c150 0 300 0 300 -170h-150c0 85 -75 85 -150 85h-150c-75 0 -150 0 -150 -85v-55h375l-25 -75h-350v-60h330l-25 -75h-305v-55c0 -85 75 -85 150 -85h150c75 0 150 0 150 85h150c0 -170 -150 -170 -300 -170
h-150c-150 0 -300 0 -300 170v55h-100z" />
    <glyph glyph-name="uni20AF" unicode="&#x20af;" horiz-adv-x="1290" 
d="M70 0v660h240c180 0 360 -60 360 -300v-60c0 -240 -180 -300 -360 -300h-240zM220 85h60c120 0 240 40 240 200v90c0 160 -120 200 -240 200h-60v-490zM740 -225v590c0 115 100 115 200 115h80c100 0 200 0 200 -115v-250c0 -115 -100 -115 -200 -115h-140v-225h-140z
M880 75h150c25 0 50 0 50 30v270c0 30 -25 30 -50 30h-100c-25 0 -50 0 -50 -30v-300z" />
    <glyph glyph-name="afii61248" unicode="&#x2105;" horiz-adv-x="1190" 
d="M60 410v160c0 90 80 90 160 90h240v-60h-240c-20 0 -40 0 -40 -25v-170c0 -25 20 -25 40 -25h240v-60h-240c-80 0 -160 0 -160 90zM370 0l330 660h120l-330 -660h-120zM710 90v160c0 90 80 90 160 90h100c80 0 160 0 160 -90v-160c0 -90 -80 -90 -160 -90h-100
c-80 0 -160 0 -160 90zM830 85c0 -25 20 -25 40 -25h100c20 0 40 0 40 25v170c0 25 -20 25 -40 25h-100c-20 0 -40 0 -40 -25v-170z" />
    <glyph glyph-name="afii61289" unicode="&#x2113;" horiz-adv-x="635" 
d="M60 225v75h100v245c0 115 100 115 200 115h20c80 0 160 0 160 -115v-205c0 -115 -80 -115 -160 -115h-80v-120c0 -30 25 -30 50 -30h85c55 0 105 35 105 75h35c0 -70 -25 -150 -140 -150h-75c-100 0 -200 0 -200 115v110h-100zM300 300h90c25 0 50 0 50 30v225
c0 30 -25 30 -50 30h-40c-25 0 -50 0 -50 -30v-255z" />
    <glyph glyph-name="afii61352" unicode="&#x2116;" horiz-adv-x="1290" 
d="M70 0v660h160l340 -480v480h150v-660h-160l-340 480v-480h-150zM800 0v60h420v-60h-420zM800 230v160c0 90 80 90 160 90h100c80 0 160 0 160 -90v-160c0 -90 -80 -90 -160 -90h-100c-80 0 -160 0 -160 90zM920 225c0 -25 20 -25 40 -25h100c20 0 40 0 40 25v170
c0 25 -20 25 -40 25h-100c-20 0 -40 0 -40 -25v-170z" />
    <glyph glyph-name="uni2117" unicode="&#x2117;" horiz-adv-x="1020" 
d="M60 115v430c0 115 100 115 200 115h500c100 0 200 0 200 -115v-430c0 -115 -100 -115 -200 -115h-500c-100 0 -200 0 -200 115zM180 115c0 -55 50 -55 100 -55h460c50 0 100 0 100 55v430c0 55 -50 55 -100 55h-460c-50 0 -100 0 -100 -55v-430zM300 160v340h260
c80 0 160 0 160 -90v-25c0 -80 -65 -90 -135 -90h-165v-135h-120zM420 355h140c20 0 40 0 40 25v35c0 25 -20 25 -40 25h-140v-85z" />
    <glyph glyph-name="trademark" unicode="&#x2122;" horiz-adv-x="1120" 
d="M60 600v60h400v-60h-140v-280h-120v280h-140zM520 320v340h150l120 -240l120 240h150v-340h-120v210l-105 -210h-90l-105 210v-210h-120z" />
    <glyph glyph-name="uni2126" unicode="&#x2126;" 
d="M50 0v85h95c-45 45 -75 115 -75 215v60c0 235 150 300 350 300h50c200 0 350 -65 350 -300v-60c0 -100 -30 -170 -75 -215h95v-85h-345v85c110 0 175 40 175 200v90c0 160 -65 200 -175 200h-100c-110 0 -175 -40 -175 -200v-90c0 -160 65 -200 175 -200v-85h-345z" />
    <glyph glyph-name="estimated" unicode="&#x212e;" horiz-adv-x="700" 
d="M60 240c0 133 130 240 290 240s290 -108 290 -240v-15h-440v-133c41 -26 93 -42 150 -42c66 0 126 21 169 55h71c-52 -63 -140 -105 -240 -105c-160 0 -290 108 -290 240zM200 275h300v113c-41 26 -93 42 -150 42s-109 -16 -150 -42v-113z" />
    <glyph glyph-name="oneeighth" unicode="&#x215b;" horiz-adv-x="1030" 
d="M550 90v30c0 45 40 60 60 65c-20 5 -60 20 -60 65c0 90 80 90 160 90h100c80 0 160 0 160 -90c0 -45 -40 -60 -60 -65c20 -5 60 -20 60 -65v-30c0 -90 -80 -90 -160 -90h-100c-80 0 -160 0 -160 90zM670 85c0 -25 20 -25 40 -25h100c20 0 40 0 40 25v45
c0 25 -20 25 -40 25h-100c-20 0 -40 0 -40 -25v-45zM670 240c0 -25 20 -25 40 -25h100c20 0 40 0 40 25v15c0 25 -20 25 -40 25h-100c-20 0 -40 0 -40 -25v-15zM210 0l330 660h120l-330 -660h-120zM60 600v60h220v-340h-120v280h-100z" />
    <glyph glyph-name="threeeighths" unicode="&#x215c;" horiz-adv-x="1190" 
d="M710 90v30c0 45 40 60 60 65c-20 5 -60 20 -60 65c0 90 80 90 160 90h100c80 0 160 0 160 -90c0 -45 -40 -60 -60 -65c20 -5 60 -20 60 -65v-30c0 -90 -80 -90 -160 -90h-100c-80 0 -160 0 -160 90zM830 85c0 -25 20 -25 40 -25h100c20 0 40 0 40 25v45
c0 25 -20 25 -40 25h-100c-20 0 -40 0 -40 -25v-45zM830 240c0 -25 20 -25 40 -25h100c20 0 40 0 40 25v15c0 25 -20 25 -40 25h-100c-20 0 -40 0 -40 -25v-15zM370 0l330 660h120l-330 -660h-120zM60 320v60h260c20 0 40 0 40 25v45c0 25 -20 25 -40 25h-200v60h200
c20 0 40 0 40 25v15c0 25 -20 25 -40 25h-260v60h260c80 0 160 0 160 -90c0 -45 -40 -60 -60 -65c20 -5 60 -20 60 -65v-30c0 -90 -80 -90 -160 -90h-260z" />
    <glyph glyph-name="fiveeighths" unicode="&#x215d;" horiz-adv-x="1190" 
d="M710 90v30c0 45 40 60 60 65c-20 5 -60 20 -60 65c0 90 80 90 160 90h100c80 0 160 0 160 -90c0 -45 -40 -60 -60 -65c20 -5 60 -20 60 -65v-30c0 -90 -80 -90 -160 -90h-100c-80 0 -160 0 -160 90zM830 85c0 -25 20 -25 40 -25h100c20 0 40 0 40 25v45
c0 25 -20 25 -40 25h-100c-20 0 -40 0 -40 -25v-45zM830 240c0 -25 20 -25 40 -25h100c20 0 40 0 40 25v15c0 25 -20 25 -40 25h-100c-20 0 -40 0 -40 -25v-15zM370 0l330 660h120l-330 -660h-120zM60 320v60h260c20 0 40 0 40 25v45c0 25 -20 25 -40 25h-260v185h400v-60
h-280v-65h140c80 0 160 0 160 -90v-35c0 -90 -80 -90 -160 -90h-260z" />
    <glyph glyph-name="seveneighths" unicode="&#x215e;" horiz-adv-x="1110" 
d="M630 90v30c0 45 40 60 60 65c-20 5 -60 20 -60 65c0 90 80 90 160 90h100c80 0 160 0 160 -90c0 -45 -40 -60 -60 -65c20 -5 60 -20 60 -65v-30c0 -90 -80 -90 -160 -90h-100c-80 0 -160 0 -160 90zM750 85c0 -25 20 -25 40 -25h100c20 0 40 0 40 25v45
c0 25 -20 25 -40 25h-100c-20 0 -40 0 -40 -25v-45zM750 240c0 -25 20 -25 40 -25h100c20 0 40 0 40 25v15c0 25 -20 25 -40 25h-100c-20 0 -40 0 -40 -25v-15zM290 0l330 660h120l-330 -660h-120zM60 600v60h420v-60l-180 -280h-130l180 280h-290z" />
    <glyph glyph-name="partialdiff" unicode="&#x2202;" horiz-adv-x="700" 
d="M60 115v205c0 115 100 115 200 115h240c0 130 -190 150 -390 150v75c390 0 530 -70 530 -250v-295c0 -115 -100 -115 -200 -115h-180c-100 0 -200 0 -200 115zM200 105c0 -30 25 -30 50 -30h200c25 0 50 0 50 30v225c0 30 -25 30 -50 30h-200c-25 0 -50 0 -50 -30v-225z
" />
    <glyph glyph-name="uni2206" unicode="&#x2206;" 
d="M20 0l330 660h190l330 -660h-850zM213 86h464l-232 464z" />
    <glyph glyph-name="product" unicode="&#x220f;" 
d="M70 0v660h750v-660h-150v575h-450v-575h-150z" />
    <glyph glyph-name="summation" unicode="&#x2211;" 
d="M70 -140l355 360l-355 355v85h750v-85h-570l355 -355l-355 -360h570v-85h-750v85z" />
    <glyph glyph-name="minus" unicode="&#x2212;" horiz-adv-x="700" 
d="M60 190v100h580v-100h-580z" />
    <glyph glyph-name="uni2215" unicode="&#x2215;" horiz-adv-x="90" 
d="M-180 0l330 660h120l-330 -660h-120z" />
    <glyph glyph-name="uni2219" unicode="&#x2219;" horiz-adv-x="300" 
d="M75 220v120h150v-120h-150z" />
    <glyph glyph-name="radical" unicode="&#x221a;" horiz-adv-x="700" 
d="M60 310v75h210l90 -270l210 630h110l-255 -765h-140l-110 330h-115z" />
    <glyph glyph-name="infinity" unicode="&#x221e;" horiz-adv-x="930" 
d="M60 205v110c0 115 100 115 200 115h65c60 0 110 0 140 -30c30 30 80 30 140 30h65c100 0 200 0 200 -115v-110c0 -115 -100 -115 -200 -115h-65c-60 0 -110 0 -140 30c-30 -30 -80 -30 -140 -30h-65c-100 0 -200 0 -200 115zM180 205c0 -55 50 -55 100 -55h20
c50 0 100 0 100 55v110c0 55 -50 55 -100 55h-20c-50 0 -100 0 -100 -55v-110zM530 205c0 -55 50 -55 100 -55h20c50 0 100 0 100 55v110c0 55 -50 55 -100 55h-20c-50 0 -100 0 -100 -55v-110z" />
    <glyph glyph-name="orthogonal" unicode="&#x221f;" horiz-adv-x="780" 
d="M60 0v660h100v-560h560v-100h-660z" />
    <glyph glyph-name="integral" unicode="&#x222b;" horiz-adv-x="420" 
d="M0 -150h90c25 0 50 0 50 30v665c0 115 100 115 200 115h80v-75h-90c-25 0 -50 0 -50 -30v-665c0 -115 -100 -115 -200 -115h-80v75z" />
    <glyph glyph-name="approxequal" unicode="&#x2248;" horiz-adv-x="700" 
d="M60 85v85c60 30 120 60 180 60c50 0 95 -25 130 -50c41 -29 80 -55 125 -55c50 0 105 20 145 40v-85c-60 -30 -120 -60 -180 -60c-50 0 -95 25 -130 50c-41 29 -80 55 -125 55c-50 0 -105 -20 -145 -40zM60 315v85c60 30 120 60 180 60c50 0 95 -25 130 -50
c41 -29 80 -55 125 -55c50 0 105 20 145 40v-85c-60 -30 -120 -60 -180 -60c-50 0 -95 25 -130 50c-41 29 -80 55 -125 55c-50 0 -105 -20 -145 -40z" />
    <glyph glyph-name="notequal" unicode="&#x2260;" horiz-adv-x="700" 
d="M440 525l80 -40l-40 -80h160v-100h-210l-65 -130h275v-100h-325l-60 -120l-80 40l40 80h-155v100h205l65 130h-270v100h320z" />
    <glyph glyph-name="lessequal" unicode="&#x2264;" horiz-adv-x="750" 
d="M60 0v100h630v-100h-630zM60 290v100l630 170v-100l-480 -120l480 -120v-100z" />
    <glyph glyph-name="greaterequal" unicode="&#x2265;" horiz-adv-x="750" 
d="M60 0v100h630v-100h-630zM60 120v100l480 120l-480 120v100l630 -170v-100z" />
    <glyph glyph-name="lozenge" unicode="&#x25ca;" horiz-adv-x="560" 
d="M60 330l165 330h110l165 -330l-165 -330h-110zM170 330l110 -220l110 220l-110 220z" />
    <glyph glyph-name="uniFB00" unicode="&#xfb00;" horiz-adv-x="900" 
d="M500 0v545c0 115 100 115 200 115h140v-75h-150c-25 0 -50 0 -50 -30v-75h200v-75h-200v-405h-140zM60 0v545c0 115 100 115 200 115h140v-75h-150c-25 0 -50 0 -50 -30v-75h200v-75h-200v-405h-140z" />
    <glyph glyph-name="uniFB01" unicode="&#xfb01;" horiz-adv-x="700" 
d="M500 0v480h140v-480h-140zM500 560v100h140v-100h-140zM60 0v545c0 115 100 115 200 115h140v-75h-150c-25 0 -50 0 -50 -30v-75h200v-75h-200v-405h-140z" />
    <glyph glyph-name="uniFB02" unicode="&#xfb02;" horiz-adv-x="700" 
d="M500 0v660h140v-660h-140zM60 0v545c0 115 100 115 200 115h140v-75h-150c-25 0 -50 0 -50 -30v-75h200v-75h-200v-405h-140z" />
    <glyph glyph-name="uniFB03" unicode="&#xfb03;" horiz-adv-x="1140" 
d="M940 0v480h140v-480h-140zM940 560v100h140v-100h-140zM500 0v545c0 115 100 115 200 115h140v-75h-150c-25 0 -50 0 -50 -30v-75h200v-75h-200v-405h-140zM60 0v545c0 115 100 115 200 115h140v-75h-150c-25 0 -50 0 -50 -30v-75h200v-75h-200v-405h-140z" />
    <glyph glyph-name="uniFB04" unicode="&#xfb04;" horiz-adv-x="1140" 
d="M940 0v660h140v-660h-140zM500 0v545c0 115 100 115 200 115h140v-75h-150c-25 0 -50 0 -50 -30v-75h200v-75h-200v-405h-140zM60 0v545c0 115 100 115 200 115h140v-75h-150c-25 0 -50 0 -50 -30v-75h200v-75h-200v-405h-140z" />
    </font>
</defs>
</svg>
