<?xml version="1.0" encoding="utf-8" standalone="no"?>
<!-- Generator: Adobe Illustrator 18.1.0, SVG Export Plug-In . SVG Version: 6.00 Build 0)  -->
<svg version="1.1" id="图层_1" xmlns="http://www.w3.org/2000/svg" xmlns:xlink="http://www.w3.org/1999/xlink" x="0px" y="0px" viewBox="0,0,1400,1200"  preserveAspectRatio="xMinYMin meet"
	>
<g id="云">
	<g>
		<polygon fill="#EFEFEF" points="128.556,253.389 128.488,231.787 2.421,145.722 2.488,161.658 		"/>
		<polygon fill="#EFEFEF" points="128.421,253.389 128.488,231.787 254.556,145.722 254.488,161.658 		"/>
		<polygon fill="#FFFFFF" stroke="#E4E4E4" stroke-width="3" stroke-miterlimit="10" points="254.556,145.722 128.488,231.787 
			2.421,145.722 128.488,83.993 		"/>
	</g>
	<path fill="#FFFFFF" stroke="#266CD3" stroke-width="3" stroke-miterlimit="10" d="M174.334,100.046
		c-1.401,0-2.77,0.257-4.101,0.726c0.697-5.308,1.075-10.848,1.075-16.553c0-38.566-16.882-69.83-37.708-69.83
		c-14.14,0-26.455,14.422-32.909,35.747c-4.02-7.162-9.383-11.539-15.274-11.539c-12.47,0-22.578,19.592-22.578,43.76
		c0,20.433,7.226,37.592,16.995,42.409l87.284,60.008v-0.41c2.267,1.465,4.691,2.272,7.216,2.272
		c12.47,0,22.578-19.383,22.578-43.294C196.912,119.429,186.803,100.046,174.334,100.046z"/>
	<path fill="#CADCF2" stroke="#266CD3" stroke-width="3" stroke-miterlimit="10" d="M161.552,104.915
		c-1.401,0-2.77,0.257-4.101,0.726c0.697-5.308,1.075-10.848,1.075-16.553c0-38.566-16.882-69.83-37.708-69.83
		c-14.14,0-26.455,14.422-32.909,35.747c-4.02-7.162-9.383-11.539-15.274-11.539c-12.47,0-22.578,19.592-22.578,43.76
		c0,20.433,7.226,37.592,16.995,42.409l87.284,60.008v-0.41c2.267,1.465,4.691,2.272,7.216,2.272
		c12.47,0,22.578-19.383,22.578-43.294C184.131,124.299,174.022,104.915,161.552,104.915z"/>
	<path fill="none" stroke="#266CD3" stroke-width="5" stroke-miterlimit="10" d="M174.334,100.046c-1.401,0-2.77,0.257-4.101,0.726
		c0.697-5.308,1.075-10.848,1.075-16.553c0-38.566-16.882-69.83-37.708-69.83c-4.91,0-9.598,1.742-13.899,4.905
		c-10.407,0.562-19.75,8.938-26.391,22.066c-2.457-1.779-5.115-2.763-7.893-2.763c-3.816,0-7.408,1.842-10.559,5.08
		c-0.731-0.139-1.472-0.211-2.222-0.211c-12.47,0-22.578,19.592-22.578,43.76c0,20.433,7.307,37.592,17.076,42.409l87.366,60.008
		v-0.41c2,1.465,4.609,2.272,7.134,2.272c3.836,0,7.407-1.84,10.57-5.077c0.714,0.132,1.417,0.208,2.15,0.208
		c12.47,0,22.568-19.384,22.568-43.294S186.803,100.046,174.334,100.046z"/>
	<g>
		<g>
			<path fill="#266CD3" d="M75.743,100.343c-2.552-1.533-4.701-5.224-4.701-9.736c0-4.128,2.015-5.799,4.768-4.145
				c1.142,0.686,2.351,2.036,3.324,3.869l2.586-2.335c-1.813-3.633-3.627-5.682-5.977-7.094c-4.802-2.884-8.798-1.156-8.798,7.245
				s3.996,14.929,8.798,17.813c2.451,1.472,4.466,1.626,6.38,0.088l-2.754-5.494C78.362,101.388,77.052,101.13,75.743,100.343z
				 M83.935,110.159l4.063,2.44V79.045l-4.063-2.44V110.159z M99.38,95.29c-5.272-3.166-8.563,0.426-8.563,7.194
				c0,6.817,3.224,14.273,8.596,17.5c5.373,3.227,8.63-0.337,8.63-7.154C108.044,106.062,104.652,98.456,99.38,95.29z
				 M99.414,114.608c-2.989-1.795-4.5-6.063-4.5-9.663c0-3.552,1.545-6.081,4.5-4.306c2.754,1.654,4.5,6.159,4.5,9.711
				C103.914,113.95,102.403,116.403,99.414,114.608z M123.287,122.225c0,3.6-1.712,5.596-4.231,4.083
				c-2.619-1.573-3.996-5.136-3.996-8.736v-12.385l-4.097-2.46v12.433c0,7.345,2.888,13.351,6.85,15.731
				c2.317,1.392,3.895,1.187,5.608-0.184l0.269,3.378l3.66,2.198v-23.714l-4.063-2.44
				C123.287,110.129,123.287,122.225,123.287,122.225z M144.071,112.722v13.105c-0.974-3.033-3.694-6.011-5.44-7.06
				c-4.836-2.904-8.429-0.838-8.429,7.323c0,7.777,3.66,14.583,8.529,17.508c2.015,1.21,4.063,1.48,5.339-0.586l0.269,3.426
				l3.828,2.299v-33.555L144.071,112.722z M139.001,138.335c-2.619-1.573-4.701-5.656-4.701-9.784c0-4.272,2.082-5.662,4.701-4.089
				c2.586,1.553,4.802,5.668,4.802,9.797C143.802,138.531,141.586,139.888,139.001,138.335z"/>
		</g>
	</g>
</g>
</svg>

