<?xml version="1.0" encoding="utf-8"?>
<!-- Generator: Adobe Illustrator 18.1.0, SVG Export Plug-In . SVG Version: 6.00 Build 0)  -->
<svg version="1.1" id="图层_1" xmlns="http://www.w3.org/2000/svg" xmlns:xlink="http://www.w3.org/1999/xlink" x="0px" y="0px" viewBox="0,0,1400,1200"  preserveAspectRatio="xMinYMin meet"
	 >
<g id="管理交换机">
	<g>
		<polygon fill="#EFEFEF" points="128.556,253.389 128.488,231.787 2.421,145.722 2.488,161.658 		"/>
		<polygon fill="#EFEFEF" points="128.421,253.389 128.488,231.787 254.556,145.722 254.488,161.658 		"/>
		<polygon fill="#FFFFFF" stroke="#E4E4E4" stroke-width="3" stroke-miterlimit="10" points="254.556,145.722 128.488,231.787 
			2.421,145.722 128.488,83.993 		"/>
	</g>
	<g>
		<path fill="none" stroke="#266CD3" stroke-width="5" stroke-miterlimit="10" d="M218.686,67.219l-93.132-45.611L32.412,69.219
			l0.292,67.37c0.048,3.26,1.714,6.294,4.4,8.142l88.396,60.785v0.706l88.616-60.991c2.686-1.848,4.29-4.882,4.339-8.142
			l0.241-69.371"/>
		<polygon fill="#FFFFFF" stroke="#266CD3" stroke-width="3" stroke-miterlimit="10" points="218.722,67.219 125.572,125.811 
			32.421,69.219 125.572,21.608 		"/>
		<path fill="#CADCF2" stroke="#266CD3" stroke-width="3" stroke-miterlimit="10" d="M125.722,205.722l-0.15-78.911l-93.15-57.592
			l0.287,67.37c0.048,3.26,1.673,6.294,4.359,8.142L125.722,205.722z"/>
		<path fill="#CADCF2" stroke="#266CD3" stroke-width="3" stroke-miterlimit="10" d="M125.421,206.222l0.15-79.911l93.15-58.592
			l-0.287,69.371c-0.048,3.26-1.673,6.294-4.359,8.142L125.421,206.222z"/>
		<ellipse fill="#F7B90D" cx="41.25" cy="90" rx="2.75" ry="5.5"/>
		<ellipse fill="#266CD3" cx="49.25" cy="96" rx="2.75" ry="5.5"/>
		<ellipse fill="#266CD3" cx="59.25" cy="102" rx="2.75" ry="5.5"/>
	</g>
	<line fill="none" stroke="#266CD3" stroke-width="3" stroke-miterlimit="10" x1="67.667" y1="107" x2="118.333" y2="137.667"/>
	<line fill="none" stroke="#266CD3" stroke-width="3" stroke-miterlimit="10" x1="79" y1="125.667" x2="118.333" y2="149.667"/>
</g>
</svg>
