<?xml version="1.0" encoding="utf-8"?>
<!-- Generator: Adobe Illustrator 22.0.1, SVG Export Plug-In . SVG Version: 6.00 Build 0)  -->
<svg version="1.1" id="图层_1" xmlns="http://www.w3.org/2000/svg" xmlns:xlink="http://www.w3.org/1999/xlink" x="0px" y="0px"
	 viewBox="0 0 125 48" style="enable-background:new 0 0 125 48;" xml:space="preserve">
<style type="text/css">
	.st0{fill:#AF1E24;}
	.st1{fill:#FFFFFF;}
</style>
<g id="LOGO1">
	<g id="LOGO">
		<g>
			<path class="st0" d="M14,19.7c1.7,0,3.2,1.4,3.2,3.2S15.8,26,14,26s-3.2-1.4-3.2-3.2S12.3,19.7,14,19.7z"/>
			<path class="st0" d="M18.1,23.8c1.7,0,3.2,1.4,3.2,3.2c0,1.7-1.4,3.2-3.2,3.2S15,28.7,15,26.9C15,25.2,16.4,23.8,18.1,23.8z"/>
			<path class="st0" d="M10.9,22.8h5.7v7.3c0,0-4.2,0-5.4,0c-0.2,0-2,0-2,0s1.6-1.3,1.7-3.7C10.9,26.2,10.9,22.8,10.9,22.8z"/>
			<rect x="14.3" y="26.3" class="st0" width="3.8" height="3.8"/>
		</g>
		<g>
			<g>
				<path class="st1" d="M18.4,22.6c-0.2-2.3-2-4.1-4.4-4.1s-4.4,2-4.4,4.4c0,0,0,1.7,0,3.9c-0.2,2.6-3.9,4.6-3.9,4.6s4.5,0,5.4,0
					c2.5,0,7,0,7,0c2.4,0,4.4-2,4.4-4.4S20.7,22.7,18.4,22.6z M18.1,30.1h-1.6l0,0c0,0-4.2,0-5.4,0c-0.2,0-2,0-2,0s1.6-1.3,1.7-3.7
					c0-0.2,0-3.5,0-3.5c0-1.7,1.4-3.2,3.2-3.2c1.7,0,3.2,1.4,3.2,3.2c0,0.4-0.1,0.8-0.2,1.2c0.4-0.1,0.8-0.2,1.2-0.2
					c1.7,0,3.2,1.4,3.2,3.2S19.9,30.1,18.1,30.1z"/>
			</g>
		</g>
		<g>
			<g>
				<path class="st1" d="M5.2,30.1c-2.1,0-3.8-1.7-3.8-3.8C1.4,25,2,23.9,3,23.2c0-0.3,0-0.6,0-0.9c0-0.2,0-0.3,0-0.5
					c-1.7,0.8-2.8,2.5-2.8,4.5c0,2.8,2.2,5,5,5V30.1z"/>
			</g>
		</g>
		<g>
			<g>
				<path class="st1" d="M9.6,26.3c0,2.1-1.7,3.8-3.8,3.8l0,0c0,0.2,0,0.3,0,0.5c0,0.3,0,0.5-0.1,0.8c0,0,0,0,0.1,0c2.8,0,5-2.3,5-5
					L9.6,26.3L9.6,26.3z"/>
			</g>
		</g>
		<g>
			<g>
				<path class="st1" d="M6.5,25.1c-0.6-0.7-0.9-1.7-0.9-2.7c0-2.4,2-4.4,4.4-4.4c0.3,0,0.6,0,0.9,0.1c0.5-0.3,1.1-0.6,1.7-0.7
					c-0.8-0.4-1.7-0.7-2.6-0.7c-3.1,0-5.7,2.5-5.7,5.7c0,1.4,0.5,2.7,1.4,3.7C5.9,25.8,6.2,25.5,6.5,25.1z"/>
			</g>
		</g>
		<rect x="5.1" y="30.1" class="st1" width="1.2" height="1.3"/>
	</g>
	<g id="字母_1_">
		<g>
			<path class="st1" d="M39.5,31h-3.3l-1.1-3.2H30L29,31h-3.2l5.1-14h3.5L39.5,31z M34.5,25.5l-1.6-4.9c-0.1-0.3-0.2-0.7-0.2-1.2
				h-0.1c0,0.4-0.1,0.8-0.2,1.2l-1.6,4.9H34.5z"/>
			<path class="st1" d="M58.8,17L55,31h-3.3l-2.4-9.2c-0.1-0.5-0.2-1-0.2-1.6l0,0c-0.1,0.6-0.1,1.1-0.3,1.6L46.4,31h-3.5l-3.7-14
				h3.3l2.1,9.5c0.1,0.4,0.2,0.9,0.2,1.6h0.1c0-0.5,0.1-1,0.3-1.6l2.6-9.5H51l2.4,9.6c0.1,0.4,0.2,0.9,0.2,1.5l0,0
				c0-0.5,0.1-1,0.2-1.5l2-9.5h3V17z"/>
			<path class="st1" d="M70.6,30.5c-1,0.5-2.4,0.8-4,0.8c-2.1,0-3.8-0.6-5-1.9s-1.9-3-1.9-5.1c0-2.2,0.7-4,2.1-5.4
				c1.4-1.4,3.2-2.1,5.4-2.1c1.4,0,2.5,0.2,3.4,0.5v2.9c-0.9-0.6-2-0.8-3.2-0.8c-1.4,0-2.5,0.4-3.3,1.3c-0.8,0.9-1.2,2-1.2,3.4
				s0.4,2.5,1.2,3.3c0.8,0.8,1.8,1.3,3.2,1.3c1.3,0,2.4-0.3,3.4-0.9L70.6,30.5L70.6,30.5z"/>
			<path class="st1" d="M81.3,31h-8.2V17h3v11.6h5.3V31H81.3z"/>
			<path class="st1" d="M81.9,24.2c0-2.2,0.6-4,1.9-5.4s3-2.1,5.1-2.1c2,0,3.6,0.7,4.8,2c1.2,1.3,1.8,3.1,1.8,5.2
				c0,2.2-0.6,4-1.9,5.3c-1.3,1.4-2.9,2-5,2c-2,0-3.6-0.7-4.9-2C82.5,28,81.9,26.3,81.9,24.2z M85,24c0,1.4,0.3,2.5,1,3.4
				s1.6,1.3,2.7,1.3c1.2,0,2.1-0.4,2.7-1.2c0.7-0.8,1-1.9,1-3.4s-0.3-2.6-1-3.5c-0.6-0.8-1.5-1.3-2.7-1.3s-2.1,0.4-2.8,1.3
				C85.3,21.5,85,22.7,85,24z"/>
			<path class="st1" d="M109.3,25c0,4.2-1.9,6.3-5.8,6.3c-3.8,0-5.6-2-5.6-6.1V17h3v8.2c0,2.3,0.9,3.5,2.8,3.5
				c1.8,0,2.7-1.1,2.7-3.4V17h3L109.3,25L109.3,25z"/>
			<path class="st1" d="M112.4,31V17h4.9c5,0,7.5,2.3,7.5,6.8c0,2.2-0.7,3.9-2.1,5.2c-1.4,1.3-3.2,2-5.4,2H112.4z M115.3,19.4v9.1
				h1.6c1.4,0,2.5-0.4,3.3-1.3c0.8-0.8,1.2-2,1.2-3.4s-0.4-2.5-1.3-3.3c-0.8-0.8-1.9-1.2-3.3-1.2L115.3,19.4L115.3,19.4z"/>
		</g>
	</g>
</g>
</svg>
