<?xml version="1.0" encoding="utf-8"?>
<!-- Generator: Adobe Illustrator 22.0.1, SVG Export Plug-In . SVG Version: 6.00 Build 0)  -->
<svg version="1.1" id="图层_1" xmlns="http://www.w3.org/2000/svg" xmlns:xlink="http://www.w3.org/1999/xlink" x="0px" y="0px"
	 viewBox="0 0 125 48" style="enable-background:new 0 0 125 48;" xml:space="preserve">
<style type="text/css">
	.st0{fill:#F7F8F8;}
	.st1{fill:#A7D398;}
	.st2{fill:#EFEFEF;}
	.st3{clip-path:url(#SVGID_2_);fill:#EFEFEF;}
	.st4{fill:#FFFFFF;}
	.st5{clip-path:url(#SVGID_4_);fill:#FFFFFF;}
</style>
<g>
	<g>
		<path class="st0" d="M55.4,25.1l-0.2-6.6c0-0.3-0.1-0.5-0.3-0.7c-0.1-0.1-0.1-0.1-0.1-0.2l0.1-0.4c0-0.1,0.1-0.2,0.2-0.2l2.5,0
			c0.1,0,0.2,0,0.1,0.1l-0.1,0.4c0,0.1-0.1,0.1-0.2,0.2C57.2,17.9,57,18,57,18.2c0,0.1,0,0.3,0,0.4L57,22l1.6-3.2
			c0.1-0.1,0.1-0.2,0.1-0.3c0-0.2,0-0.4-0.3-0.6c-0.1-0.1-0.2-0.2-0.2-0.2l0.1-0.4c0-0.1,0.1-0.1,0.2-0.1l2,0c0.1,0,0.2,0,0.1,0.1
			l-0.1,0.4c0,0.1-0.1,0.1-0.2,0.2c-0.3,0.2-0.6,0.5-0.8,0.9l-2.9,5.9c-0.5,1-0.9,1.7-1.1,2.1c-0.3,0.3-0.6,0.6-0.9,0.8
			c-0.4,0.2-0.7,0.3-1.1,0.3c-0.3,0-0.6-0.1-0.8-0.2c-0.2-0.2-0.2-0.4-0.2-0.6c0.1-0.3,0.2-0.4,0.4-0.6c0.2-0.1,0.4-0.2,0.7-0.2
			c0.2,0,0.6,0.1,0.9,0.4C54.8,26.2,55.2,25.8,55.4,25.1z"/>
		<path class="st0" d="M59.4,26.6l1.9-8.1c0.1-0.3,0-0.5-0.2-0.7c-0.1-0.1-0.1-0.1-0.1-0.2l0.1-0.3c0-0.1,0.1-0.2,0.2-0.2l2.2-0.1
			l-0.2,0.8c0.6-0.6,1.2-0.9,1.8-0.9c0.7,0,1.1,0.4,1.3,1.1c0.2,0.7,0.1,1.7-0.1,2.9c-0.2,0.9-0.5,1.6-0.8,2.4
			c-0.3,0.7-0.7,1.3-1,1.6c-0.4,0.3-0.8,0.5-1.2,0.5c-0.6,0-1.1-0.2-1.4-0.7l-0.5,2c-0.1,0.3,0,0.5,0.1,0.6c0.1,0.1,0.1,0.1,0.1,0.2
			l-0.1,0.5c0,0.1-0.1,0.1-0.1,0.1l-2.5,0c-0.1,0-0.1,0-0.1-0.1l0.1-0.5c0-0.1,0.1-0.1,0.2-0.2C59.1,27.1,59.3,26.9,59.4,26.6z
			 M63.1,18.4l-1.3,5.4c0.2,0.3,0.4,0.4,0.7,0.4c0.3,0,0.6-0.2,0.8-0.7c0.2-0.4,0.5-1.3,0.8-2.6c0.3-1.2,0.4-2,0.3-2.3
			c-0.1-0.4-0.2-0.6-0.5-0.6C63.7,18,63.4,18.2,63.1,18.4z"/>
		<path class="st0" d="M71.6,23.1c-0.5,1.5-1.4,2.3-2.8,2.3c-0.9,0-1.5-0.3-1.9-1c-0.4-0.7-0.4-1.7-0.1-3.1c0.3-1.4,0.8-2.4,1.5-3.2
			c0.7-0.8,1.4-1.2,2.3-1.2c0.7,0,1.3,0.3,1.6,0.9c0.3,0.6,0.4,1.4,0.1,2.4l-0.2,0.7c0,0.1-0.1,0.2-0.3,0.2L69,21l-0.2,0.7
			c-0.2,0.8-0.2,1.4-0.2,1.8c0.1,0.4,0.3,0.6,0.7,0.6c0.5,0,0.9-0.4,1.3-1.3L71.6,23.1z M70.6,20.1l0.3-1.2c0.2-0.8,0.1-1.2-0.4-1.2
			c-0.4,0-0.8,0.5-1,1.6l-0.2,0.8L70.6,20.1z"/>
		<path class="st0" d="M75.4,18.8c0.7-1.2,1.4-1.9,2.2-1.9c0.3,0,0.5,0.1,0.6,0.3c0.1,0.2,0.2,0.4,0.1,0.7c-0.1,0.3-0.2,0.5-0.4,0.7
			c-0.2,0.2-0.4,0.3-0.7,0.3c-0.3,0-0.5-0.1-0.7-0.4c-0.6,0.7-1,1.5-1.2,2.4l-0.7,2.9c-0.1,0.3,0,0.5,0.2,0.7
			c0.1,0.1,0.1,0.1,0.1,0.2L74.8,25c0,0.1-0.1,0.1-0.2,0.1l-2.6,0c-0.1,0-0.1,0-0.1-0.1l0.1-0.5c0-0.1,0.1-0.1,0.2-0.1
			c0.2-0.1,0.4-0.3,0.4-0.5l1.2-5.3c0.1-0.3,0-0.6-0.1-0.8c-0.1-0.1-0.1-0.1-0.1-0.2l0.1-0.4c0-0.1,0.1-0.2,0.3-0.2l1.7,0L75.4,18.8
			z"/>
	</g>
	<g>
		<path class="st0" d="M52.6,18.9l-2.7,13.2c-0.1,0.4,0,0.7,0.4,0.9c0.2,0.1,0.3,0.3,0.3,0.4l-0.1,0.5c0,0.2-0.2,0.3-0.4,0.3l-4.4,0
			c-0.2,0-0.3-0.1-0.3-0.2l0.1-0.5c0-0.2,0.2-0.3,0.4-0.4c0.4-0.2,0.7-0.5,0.7-0.9l1.3-6.4l-3.3,0l-1.3,6.4c-0.1,0.4,0,0.7,0.4,0.9
			c0.2,0.1,0.3,0.3,0.3,0.4l-0.1,0.5c0,0.2-0.2,0.3-0.4,0.3l-4.4,0c-0.2,0-0.3-0.1-0.3-0.2l0.1-0.5c0-0.2,0.2-0.3,0.5-0.4
			c0.4-0.2,0.6-0.5,0.7-0.9l2.7-13.2c0.1-0.4,0-0.7-0.4-0.9c-0.2-0.1-0.3-0.3-0.3-0.5l0.1-0.5c0-0.2,0.2-0.3,0.4-0.3l4.4,0
			c0.2,0,0.3,0.1,0.3,0.2l-0.1,0.5c0,0.2-0.2,0.3-0.5,0.5c-0.4,0.2-0.6,0.5-0.7,0.9L45,24.1l3.3,0l1.1-5.3c0.1-0.4,0-0.7-0.4-0.9
			c-0.2-0.1-0.3-0.3-0.3-0.5l0.1-0.5c0-0.2,0.2-0.3,0.4-0.3l4.4,0c0.2,0,0.3,0.1,0.3,0.2l-0.1,0.5c0,0.2-0.2,0.3-0.4,0.5
			C52.9,18.2,52.7,18.5,52.6,18.9z"/>
	</g>
	<g>
		<path class="st1" d="M61.2,32.1l1.6-2.5c0,0,0-0.1,0.1-0.1c0-0.1,0-0.2-0.2-0.2c-0.2,0-0.2-0.1-0.2-0.2l0-0.2
			c0-0.1,0.1-0.1,0.2-0.1h1.6c0.2,0,0.2,0,0.2,0.1l0,0.1c0,0-0.1,0.1-0.2,0.1c-0.2,0.1-0.4,0.2-0.5,0.3l-3.2,4.9
			c0,0.1-0.1,0.1-0.2,0.1H60c-0.1,0-0.1,0-0.1-0.1l-0.2-3.3l-2.1,3.3c-0.1,0.1-0.1,0.1-0.2,0.1h-0.3c-0.1,0-0.1,0-0.1-0.1l-0.3-5
			c0-0.1-0.1-0.2-0.3-0.2c-0.1,0-0.1-0.1-0.1-0.1l0.1-0.2c0-0.1,0.1-0.1,0.2-0.1h2c0.1,0,0.1,0,0.1,0.1l-0.1,0.2
			c0,0-0.1,0.1-0.2,0.1c-0.2,0-0.3,0.1-0.3,0.2c0,0,0,0.1,0,0.1l0.1,2.6l1.4-2.2l0-0.5c0-0.1-0.1-0.2-0.3-0.2c-0.1,0-0.1,0-0.1-0.1
			l0.1-0.2c0,0,0.1-0.1,0.1-0.1h2.2c0.1,0,0.1,0,0.1,0.1l0,0.1c0,0.1,0,0.1-0.1,0.1c0,0-0.1,0-0.2,0.1c-0.2,0-0.3,0.1-0.3,0.2
			c0,0,0,0.1,0,0.1L61.2,32.1z"/>
		<path class="st1" d="M65.7,31l-0.9,2.9c0,0.1,0,0.2,0.2,0.3c0.1,0,0.1,0.1,0.1,0.1l0,0.1c0,0-0.1,0.1-0.2,0.1H63
			c-0.1,0-0.1,0-0.1-0.1l0-0.1c0,0,0.1-0.1,0.2-0.1c0.2-0.1,0.3-0.1,0.4-0.3l0.7-2.3c0-0.1,0-0.2-0.2-0.3c-0.1,0-0.1-0.1-0.1-0.1
			l0-0.1c0,0,0.1-0.1,0.2-0.1L65.7,31z M65.5,29.1c0.2,0,0.4,0,0.6,0.1c0.1,0.1,0.2,0.2,0.1,0.3c0,0.1-0.1,0.2-0.3,0.3
			c-0.2,0.1-0.4,0.1-0.6,0.1c-0.2,0-0.4,0-0.6-0.1s-0.2-0.2-0.1-0.3c0-0.1,0.2-0.2,0.3-0.3C65.1,29.1,65.3,29.1,65.5,29.1z"/>
		<path class="st1" d="M68.4,31c0.5,0,0.8,0.1,1.1,0.2s0.4,0.3,0.3,0.5c0,0.1-0.1,0.2-0.3,0.3c-0.2,0.1-0.3,0.1-0.6,0.1
			c-0.2,0-0.3,0-0.4-0.1c-0.1-0.1-0.2-0.1-0.1-0.2c0,0,0-0.1,0.1-0.1c0,0,0.1-0.1,0.1-0.1c0-0.1-0.1-0.1-0.3-0.1
			c-0.2,0-0.3,0-0.5,0.1c-0.2,0.1-0.3,0.2-0.3,0.3c0,0.1,0,0.2,0.1,0.3c0.1,0.1,0.4,0.2,0.9,0.4c0.5,0.2,0.8,0.4,0.9,0.5
			c0.2,0.2,0.2,0.4,0.1,0.6c-0.1,0.3-0.4,0.6-0.8,0.8c-0.5,0.2-1,0.3-1.5,0.3c-0.5,0-0.9-0.1-1.2-0.2c-0.3-0.1-0.4-0.3-0.3-0.5
			c0-0.1,0.1-0.2,0.3-0.3c0.2-0.1,0.4-0.1,0.6-0.1c0.4,0,0.6,0.1,0.6,0.3c0,0,0,0.1-0.1,0.1c0,0.1-0.1,0.1-0.1,0.1
			c0,0.1,0.1,0.2,0.4,0.2c0.2,0,0.5,0,0.6-0.1c0.2-0.1,0.3-0.2,0.3-0.3c0-0.1,0-0.2-0.1-0.3c-0.1-0.1-0.3-0.2-0.7-0.4
			c-0.5-0.2-0.8-0.4-1-0.6c-0.2-0.2-0.2-0.4-0.2-0.6c0.1-0.3,0.4-0.5,0.8-0.7C67.5,31.1,67.9,31,68.4,31z"/>
		<path class="st1" d="M73.7,33.6c-0.3,0.6-1,1-2,1c-0.7,0-1.1-0.1-1.4-0.4c-0.3-0.3-0.4-0.7-0.2-1.3c0.2-0.6,0.5-1,1-1.3
			c0.5-0.3,1-0.5,1.6-0.5c0.6,0,1,0.1,1.2,0.4c0.3,0.3,0.3,0.6,0.2,1L74,32.7c0,0.1-0.1,0.1-0.2,0.1h-2.2L71.6,33
			c-0.1,0.3-0.1,0.6,0,0.8c0.1,0.2,0.3,0.3,0.6,0.3c0.4,0,0.7-0.2,0.9-0.5L73.7,33.6z M72.8,32.3l0.2-0.5c0.1-0.4,0-0.5-0.4-0.5
			c-0.3,0-0.6,0.2-0.7,0.7l-0.1,0.4H72.8z"/>
	</g>
	<g>
		<g>
			<path class="st0" d="M83.9,26.9l3.4-7.8c0.1-0.1,0.1-0.2,0.1-0.3c0.1-0.3-0.1-0.6-0.5-0.7c-0.3-0.1-0.4-0.3-0.4-0.5l0.1-0.6
				c0-0.2,0.2-0.3,0.4-0.3l3.2,0c0.3,0,0.4,0.1,0.3,0.3l-0.1,0.6c0,0.2-0.2,0.3-0.5,0.4c-0.5,0.2-0.8,0.5-1,1l-6.5,15.1
				c-0.1,0.2-0.3,0.3-0.5,0.3l-0.5,0c-0.2,0-0.3-0.1-0.3-0.4l-0.5-15c0-0.5-0.2-0.9-0.6-1.2c-0.2-0.1-0.3-0.3-0.3-0.4L80,17
				c0-0.2,0.2-0.3,0.4-0.3l4.1,0c0.2,0,0.3,0.1,0.3,0.3l-0.1,0.6c0,0.1-0.2,0.3-0.4,0.4c-0.3,0.2-0.5,0.4-0.6,0.6c0,0.1,0,0.2,0,0.3
				L83.9,26.9z"/>
			<path class="st0" d="M93,23.6l-1.8,8.8c-0.1,0.4,0.1,0.7,0.4,0.8c0.1,0.1,0.2,0.2,0.2,0.3l-0.1,0.4c0,0.1-0.1,0.2-0.3,0.2l-3.7,0
				c-0.2,0-0.3-0.1-0.2-0.2l0.1-0.4c0-0.1,0.1-0.3,0.3-0.3c0.4-0.2,0.6-0.4,0.7-0.8l1.4-6.9c0.1-0.4-0.1-0.7-0.4-0.9
				c-0.1-0.1-0.2-0.2-0.2-0.3l0.1-0.4c0-0.1,0.1-0.2,0.3-0.2L93,23.6z M92.8,17.6c0.5,0,0.8,0.1,1.1,0.4c0.3,0.3,0.3,0.6,0.3,1
				c-0.1,0.4-0.3,0.7-0.7,0.9c-0.4,0.3-0.8,0.4-1.2,0.4c-0.4,0-0.8-0.1-1.1-0.4c-0.3-0.3-0.3-0.6-0.3-0.9c0.1-0.4,0.3-0.7,0.7-1
				C92,17.7,92.4,17.6,92.8,17.6z"/>
			<path class="st0" d="M98.3,23.3c0.9,0,1.6,0.2,2,0.5c0.5,0.4,0.7,0.8,0.6,1.4c-0.1,0.3-0.3,0.6-0.6,0.8c-0.3,0.2-0.7,0.3-1.1,0.4
				c-0.3,0-0.6-0.1-0.8-0.2c-0.2-0.2-0.3-0.4-0.2-0.7c0-0.1,0.1-0.3,0.2-0.4c0.1-0.1,0.1-0.2,0.1-0.2c0.1-0.3-0.2-0.4-0.6-0.4
				c-0.3,0-0.7,0.1-1,0.3c-0.3,0.2-0.5,0.5-0.6,0.9c-0.1,0.3,0,0.6,0.2,0.9c0.2,0.3,0.7,0.7,1.6,1.3c0.9,0.6,1.4,1.1,1.7,1.7
				c0.3,0.5,0.4,1.1,0.2,1.7c-0.2,1-0.8,1.8-1.6,2.4c-0.9,0.6-1.9,0.8-2.9,0.8c-1,0-1.8-0.2-2.3-0.6c-0.5-0.4-0.8-0.9-0.6-1.6
				c0.1-0.3,0.3-0.6,0.6-0.9c0.3-0.3,0.7-0.4,1.2-0.4c0.9,0,1.2,0.3,1.1,1c0,0.1-0.1,0.3-0.2,0.4C95,32.6,95,32.7,95,32.7
				c-0.1,0.4,0.2,0.6,0.8,0.5c0.5,0,0.9-0.1,1.3-0.4c0.4-0.3,0.6-0.5,0.6-0.9c0.1-0.4,0-0.7-0.2-1c-0.2-0.3-0.7-0.7-1.3-1.2
				c-0.9-0.7-1.6-1.3-1.9-1.8c-0.3-0.5-0.4-1.1-0.3-1.8c0.2-0.9,0.7-1.6,1.6-2.2C96.4,23.6,97.3,23.3,98.3,23.3z"/>
			<path class="st0" d="M105.6,23.5l-1.8,8.8c-0.1,0.4,0.1,0.7,0.4,0.8c0.1,0.1,0.2,0.2,0.2,0.3l-0.1,0.4c0,0.1-0.1,0.2-0.3,0.2
				l-3.7,0c-0.2,0-0.3-0.1-0.2-0.2l0.1-0.4c0-0.1,0.1-0.3,0.3-0.3c0.4-0.2,0.6-0.4,0.7-0.8l1.4-6.9c0.1-0.4-0.1-0.7-0.4-0.9
				c-0.1-0.1-0.2-0.2-0.2-0.3l0.1-0.4c0-0.1,0.1-0.2,0.3-0.2L105.6,23.5z M105.5,17.6c0.5,0,0.8,0.1,1.1,0.4c0.3,0.3,0.3,0.6,0.3,1
				c-0.1,0.4-0.3,0.7-0.7,0.9c-0.4,0.3-0.8,0.4-1.2,0.4c-0.4,0-0.8-0.1-1.1-0.4c-0.3-0.3-0.3-0.6-0.3-0.9c0.1-0.4,0.3-0.7,0.7-1
				C104.7,17.7,105.1,17.6,105.5,17.6z"/>
			<path class="st0" d="M111.3,23.3c2.8,0,3.8,1.8,3.1,5.6c-0.4,1.8-1,3.1-1.9,4.1c-0.9,1-2,1.4-3.3,1.4c-1.3,0-2.3-0.5-2.8-1.4
				c-0.5-0.9-0.6-2.3-0.2-4.1c0.4-1.9,1-3.3,2-4.2C109.1,23.7,110.1,23.3,111.3,23.3z M111.7,27.7c0.3-1.3,0.3-2.2,0.3-2.6
				s-0.3-0.7-0.8-0.7c-0.8,0-1.3,0.9-1.7,2.7l-0.5,2.5c-0.3,1.3-0.4,2.3-0.3,2.8c0.1,0.5,0.3,0.8,0.8,0.8c0.4,0,0.7-0.2,1-0.6
				c0.3-0.4,0.5-1.1,0.7-2.2L111.7,27.7z"/>
			<path class="st0" d="M115.3,32.3l1.4-7c0.1-0.4,0-0.7-0.4-0.9c-0.1-0.1-0.2-0.2-0.2-0.3l0.1-0.4c0-0.1,0.1-0.2,0.3-0.2l3.2-0.1
				l-0.2,0.9c0.9-0.7,1.8-1,2.7-1c0.7,0,1.1,0.2,1.4,0.6c0.3,0.4,0.4,1,0.2,1.7l-1.4,6.7c0,0.2,0,0.5,0.2,0.7
				c0.1,0.1,0.1,0.2,0.1,0.2l-0.1,0.5c0,0.1-0.1,0.2-0.2,0.2l-3.3,0c-0.2,0-0.2-0.1-0.2-0.2l0.1-0.6c0-0.1,0.1-0.1,0.2-0.2
				c0.3-0.2,0.4-0.3,0.5-0.6l1.4-6.8c0.1-0.5-0.1-0.8-0.5-0.8c-0.4,0-0.9,0.2-1.4,0.7l-1.4,6.9c-0.1,0.3,0,0.5,0.2,0.7
				c0.1,0.1,0.1,0.2,0.1,0.2l-0.1,0.6c0,0.1-0.1,0.1-0.2,0.1l-3.3,0c-0.1,0-0.2-0.1-0.2-0.2l0.1-0.6c0-0.1,0.1-0.1,0.2-0.2
				C115.1,32.9,115.3,32.7,115.3,32.3z"/>
		</g>
	</g>
	<polygon class="st2" points="27.8,19.1 27.8,19.1 27.8,31.6 16.8,37.8 5.8,31.6 5.8,19.1 5.8,19.1 2,17 2,17 2,33.7 16.8,42.1 
		31.6,33.7 31.6,17 31.6,17 	"/>
	<g>
		<defs>
			<polygon id="SVGID_1_" points="2,17 16.8,25.4 31.6,17 16.7,3.6 			"/>
		</defs>
		<clipPath id="SVGID_2_">
			<use xlink:href="#SVGID_1_"  style="overflow:visible;"/>
		</clipPath>
		<path class="st3" d="M16.8,42.1L2,33.7V17l14.8-8.4L31.6,17v16.7L16.8,42.1z M27.8,31.6V19.1l-11-6.2l-11,6.2v12.5l11,6.2
			L27.8,31.6z"/>
	</g>
	<path class="st4" d="M19.5,26.4c0,1.5-1.2,2.6-2.7,2.6c-1.5,0-2.7-1.2-2.7-2.6c0-1.5,1.2-2.6,2.7-2.6
		C18.3,23.7,19.5,24.9,19.5,26.4z M16.8,24.7c-0.9,0-1.7,0.7-1.7,1.6c0,0.9,0.8,1.6,1.7,1.6c0.9,0,1.7-0.7,1.7-1.6
		C18.5,25.5,17.8,24.7,16.8,24.7z"/>
	<g>
		<defs>
			<rect id="SVGID_3_" x="14.9" y="22.4" width="3.8" height="2.3"/>
		</defs>
		<clipPath id="SVGID_4_">
			<use xlink:href="#SVGID_3_"  style="overflow:visible;"/>
		</clipPath>
		<path class="st5" d="M18.8,25.6c0,1-0.9,1.9-1.9,1.9l0,0c-1.1,0-1.9-0.8-1.9-1.9v-1.3c0-1,0.9-1.9,1.9-1.9l0,0
			c1.1,0,1.9,0.8,1.9,1.9V25.6z M17.9,24.5c0-0.6-0.5-1-1-1l0,0c-0.6,0-1,0.5-1,1v0.7c0,0.6,0.5,1,1,1l0,0c0.6,0,1-0.5,1-1V24.5z"/>
	</g>
	<path class="st4" d="M17.3,27c0,0.3-0.2,0.5-0.5,0.5l0,0c-0.3,0-0.5-0.2-0.5-0.5v-1.3c0-0.3,0.2-0.5,0.5-0.5l0,0
		c0.3,0,0.5,0.2,0.5,0.5V27z"/>
	<path class="st4" d="M21.8,21.1c-0.7-1.9-2.7-3.6-5.1-3.6c-3,0-5,2.3-5.3,3.6c-1.6,0.3-4.3,1.9-4.3,5.4c0,3.1,3.1,5.1,5.1,5.2
		l0.1,0l8.3,0c0.2,0,0.3,0,0.5,0c2.7-0.2,5.2-2.5,5.2-5.3C26.1,22.9,23.5,21.5,21.8,21.1z M21.9,30.7c-0.3,0.1-0.6,0.1-0.9,0.1
		c-0.1,0-0.3,0-0.3,0l-8.3,0c0,0-0.1,0-0.1,0c-1.7,0-4.2-1.6-4.1-4.2c0-2.5,1.5-3.9,3-4.4c0,0.3-0.1,0.7,0,1.2
		c0,0.3,0.3,0.5,0.6,0.5c0.3,0,0.5-0.3,0.4-0.6c-0.2-3,2.2-4.7,4.7-4.7c2.5,0,3.7,2.1,3.9,2.5c0,0-0.5,0-0.9,0
		c-0.4,0-0.6,0.1-0.9,0.2c-0.3,0.2-0.4,0.5-0.3,0.7c0.1,0.1,0.4,0.3,0.7,0.2c0.4-0.1,1-0.2,1.4-0.2c2.2,0.1,4.5,1.7,4.4,4.6
		C25,29.3,23,30.4,21.9,30.7z"/>
</g>
</svg>
