<?xml version="1.0" encoding="utf-8"?>
<!-- Generator: Adobe Illustrator 22.0.1, SVG Export Plug-In . SVG Version: 6.00 Build 0)  -->
<svg version="1.1" id="图层_1" xmlns="http://www.w3.org/2000/svg" xmlns:xlink="http://www.w3.org/1999/xlink" x="0px" y="0px"
	 viewBox="0 0 125 48" style="enable-background:new 0 0 125 48;" xml:space="preserve">
<style type="text/css">
	.st0{fill:#EB6301;}
	.st1{fill:#FFFFFF;}
</style>
<path class="st0" d="M45.7,37.3c0,0-1.1-0.2-2.6-0.4c-1.2-0.2-2.8-0.5-4.1-0.5c-3,0-7.8,1.9-12.8,1.9s-10.5-2.5-13-5.5
	c2.5,0.8,4.9-0.4,6.8-2.4c1.7-1.8,2.2-4.6,1.5-7.9c-0.6-3.2-2.5-4-4.4-3.8c-1.1,0.1-2.2,0.5-3,1.3c-0.9,1-1,2.7-0.7,4.3
	c0.5-2.6,2.4-4,4-3.7c1.6,0.2,2.9,3,2,6.6c-0.2,0.5-0.6,1.6-1.7,2.4c-1.2,1-3.1,1.6-4.8,1.6c-2.5-0.1-4.9-1.2-6.8-3.3
	c-1.3-1.5-2.1-3.4-2.4-5.6c-0.3-2,0.5-5.4,2.3-6.8c2.2-1.7,4.6-0.9,5.2-0.4c0.1-3.7,3.4-5.4,6.9-5.4c2.6,0,5.6,1,6.4,4.3
	c0,0,0.9-3.7,7.7-2.1c4.9,1.1,5.2,5.5,3.9,7.4c1.9,0.7,3.8,3.1,2.9,6.6c-0.5,1.6-1.2,4.2-4.6,5c-3.7,0.9-6.8-0.3-8.1-3.1
	c-1.5-3.3-1.1-7.2,1.5-7.5c2.8,0.1,3.1,2.3,3.1,4.2c1.2-0.8,1.2-3.1,0-4.4c-1.3-1.5-3.1-1.8-5.7-0.6c-1.4,0.6-2,2.8-1.8,5.3
	c0.5,3.5,1.3,4.5,1.9,5.3c3.3,4.6,7.9,3.4,10.4,2.9c0.5-0.1,0.9-0.1,1.2-0.1C42.5,32.9,45.7,37.3,45.7,37.3z"/>
<path class="st1" d="M48.7,20.5l-0.9-1.8h-1.7c0.1-0.1,0.2-0.3,0.2-0.4h2.2v-1.5h-1.9c0-0.4,0-0.6,0-0.6h1.8V15h-4.2l0.1-0.5h-1.9
	l-0.6,2.1h1.9l0.1-0.4h0.3c0.2,0,0.3,0.1,0.3,0.3c0,0.1,0,0.3,0,0.4h-2.6v1.5h1.9c-0.7,0.4-1.9,0.6-1.9,0.6s0,1.1,0,1.8
	c0.6-0.1,2.7-0.5,3.7-1.4c0.1-0.1,0.1-0.1,0.2-0.2l0.7,1.4L48.7,20.5L48.7,20.5z"/>
<path class="st1" d="M52.6,14.7h-2c-0.7,0-1.4,0.6-1.4,1.4v4.4H54V16C54,15.3,53.3,14.7,52.6,14.7z M52.2,18.9H51v-2.5h0.7
	c0.3,0,0.5,0.2,0.5,0.5V18.9z"/>
<path class="st1" d="M52.3,21h-8.4c-1.1,0.1-1.7,0.7-1.7,1.7v4h11.6v-4.2C53.8,21.6,53.1,21,52.3,21z M44.2,25.1v-0.6h6.5
	c0.4,0,0.9,0,0.8,0.6H44.2z M51.6,23.1h-7.3v-0.6H51c0.2,0,0.6,0.2,0.6,0.4L51.6,23.1L51.6,23.1z"/>
<path class="st1" d="M66.5,18v-0.5h1.9v-1h-1.9v-0.4h1.9v-1.1h-1.9v-0.5h-2.2v0.5h-1.7v1.1h1.2c0.3,0,0.4,0.1,0.4,0.3v0.1h-1.6v1
	h1.3c0.2,0,0.4,0.2,0.4,0.4V18h-1.8v1.1h1.4c0.2,0,0.4,0.2,0.4,0.4v0.1h-4V19h1.6v-1.1h-1.6v-0.4h1.6v-1h-1.6v-0.4h1.6v-1.1h-1.6
	v-0.5h-2.1v0.5h-1.9v1.1h1.5c0.3,0,0.5,0.1,0.6,0.2v0.2h-1.9v1h1.4c0.1,0,0.5,0.1,0.5,0.2v0.2h-1.9V19h1.5c0.3,0,0.6,0.2,0.6,0.6
	l0,0h-1.9v1.1h9.1c0,0,0.5,0,0.5,0.2v0.2h-9.4v1h9.1c0.2,0,0.4,0.2,0.4,0.4v0.1h-9.7v1.1H66h2.2v-2.9l0,0c0-0.6-0.5-1.1-1.1-1.1
	h-0.6v-0.5h1.9v-1.1L66.5,18L66.5,18z"/>
<path class="st1" d="M56.3,26.6h0.9c0.6,0,1-0.4,1-0.9v-1.9h-1.9V26.6z"/>
<path class="st1" d="M60.8,23.8h-2.1v1.7c0,0.6,0.6,1.2,1.2,1.2h0.9h6.8c0.5,0,0.8-0.4,0.8-0.8v-0.3h-7.3c-0.1,0-0.2-0.1-0.2-0.2
	L60.8,23.8L60.8,23.8z"/>
<path class="st1" d="M68.2,25.2V24c0-0.2-0.2-0.4-0.4-0.4H66l0,0h-0.3l-1.6,0.8c-0.2,0.1-0.4,0-0.4-0.2l-0.3-0.6h-2.4l0.6,1.3
	c0.1,0.2,0.3,0.4,0.6,0.4h1.6c0.1,0,0.2,0,0.2,0l1.9-0.7v0.7L68.2,25.2L68.2,25.2z"/>
<path class="st1" d="M72.9,16h0.3l1.1,1.5c0.2,0.3,0.6,0.4,0.8,0.4h1.3H77h1l0,0h0.4c0.5,0,0.9-0.2,0.9-0.7v-1h0.4l0.9,1.9h2.2
	L82,16.1h0.8v-1.4h-3.4l0,0h-0.6c-0.6,0-1.4,0.4-1.4,1.2v0.6l-0.1,0.3c-0.3,0.6-0.6,0.5-1.2-0.4l-0.3-0.4h1.1v-1.4h-4.1l0,0H72
	c-0.6,0-1.2,0.6-1.2,1.2V18h1.3c0.4,0,0.7-0.2,0.7-0.6L72.9,16L72.9,16z"/>
<path class="st1" d="M79.5,18.1h-2.1v0.6h-0.6v1.8h0.6l-0.3,6h2.1l0.3-6h0.6c0.3,0,0.6,0.2,0.6,0.6v3.6c0,0.1-0.1,0.3-0.3,0.3h-0.3
	v1.7h1.5c0.8,0,1.2-0.5,1.2-1v-5l0,0v-0.4c0-0.7-0.6-1.3-1.3-1.3h-1.9V18.1z"/>
<path class="st1" d="M70.9,26.5h1.9v-1.7h1.6c0.2,0,0.4,0.2,0.4,0.4v1.4h1.1c0.5,0,0.8-0.4,0.8-1v-6c0-0.7-0.5-1.3-1.7-1.3h-2.6
	c-0.7,0-1.5,0.4-1.5,1.3L70.9,26.5L70.9,26.5z M72.7,19.8h1.2c0.6,0,0.7,0.2,0.7,0.5v0.6h-1.9C72.7,20.8,72.7,19.8,72.7,19.8z
	 M72.7,22.3h1.2c0.6,0,0.8,0.2,0.8,0.5v0.5h-1.9L72.7,22.3L72.7,22.3z"/>
<path class="st1" d="M97.3,22.7h-1.8v-8.1h-2.2v8.1h-8.1v1.9h6.5c1.4,0,1.7,0.6,1.7,1v1h2.2v-2.1h1.8V22.7z"/>
<path class="st1" d="M86.4,17.9c-0.5,0.4-0.5,1-0.1,1.5l2,2.5H91L89,19.5c-0.5-0.6-0.1-0.8,0.3-0.8l1.1-0.1l0.3-0.1
	c0.6-0.3,0.6-0.9,0.3-1.4l-2-1.9c-0.3-0.3-0.6-0.4-1-0.4h-2.4l3,2.7l-1,0.1l-0.9,0.1C86.5,17.8,86.4,17.9,86.4,17.9z"/>
<g>
	<rect x="100" y="14.7" class="st1" width="11.1" height="1.8"/>
	<path class="st1" d="M111.3,24.9l-1.8-3.4h-2.4l1.6,3.1c0.1,0.1,0,0.3-0.2,0.3h-6.4l3.2-5h6V18h-12v1.9h3.4l-2.8,4.3
		c-0.6,1-0.1,2.4,1.2,2.4h8.9C111.4,26.6,111.7,25.6,111.3,24.9z"/>
</g>
<path class="st1" d="M45.7,29.3v3.5c0,0.4-0.2,0.4-0.4,0.4h-1.2c-0.3,0-0.5-0.2-0.5-0.5v-3.5h-1.3v3.7c0,0.6,0.3,1,1.6,1h1.5
	c1.3,0,1.6-0.5,1.6-0.9v-3.8L45.7,29.3L45.7,29.3z"/>
<path class="st1" d="M47.8,29.3v4.6h3.5c1,0,1.3-0.5,1.3-1v-2.5c0-0.6-0.4-1.2-1.8-1.2L47.8,29.3L47.8,29.3z M51.3,33.2h-2.1v-3.1
	h0.5c1.2,0,1.6,0.3,1.6,0.6L51.3,33.2L51.3,33.2z"/>
<path class="st1" d="M54.7,31.8v-0.5h2.6v-0.8h-2.6h-0.3c-0.7,0-1,0.4-1,0.7V32c0,0.4,0.3,0.7,1,0.7h1c0.5,0,0.6,0.3,0.6,0.6h-2.7
	V34h3.1c0.7,0,0.9-0.3,0.9-0.6v-0.6c0-0.5-0.2-0.8-1.4-0.8L54.7,31.8L54.7,31.8z"/>
<path class="st1" d="M58.2,31.4H61v0.5h-1.7c-0.8,0-1,0.4-1,0.7v0.8c0,0.4,0.2,0.6,1,0.6h1.3l0.5-0.7l0.5,0.7h0.8v-2.7
	c0-0.5-0.2-0.8-1.4-0.8h-2.7L58.2,31.4L58.2,31.4z M61,33.2h-1.4v-0.6h0.6c0.6,0,0.6,0.2,0.6,0.4L61,33.2L61,33.2z"/>
<path class="st1" d="M88.5,31.4h2.8v0.5h-1.7c-0.8,0-1,0.4-1,0.7v0.8c0,0.4,0.2,0.6,1,0.6h1.2l0.5-0.7l0.5,0.7h0.8v-2.7
	c0-0.5-0.2-0.8-1.4-0.8h-2.7V31.4z M91.3,33.2h-1.4v-0.6h0.7c0.6,0,0.6,0.2,0.6,0.4V33.2z"/>
<path class="st1" d="M78.6,31.4h2.8v0.5h-1.7c-0.8,0-1,0.4-1,0.7v0.8c0,0.4,0.2,0.6,1,0.6H81l0.5-0.7l0.5,0.7h0.8v-2.7
	c0-0.5-0.2-0.8-1.4-0.8h-2.7L78.6,31.4L78.6,31.4z M81.3,33.2h-1.4v-0.6h0.7c0.6,0,0.6,0.2,0.6,0.4V33.2z"/>
<path class="st1" d="M63.5,30.5h-0.6v0.8h0.6V34h1.4v-2.7h0.7v-0.8h-0.7v-0.3c0-0.2,0.2-0.4,0.4-0.4h0.6v-0.6h-1.4
	c-0.5,0-0.8,0.4-0.8,0.8L63.5,30.5z"/>
<path class="st1" d="M67.4,33.9h3v-0.7h-2.8v-0.6h2.8v-1.2c0-0.5-0.4-0.9-1.2-0.9h-1.7c-0.9,0-1.3,0.5-1.3,0.9v1.8
	C66.3,33.7,66.5,33.9,67.4,33.9z M67.7,31.3h0.6c0.4,0,0.7,0.2,0.7,0.5v0.2h-1.4V31.3z"/>
<path class="st1" d="M109.3,33.9h3v-0.7h-2.8v-0.6h2.8v-1.2c0-0.5-0.4-0.9-1.2-0.9h-1.7c-0.9,0-1.3,0.5-1.3,0.9v1.8
	C108.2,33.7,108.5,33.9,109.3,33.9z M109.6,31.3h0.6c0.4,0,0.7,0.2,0.7,0.5v0.2h-1.5L109.6,31.3L109.6,31.3z"/>
<path class="st1" d="M73.2,34h1.3v-1.8h2.1c0.8,0,1.2-0.4,1.2-0.8v-1.1c0-0.6-0.4-0.9-1.3-0.9h-3.3V34z M74.6,30.2h1
	c0.6,0,1,0.3,1,0.7v0.6h-2V30.2z"/>
<path class="st1" d="M104.6,30.5v-1.2h-1.3v3.9c0,0.5,0.3,0.8,1.1,0.8h1.9c0.8,0,1.1-0.4,1.1-0.8v-1.9c0-0.5-0.7-0.9-1.2-0.9
	L104.6,30.5L104.6,30.5z M106.1,33.2h-1.5v-1.9h0.6c0.6,0,0.9,0.3,0.9,0.6V33.2z"/>
<path class="st1" d="M83.4,33.9h1.3v-2.6h0.4c0.9,0,1.2,0.3,1.2,0.6v2h1.3v-2.7c0-0.5-0.4-0.8-1.1-0.8h-1.9c-0.8,0-1.2,0.4-1.2,0.8
	L83.4,33.9L83.4,33.9z"/>
<path class="st1" d="M100.8,33.2H100c-0.2,0-0.4-0.2-0.4-0.4v-2.4h-1.3v2.8c0,0.4,0.2,0.6,0.9,0.6h2c0.9,0,1.1-0.4,1.1-0.8v-2.7
	h-1.3v2.3C101.2,33,101,33.2,100.8,33.2z"/>
<path class="st1" d="M94.9,34h2.8v-0.8h-3V31c0-0.5,0.3-0.8,1.1-0.8h1.9v-0.8h-3.1c-0.8,0-1.2,0.4-1.2,0.9v2.9
	C93.4,33.6,93.7,34,94.9,34z"/>
<path class="st1" d="M116.1,12.2h-1V15h-0.5v-2.8h-1v-0.4h2.5V12.2z"/>
<path class="st1" d="M117.7,15l-0.9-2.6V15h-0.5v-3.1h0.6l0.9,2.7l0.9-2.7h0.6V15h-0.5v-2.6c-0.1,0.2-0.4,1-0.9,2.6
	C118,15,117.7,15,117.7,15z"/>
</svg>
