<?xml version="1.0" encoding="utf-8"?>
<!-- Generator: Adobe Illustrator 22.0.1, SVG Export Plug-In . SVG Version: 6.00 Build 0)  -->
<svg version="1.1" id="图层_1" xmlns="http://www.w3.org/2000/svg" xmlns:xlink="http://www.w3.org/1999/xlink" x="0px" y="0px"
	 viewBox="0 0 125 48" style="enable-background:new 0 0 125 48;" xml:space="preserve">
<style type="text/css">
	.st0{fill-rule:evenodd;clip-rule:evenodd;fill:#FFFFFF;}
	.st1{fill:#FFFFFF;}
</style>
<g>
	<g id="锐捷logo_1_">
		<g>
			<g>
				<path class="st0" d="M30.4,18.3c-0.1,0.5-0.4,1.6-0.5,2.2c3.1-1.2,13.8-3.5,21.5-3.6C43.1,15.5,32.5,17.4,30.4,18.3z M60.9,17.9
					h-3.8l0.6-1.5h-1.8l-1.1,2.9h5.8L60.9,17.9z M65.6,16.5h-2l-0.4,2H65L65.6,16.5z M69.5,16.5h-2.2l-0.5,2h1.9L69.5,16.5z
					 M88.9,17.6c0,0-2.2-0.5-4.7-0.6c0-0.1,0.1-0.6,0.1-0.6h-2.1L82.1,17c0,0-3.2-0.1-4.7,0.3c0-0.2,0.2-0.9,0.2-0.9h-2.2L75,17.6
					c0,0-2.2,0.3-3.5,0.7c-0.1,0.5-0.4,1.7-0.5,1.9c1.6-0.6,3.6-1.1,3.6-1.1l-0.5,2.1l-2.7,0.9l-0.5,2l2.6-0.8l-0.8,3H70l-0.6,1.7
					c0,0,3.1,0,3.7,0s1.2,0,1.5-1c1-3.6,2.3-8.5,2.3-8.5s2.3-0.5,4.8-0.7c0,0.3-0.2,0.9-0.2,0.9h-3.4l-0.3,1.3h3.4l-0.1,0.7h-3.5
					l-0.3,1.4h3.4l-0.1,0.5h-3.5L76.9,24h3.4l-0.6,2.4c0,0-0.7-0.1-1-0.7c-0.2-0.4,0-1.2,0-1.2h-2l-1,3.6h2.1l0.2-0.7
					c0,0,0.7,0.7,1.2,0.7s6.3,0,6.3,0l0.6-1.7h-4.3l0.1-0.6h3l0.3-1.3h-2.9l0.1-0.7c0,0,1.4,0,2.5,0c1.2,0,1.3-1.8,1.3-1.8H87
					l0.3-1.4h-0.7l0.4-1.9h-3.3c0,0,0.2-0.8,0.2-1C85.3,17.5,88.9,17.6,88.9,17.6z M83.9,22.8c-0.8,0-1.2,0-1.2,0l0.1-0.7h1.7
					C84.6,22.1,84.5,22.8,83.9,22.8z M85,20.1l-0.1,0.7h-1.6l0.1-0.7H85z M16.8,17.5c-0.7-0.6-2.1-0.6-2.1-0.6H3.5l-0.7,1.6l9,0
					c0,0,3.2,0,2.5,1.6c-0.6,1.3-3.9,2.4-6.2,3.1c1.3,1.3,4,4,4,4s3,0,4.5,0c-0.8-1.2-4.2-3.9-4.3-4C15.5,23.3,20,20.8,16.8,17.5z
					 M67,23.8c0,0,0.9,0,1.6,0c0.7-0.1,1-0.9,1-0.9l0.5-2.4L68,21l-0.3,1.6c0,0-3.4,0-4.6,0c-0.7,0.1-1.6,0.5-1.6,0.5s0-0.1,0-0.1
					c0.4-0.2,1.4-0.8,1.6-1c0.2-0.3,0.5-1.8,0.5-1.8h3.2l3.1-1.3h-7.9l-1.2,4.8h4.2l-0.6,2.6c0,0-0.1,0.4-0.2,1.1s0.6,0.7,0.6,0.7
					h4.1l0.6-1.7h-2.8L67,23.8z M45.7,19.8c-1.6,0.7-4.4,2.9-3.1,5.7c1.7,2.8,5.6,1.6,8.1,1c0.3-1,0.3-1.5,0.5-2
					c-1.5,0.7-3.7,1.8-5.3,1.1c-0.4-0.3-0.4-0.5-0.5-0.9c0,0,0-0.2,0-0.2c1.8-0.3,3.8-0.5,5.3-1c0.8-0.3,1.4-0.7,1.6-1.7
					C52.4,18.2,47,19.2,45.7,19.8z M49.5,22.2c-0.6,1-1.6,1.2-4.1,1.6c0.5-1.8,2.1-2.5,2.4-2.6c0.4-0.2,1.2-0.4,1.6-0.2
					S49.8,21.6,49.5,22.2z M25.5,19.3c-0.6,2.8-0.9,6.4-2.6,6.5c-0.5,0-0.6,0-1.4,0c-0.3,0-0.6-0.2-0.7-0.4
					c-0.3-0.4,1.4-6.1,1.4-6.1s-2,0-3,0c-0.3,1.4-1.6,6.2-1.4,7c0.2,0.5,0.9,1,2.2,1c1.9,0,1.9,0,3.4,0c1.6,0,2.1-0.3,2.6-0.6
					c1.2-0.7,1.8-4.8,2.3-7.4C27.4,19.3,26.4,19.3,25.5,19.3z M37.7,27.2h2.8l1.7-7.8l-2.8,0.4L37.7,27.2z M4.6,19.6l-2.7,7.7
					l3.7-0.1l2.6-7.6H4.6z M33.4,25.5c-0.6,2.1-0.6,3.9-3.4,4.4c-0.1,0.5-0.3,1.1-0.4,1.6c1.9-0.1,3.4-0.8,3.9-1.2
					c1.7-1.3,1.9-2.1,2.4-4c0.1-0.3,1.6-6.2,1.6-6.2l-2.9,0.4C34.6,20.5,34.1,23,33.4,25.5z M59.5,24.5l0.3-1.5h-1.9l0.3-1.4h2
					l0.3-1.5h-5.8l-0.4,1.5h1.8l-0.3,1.4H54l-0.3,1.5h1.8v0.1c0,0-0.7,2.4-0.3,3.2c0.2,0.3,0.7,0.4,0.9,0.4c0.2,0,2.9,0,2.9,0
					l0.4-1.7h-2.2l0.4-1.9H59.5z M32.6,20.8l-2.8,0.5l-1.5,5.9h2.8L32.6,20.8z M62.1,24.3l-0.9,2.1H60l-0.3,1.7c0,0,1.2,0,2.1,0
					c0.6,0,1-0.4,1.2-0.9c0.4-1,1.2-3,1.2-3H62.1z"/>
			</g>
		</g>
		<g>
			<path class="st1" d="M3.9,31.5H3c0,0-1.1-1.9-1.1-2h0l-0.7,2H0.3l1.1-2.7h1l1.1,2h0c0-0.1,0.7-2,0.7-2h0.9L3.9,31.5z"/>
			<path class="st1" d="M7.8,30.6H5.7c-0.1,0.3,0.2,0.7,0.7,0.7c0.3,0,0.6-0.1,0.9-0.2l-0.1,0.3c-0.4,0.1-0.7,0.2-1,0.2
				c-0.5,0-0.8-0.1-1-0.3c-0.2-0.2-0.3-0.4-0.2-0.8c0.1-0.3,0.3-0.6,0.7-0.8c0.3-0.2,0.7-0.3,1.2-0.3c0.4,0,0.7,0.1,0.9,0.3
				c0.2,0.2,0.2,0.4,0.1,0.7L7.8,30.6z M7.2,30.3c0.1-0.3-0.1-0.5-0.5-0.5c-0.2,0-0.3,0-0.4,0.1c-0.1,0.1-0.3,0.2-0.3,0.3H7.2z"/>
			<path class="st1" d="M9.5,31.5c-0.1,0-0.4,0.1-0.6,0.1c-0.6,0-0.9-0.2-0.7-0.7l0.4-1H8.1l0.1-0.3h0.4l0.1-0.3L9.6,29l-0.2,0.5
				h0.7L10,29.9H9.3L9,30.8C9,31,9,31.1,9.3,31.1c0.1,0,0.2,0,0.3-0.1L9.5,31.5z"/>
			<path class="st1" d="M15.5,29.5l-1.8,2l-0.9,0l0-1.5l-1.2,1.4h-0.8l-0.3-2h0.8l0.1,1.6l1.3-1.6h0.7l0,1.6l1.3-1.6H15.5z"/>
			<path class="st1" d="M15.3,30.5c0.1-0.3,0.3-0.6,0.7-0.8c0.4-0.2,0.8-0.3,1.3-0.3c0.5,0,0.8,0.1,1.1,0.3c0.2,0.2,0.3,0.4,0.2,0.7
				c-0.1,0.3-0.3,0.6-0.7,0.8c-0.4,0.2-0.8,0.3-1.3,0.3c-0.5,0-0.8-0.1-1.1-0.3C15.2,31.1,15.2,30.8,15.3,30.5z M16.2,30.5
				c-0.1,0.4,0,0.6,0.5,0.6c0.5,0,0.8-0.2,0.9-0.6c0.1-0.4,0-0.6-0.5-0.6c-0.2,0-0.4,0.1-0.6,0.2C16.3,30.2,16.2,30.3,16.2,30.5z"/>
			<path class="st1" d="M20.9,30l-0.3,0c0,0-0.4,0-0.5,0.1c-0.2,0.1-0.4,0.3-0.4,0.5l-0.3,1h-0.8l0.7-2H20l-0.1,0.4h0
				c0.2-0.3,0.4-0.4,0.8-0.4c0.1,0,0.2,0,0.2,0L20.9,30z"/>
			<path class="st1" d="M23.7,31.5h-1l-0.7-1H22l-0.3,1h-0.8l0.9-2.7h0.9L22,30.4h0.1l1.1-0.9h1l-1.4,0.9L23.7,31.5z"/>
			<path class="st1" d="M24.2,31c0.3,0.1,0.5,0.2,0.8,0.2c0.4,0,0.5-0.2,0.5-0.3c0-0.2-0.4-0.4-0.6-0.5c-0.1-0.1-0.2-0.3-0.2-0.5
				c0-0.2,0.1-0.3,0.4-0.4c0.3-0.1,0.6-0.1,0.7-0.1c0.3,0,0.8,0,0.9,0.1l-0.1,0.3c-0.2,0-0.3,0-0.5,0c-0.1,0-0.4,0-0.5,0
				c-0.1,0-0.2,0.1-0.2,0.1c0,0.1,0.4,0.3,0.5,0.4c0.3,0.1,0.4,0.2,0.4,0.5c0,0.5-0.8,0.7-1.2,0.7c-0.3,0-0.7,0-1-0.1L24.2,31z"/>
		</g>
	</g>
	<g>
		<path class="st1" d="M100.7,24.7c0,0.5,0,0.9-0.1,1.2s-0.2,0.6-0.4,0.8c-0.2,0.2-0.4,0.4-0.7,0.4c-0.3,0.1-0.6,0.1-1,0.1
			c-0.3,0-0.6-0.1-0.9-0.2c-0.3-0.1-0.5-0.2-0.7-0.4c-0.2-0.2-0.3-0.4-0.4-0.7s-0.1-0.6-0.1-0.9v-0.4h1.4c0,0.9,0.2,1.3,0.7,1.3
			c0.1,0,0.2,0,0.3,0c0.1,0,0.2-0.1,0.2-0.2c0.1-0.1,0.1-0.2,0.2-0.4c0-0.2,0.1-0.4,0.1-0.6v-5h1.4V24.7z"/>
		<path class="st1" d="M107.4,22.3c0-0.2-0.1-0.4-0.2-0.6c-0.1-0.2-0.2-0.3-0.4-0.5c-0.1-0.1-0.3-0.2-0.5-0.3
			c-0.2-0.1-0.4-0.1-0.6-0.1c-0.3,0-0.6,0.1-0.9,0.2c-0.3,0.1-0.5,0.3-0.7,0.5c-0.2,0.2-0.3,0.5-0.4,0.8c-0.1,0.3-0.1,0.7-0.1,1.1
			s0,0.8,0.1,1.1c0.1,0.3,0.2,0.6,0.4,0.8c0.2,0.2,0.4,0.4,0.6,0.5c0.3,0.1,0.5,0.2,0.8,0.2c0.2,0,0.5,0,0.7-0.1
			c0.2-0.1,0.4-0.2,0.5-0.3c0.1-0.1,0.3-0.3,0.4-0.5c0.1-0.2,0.1-0.4,0.2-0.7h1.4c0,0.4-0.1,0.8-0.3,1.2c-0.2,0.3-0.4,0.6-0.7,0.9
			c-0.3,0.2-0.6,0.4-0.9,0.5c-0.4,0.1-0.7,0.2-1.2,0.2c-0.5,0-1-0.1-1.4-0.3c-0.4-0.2-0.8-0.4-1.1-0.8c-0.3-0.3-0.5-0.7-0.7-1.2
			c-0.2-0.5-0.2-1-0.2-1.6s0.1-1.1,0.2-1.6c0.2-0.5,0.4-0.9,0.7-1.2c0.3-0.3,0.7-0.6,1.1-0.8c0.4-0.2,0.9-0.3,1.4-0.3
			c0.4,0,0.8,0.1,1.1,0.2c0.4,0.1,0.7,0.3,0.9,0.5c0.3,0.2,0.5,0.5,0.7,0.8c0.2,0.3,0.3,0.7,0.3,1.1H107.4z"/>
		<path class="st1" d="M113.8,19.6c0.5,0,1,0.1,1.4,0.3c0.4,0.2,0.8,0.4,1.1,0.8c0.3,0.3,0.6,0.7,0.7,1.2c0.2,0.5,0.3,1,0.3,1.6
			c0,0.6-0.1,1.1-0.3,1.6c-0.2,0.5-0.4,0.9-0.7,1.2c-0.3,0.3-0.7,0.6-1.1,0.8c-0.4,0.2-0.9,0.3-1.4,0.3s-1-0.1-1.4-0.3
			c-0.4-0.2-0.8-0.4-1.1-0.8c-0.3-0.3-0.6-0.7-0.7-1.2c-0.2-0.5-0.3-1-0.3-1.6c0-0.6,0.1-1.1,0.3-1.6c0.2-0.5,0.4-0.9,0.7-1.2
			c0.3-0.3,0.7-0.6,1.1-0.8C112.8,19.7,113.3,19.6,113.8,19.6z M113.8,26c0.3,0,0.6-0.1,0.9-0.2c0.3-0.1,0.5-0.3,0.7-0.5
			c0.2-0.2,0.3-0.5,0.4-0.8c0.1-0.3,0.2-0.7,0.2-1.1c0-0.4-0.1-0.8-0.2-1.1c-0.1-0.3-0.3-0.6-0.4-0.8c-0.2-0.2-0.4-0.4-0.7-0.5
			c-0.3-0.1-0.5-0.2-0.9-0.2c-0.3,0-0.6,0.1-0.9,0.2c-0.3,0.1-0.5,0.3-0.7,0.5c-0.2,0.2-0.3,0.5-0.5,0.8c-0.1,0.3-0.2,0.7-0.2,1.1
			c0,0.4,0.1,0.8,0.2,1.1c0.1,0.3,0.3,0.6,0.4,0.8c0.2,0.2,0.4,0.4,0.7,0.5C113.2,26,113.5,26,113.8,26z"/>
		<path class="st1" d="M121.9,27.2c-0.5,0-1-0.1-1.4-0.2c-0.4-0.1-0.7-0.3-1-0.6c-0.3-0.2-0.5-0.5-0.6-0.9c-0.1-0.3-0.2-0.7-0.2-1.1
			h1.3c0,0.3,0.1,0.5,0.2,0.7c0.1,0.2,0.2,0.4,0.4,0.5c0.2,0.1,0.3,0.2,0.6,0.3c0.2,0.1,0.4,0.1,0.7,0.1c0.2,0,0.4,0,0.6-0.1
			c0.2,0,0.3-0.1,0.5-0.2c0.1-0.1,0.2-0.2,0.3-0.3c0.1-0.1,0.1-0.3,0.1-0.4c0-0.2,0-0.3-0.1-0.4c-0.1-0.1-0.2-0.2-0.3-0.3
			c-0.2-0.1-0.4-0.2-0.6-0.2c-0.3-0.1-0.6-0.1-0.9-0.2c-0.4-0.1-0.8-0.2-1.1-0.3c-0.3-0.1-0.6-0.3-0.8-0.4c-0.2-0.2-0.3-0.4-0.4-0.6
			c-0.1-0.2-0.1-0.5-0.1-0.8c0-0.3,0.1-0.6,0.2-0.9c0.1-0.3,0.3-0.5,0.6-0.7c0.2-0.2,0.5-0.3,0.9-0.4c0.3-0.1,0.7-0.2,1.1-0.2
			c0.4,0,0.8,0.1,1.2,0.2c0.3,0.1,0.7,0.3,0.9,0.5c0.3,0.2,0.5,0.5,0.6,0.8c0.1,0.3,0.2,0.7,0.2,1.1h-1.3c-0.1-0.8-0.6-1.3-1.5-1.3
			c-0.4,0-0.8,0.1-1,0.2c-0.2,0.2-0.4,0.4-0.4,0.6c0,0.1,0,0.2,0.1,0.3c0.1,0.1,0.1,0.2,0.2,0.2c0.1,0.1,0.3,0.1,0.4,0.2
			c0.2,0.1,0.4,0.1,0.6,0.2c0.2,0,0.4,0.1,0.7,0.2c0.2,0.1,0.5,0.1,0.7,0.2c0.2,0.1,0.4,0.2,0.6,0.3c0.2,0.1,0.4,0.2,0.5,0.4
			c0.1,0.2,0.3,0.3,0.4,0.6c0.1,0.2,0.1,0.5,0.1,0.8c0,0.3-0.1,0.7-0.2,0.9s-0.3,0.5-0.6,0.7c-0.2,0.2-0.5,0.4-0.9,0.5
			C122.7,27.2,122.3,27.2,121.9,27.2z"/>
	</g>
</g>
</svg>
