<?xml version="1.0" encoding="utf-8"?>
<!-- Generator: Adobe Illustrator 22.0.1, SVG Export Plug-In . SVG Version: 6.00 Build 0)  -->
<svg version="1.1" id="图层_1" xmlns="http://www.w3.org/2000/svg" xmlns:xlink="http://www.w3.org/1999/xlink" x="0px" y="0px"
	 viewBox="0 0 125 48" style="enable-background:new 0 0 125 48;" xml:space="preserve">
<style type="text/css">
	.st0{fill:#313949;}
	.st1{fill:#48566B;}
</style>
<rect y="6.3" class="st0" width="126" height="34.7"/>
<g>
	<path class="st1" d="M3.4,28.1v-9.1H4v8.5h3.6v0.6H3.4z"/>
	<path class="st1" d="M12.4,28.3c-1.3,0-2.3-0.4-3.1-1.3s-1.1-2-1.1-3.3c0-1.4,0.4-2.6,1.2-3.5s1.8-1.3,3.2-1.3c1.2,0,2.2,0.4,3,1.3
		s1.1,1.9,1.1,3.3c0,1.5-0.4,2.7-1.2,3.5S13.7,28.3,12.4,28.3z M12.5,19.5c-1.1,0-1.9,0.4-2.6,1.1s-1,1.8-1,3c0,1.3,0.3,2.2,1,3
		s1.5,1.1,2.6,1.1c1.1,0,2-0.4,2.7-1.1s1-1.8,1-3.1c0-1.3-0.3-2.3-1-3S13.6,19.5,12.5,19.5z"/>
	<path class="st1" d="M25.1,27.5c-0.9,0.5-1.9,0.8-2.9,0.8c-1.2,0-2.2-0.4-3-1.3s-1.1-1.9-1.1-3.3c0-1.4,0.4-2.5,1.2-3.4
		s1.9-1.4,3.3-1.4c0.8,0,1.6,0.2,2.3,0.5v0.7c-0.8-0.4-1.6-0.6-2.4-0.6c-1.1,0-2.1,0.4-2.8,1.2s-1,1.8-1,3c0,1.3,0.3,2.3,1,3
		s1.5,1.1,2.6,1.1c0.8,0,1.5-0.2,2.2-0.5v-3h-2.1v-0.6h2.8V27.5z"/>
	<path class="st1" d="M30.9,28.3c-1.3,0-2.3-0.4-3.1-1.3s-1.1-2-1.1-3.3c0-1.4,0.4-2.6,1.2-3.5s1.8-1.3,3.2-1.3c1.2,0,2.2,0.4,3,1.3
		s1.1,1.9,1.1,3.3c0,1.5-0.4,2.7-1.2,3.5S32.2,28.3,30.9,28.3z M31,19.5c-1.1,0-1.9,0.4-2.6,1.1s-1,1.8-1,3c0,1.3,0.3,2.2,1,3
		s1.5,1.1,2.6,1.1c1.1,0,2-0.4,2.7-1.1s1-1.8,1-3.1c0-1.3-0.3-2.3-1-3S32.1,19.5,31,19.5z"/>
	<path class="st1" d="M41.3,24.5v3.6h-0.6v-9.1h2.2c0.9,0,1.6,0.2,2.1,0.7s0.7,1.1,0.7,1.9c0,0.8-0.3,1.5-0.8,2.1s-1.3,0.8-2.3,0.8
		H41.3z M41.3,19.6v4.3h1.3c0.8,0,1.4-0.2,1.9-0.6s0.6-0.9,0.6-1.7c0-1.4-0.8-2-2.3-2H41.3z"/>
	<path class="st1" d="M47.7,28.1v-9.1h0.6v8.5h3.6v0.6H47.7z"/>
	<path class="st1" d="M60.1,28.1l-1-2.8h-3.9l-1,2.8h-0.7l3.4-9.1h0.6l3.4,9.1H60.1z M57.3,20.5c0-0.1-0.1-0.3-0.1-0.4
		c0-0.1-0.1-0.2-0.1-0.3h0c-0.1,0.3-0.1,0.5-0.2,0.7l-1.5,4.2h3.5L57.3,20.5z"/>
	<path class="st1" d="M68.1,27.8c-0.7,0.3-1.5,0.5-2.3,0.5c-1.2,0-2.3-0.4-3-1.3s-1.2-1.9-1.2-3.3c0-1.5,0.4-2.7,1.3-3.5
		s1.9-1.3,3.2-1.3c0.7,0,1.4,0.1,2,0.3v0.7c-0.6-0.3-1.3-0.4-2-0.4c-1.1,0-2.1,0.4-2.8,1.2s-1.1,1.8-1.1,3.1c0,1.2,0.3,2.2,1,2.9
		s1.5,1.1,2.6,1.1c0.8,0,1.6-0.2,2.2-0.5V27.8z"/>
	<path class="st1" d="M70.1,28.1v-9.1h4.2v0.6h-3.6v3.6h3.4v0.6h-3.4v3.7h3.8v0.6H70.1z"/>
	<path class="st1" d="M82.4,28.1v-4.4h-5.2v4.4h-0.6v-9.1h0.6v4.2h5.2v-4.2H83v9.1H82.4z"/>
	<path class="st1" d="M89.1,28.3c-1.3,0-2.3-0.4-3.1-1.3s-1.1-2-1.1-3.3c0-1.4,0.4-2.6,1.2-3.5s1.8-1.3,3.2-1.3c1.2,0,2.2,0.4,3,1.3
		s1.1,1.9,1.1,3.3c0,1.5-0.4,2.7-1.2,3.5S90.4,28.3,89.1,28.3z M89.2,19.5c-1.1,0-1.9,0.4-2.6,1.1s-1,1.8-1,3c0,1.3,0.3,2.2,1,3
		s1.5,1.1,2.6,1.1c1.1,0,2-0.4,2.7-1.1s1-1.8,1-3.1c0-1.3-0.3-2.3-1-3S90.3,19.5,89.2,19.5z"/>
	<path class="st1" d="M95.2,28.1v-9.1h0.6v8.5h3.6v0.6H95.2z"/>
	<path class="st1" d="M101.2,28.1v-9.1h2.3c1.5,0,2.7,0.4,3.4,1.1s1.2,1.8,1.2,3.3c0,1.4-0.4,2.5-1.3,3.4s-2,1.3-3.5,1.3H101.2z
		 M101.8,19.6v7.9h1.4c1.3,0,2.4-0.3,3.1-1s1.1-1.7,1.1-3c0-2.6-1.4-3.9-4.1-3.9H101.8z"/>
	<path class="st1" d="M109.9,28.1v-9.1h4.2v0.6h-3.6v3.6h3.4v0.6h-3.4v3.7h3.8v0.6H109.9z"/>
	<path class="st1" d="M121,28.1l-1.2-2.7c-0.3-0.5-0.5-0.9-0.7-1.1s-0.6-0.3-0.9-0.3H117v4h-0.6v-9.1h2.5c0.8,0,1.4,0.2,1.9,0.7
		s0.7,1,0.7,1.7c0,0.7-0.2,1.2-0.6,1.6s-0.9,0.7-1.6,0.8v0c0.4,0.1,0.7,0.6,1,1.3l1.3,2.9H121z M117,19.6v3.9h1.6
		c0.7,0,1.2-0.2,1.7-0.5s0.6-0.9,0.6-1.5c0-0.6-0.2-1-0.6-1.4s-0.9-0.5-1.6-0.5H117z"/>
</g>
</svg>
