<?xml version="1.0" encoding="utf-8"?>
<!-- Generator: Adobe Illustrator 22.0.1, SVG Export Plug-In . SVG Version: 6.00 Build 0)  -->
<svg version="1.1" id="图层_1" xmlns="http://www.w3.org/2000/svg" xmlns:xlink="http://www.w3.org/1999/xlink" x="0px" y="0px"
	 viewBox="0 0 125 48" style="enable-background:new 0 0 125 48;" xml:space="preserve">
<style type="text/css">
	.st0{fill:#F7F8F8;}
	.st1{fill:#A7D398;}
	.st2{fill:#EFEFEF;}
	.st3{clip-path:url(#SVGID_2_);fill:#EFEFEF;}
	.st4{fill:#FFFFFF;}
	.st5{clip-path:url(#SVGID_4_);fill:#FFFFFF;}
</style>
<g>
	<g>
		<path class="st0" d="M55.7,25.2l-0.2-6.6c0-0.3-0.1-0.5-0.4-0.7C55,17.7,55,17.6,55,17.6l0.1-0.4c0-0.1,0.1-0.2,0.2-0.2l2.5,0
			c0.1,0,0.2,0,0.1,0.1l-0.1,0.4c0,0.1-0.1,0.1-0.2,0.2c-0.2,0.1-0.4,0.2-0.4,0.5c0,0.1,0,0.3,0,0.4l0.1,3.3l1.6-3.2
			c0.1-0.1,0.1-0.2,0.1-0.3c0-0.2,0-0.4-0.3-0.6c-0.1-0.1-0.2-0.2-0.2-0.2l0.1-0.4c0-0.1,0.1-0.1,0.2-0.1l2,0c0.1,0,0.2,0,0.1,0.1
			l-0.1,0.4c0,0.1-0.1,0.1-0.2,0.2c-0.3,0.2-0.6,0.5-0.8,0.9l-2.9,5.9c-0.5,1-0.9,1.7-1.2,2.1c-0.3,0.4-0.6,0.6-0.9,0.8
			c-0.4,0.2-0.7,0.3-1.1,0.3c-0.3,0-0.6-0.1-0.8-0.2c-0.2-0.2-0.2-0.4-0.2-0.6c0.1-0.3,0.2-0.4,0.4-0.6c0.2-0.1,0.4-0.2,0.7-0.2
			c0.2,0,0.6,0.1,0.9,0.4C55.1,26.3,55.4,25.8,55.7,25.2z"/>
		<path class="st0" d="M59.6,26.6l1.9-8.1c0.1-0.3,0-0.5-0.3-0.7c-0.1-0.1-0.1-0.1-0.1-0.2l0.1-0.3c0-0.1,0.1-0.2,0.2-0.2l2.2-0.1
			l-0.2,0.8c0.6-0.6,1.2-0.9,1.8-0.9c0.7,0,1.1,0.4,1.3,1.1c0.2,0.7,0.1,1.7-0.1,2.9c-0.2,0.9-0.5,1.7-0.8,2.4
			c-0.3,0.7-0.7,1.3-1,1.6c-0.4,0.3-0.8,0.5-1.2,0.5c-0.6,0-1.1-0.2-1.4-0.7l-0.5,2c-0.1,0.3,0,0.5,0.1,0.6c0.1,0.1,0.1,0.1,0.1,0.2
			l-0.1,0.5c0,0.1-0.1,0.1-0.1,0.1l-2.5,0c-0.1,0-0.1,0-0.1-0.1l0.1-0.5c0-0.1,0.1-0.1,0.2-0.2C59.4,27.1,59.6,26.9,59.6,26.6z
			 M63.4,18.4l-1.3,5.5c0.2,0.3,0.4,0.4,0.7,0.4c0.3,0,0.6-0.2,0.8-0.7c0.2-0.4,0.5-1.3,0.8-2.7c0.3-1.2,0.4-2,0.3-2.4
			c-0.1-0.4-0.2-0.6-0.5-0.6C64,18,63.7,18.1,63.4,18.4z"/>
		<path class="st0" d="M72,23.1c-0.5,1.5-1.4,2.3-2.8,2.3c-0.9,0-1.5-0.3-1.9-1c-0.4-0.7-0.4-1.8-0.1-3.1c0.3-1.4,0.8-2.4,1.5-3.2
			c0.7-0.8,1.4-1.2,2.3-1.2c0.7,0,1.3,0.3,1.6,0.9c0.3,0.6,0.4,1.4,0.1,2.4l-0.2,0.7c0,0.1-0.1,0.2-0.3,0.2l-2.9,0l-0.2,0.7
			c-0.2,0.8-0.2,1.4-0.2,1.8c0.1,0.4,0.3,0.6,0.7,0.6c0.5,0,0.9-0.4,1.3-1.3L72,23.1z M70.9,20.1l0.3-1.2c0.2-0.8,0.1-1.3-0.4-1.3
			c-0.4,0-0.8,0.5-1,1.6l-0.2,0.9L70.9,20.1z"/>
		<path class="st0" d="M75.7,18.7c0.7-1.2,1.4-1.9,2.2-1.9c0.3,0,0.5,0.1,0.6,0.3c0.1,0.2,0.2,0.4,0.1,0.7c-0.1,0.3-0.2,0.5-0.4,0.7
			c-0.2,0.2-0.4,0.3-0.7,0.3c-0.3,0-0.5-0.1-0.7-0.4c-0.6,0.7-1,1.5-1.2,2.4l-0.7,3c-0.1,0.3,0,0.5,0.2,0.7c0.1,0.1,0.1,0.1,0.1,0.2
			L75.1,25c0,0.1-0.1,0.1-0.2,0.1l-2.6,0c-0.1,0-0.1,0-0.1-0.1l0.1-0.5c0-0.1,0.1-0.1,0.2-0.1c0.2-0.1,0.4-0.3,0.4-0.5l1.2-5.4
			c0.1-0.3,0-0.6-0.1-0.8C74,17.7,74,17.7,74,17.6l0.1-0.4c0-0.1,0.1-0.2,0.3-0.2l1.7,0L75.7,18.7z"/>
	</g>
	<g>
		<path class="st0" d="M52.9,18.8l-2.7,13.3c-0.1,0.4,0,0.7,0.4,0.9c0.2,0.1,0.3,0.3,0.3,0.4l-0.1,0.5c0,0.2-0.2,0.3-0.4,0.3l-4.4,0
			c-0.2,0-0.3-0.1-0.3-0.2l0.1-0.5c0-0.2,0.2-0.3,0.4-0.4c0.4-0.2,0.7-0.5,0.7-0.9l1.3-6.4l-3.3,0l-1.3,6.4c-0.1,0.4,0,0.7,0.4,0.9
			c0.2,0.1,0.3,0.3,0.3,0.4L44.1,34c0,0.2-0.2,0.3-0.4,0.3l-4.4,0c-0.2,0-0.3-0.1-0.3-0.2l0.1-0.5c0-0.2,0.2-0.3,0.5-0.4
			c0.4-0.2,0.6-0.5,0.7-0.9L43,18.9c0.1-0.4,0-0.7-0.4-0.9c-0.2-0.1-0.3-0.3-0.3-0.5l0.1-0.5c0-0.2,0.2-0.3,0.4-0.3l4.4,0
			c0.2,0,0.3,0.1,0.3,0.2l-0.1,0.5c0,0.2-0.2,0.3-0.5,0.5c-0.4,0.2-0.6,0.5-0.7,0.9l-1.1,5.3l3.3,0l1.1-5.3c0.1-0.4,0-0.7-0.4-0.9
			c-0.2-0.1-0.3-0.3-0.3-0.5L49,17c0-0.2,0.2-0.3,0.4-0.3l4.4,0c0.2,0,0.3,0.1,0.3,0.2L54,17.5c0,0.2-0.2,0.3-0.4,0.5
			C53.2,18.2,52.9,18.5,52.9,18.8z"/>
	</g>
	<g>
		<path class="st1" d="M61.5,32.1l1.6-2.5c0,0,0-0.1,0.1-0.1c0-0.1,0-0.2-0.2-0.2c-0.2,0-0.2-0.1-0.2-0.2l0-0.2
			c0-0.1,0.1-0.1,0.2-0.1h1.6c0.2,0,0.2,0,0.2,0.1l0,0.1c0,0-0.1,0.1-0.2,0.1c-0.2,0.1-0.4,0.2-0.5,0.3l-3.2,4.9
			c0,0.1-0.1,0.1-0.2,0.1h-0.3c-0.1,0-0.1,0-0.1-0.1L60,31.2l-2.1,3.3c-0.1,0.1-0.1,0.1-0.2,0.1h-0.3c-0.1,0-0.1,0-0.1-0.1L57,29.4
			c0-0.1-0.1-0.2-0.3-0.2c-0.1,0-0.1-0.1-0.1-0.1l0.1-0.2c0-0.1,0.1-0.1,0.2-0.1h2c0.1,0,0.1,0,0.1,0.1l-0.1,0.2
			c0,0-0.1,0.1-0.2,0.1c-0.2,0-0.3,0.1-0.3,0.2c0,0,0,0.1,0,0.1l0.1,2.6l1.4-2.2l0-0.5c0-0.1-0.1-0.2-0.3-0.2c-0.1,0-0.1,0-0.1-0.1
			l0.1-0.2c0,0,0.1-0.1,0.1-0.1h2.2c0.1,0,0.1,0,0.1,0.1l0,0.1c0,0.1,0,0.1-0.1,0.1c0,0-0.1,0-0.2,0.1c-0.2,0-0.3,0.1-0.3,0.2
			c0,0,0,0.1,0,0.1L61.5,32.1z"/>
		<path class="st1" d="M66,31.1L65.1,34c0,0.1,0,0.2,0.2,0.3c0.1,0,0.1,0.1,0.1,0.1l0,0.1c0,0-0.1,0.1-0.2,0.1h-1.9
			c-0.1,0-0.1,0-0.1-0.1l0-0.1c0,0,0.1-0.1,0.2-0.1c0.2-0.1,0.3-0.1,0.4-0.3l0.7-2.3c0-0.1,0-0.2-0.2-0.3c-0.1,0-0.1-0.1-0.1-0.1
			l0-0.1c0,0,0.1-0.1,0.2-0.1L66,31.1z M65.8,29.1c0.2,0,0.4,0,0.6,0.1c0.1,0.1,0.2,0.2,0.1,0.3c0,0.1-0.1,0.2-0.3,0.3
			C66,30,65.8,30,65.6,30c-0.2,0-0.4,0-0.6-0.1c-0.1-0.1-0.2-0.2-0.2-0.3c0-0.1,0.2-0.2,0.4-0.3C65.4,29.2,65.6,29.1,65.8,29.1z"/>
		<path class="st1" d="M68.7,31c0.5,0,0.8,0.1,1.1,0.2c0.3,0.1,0.4,0.3,0.3,0.5c0,0.1-0.1,0.2-0.3,0.3C69.7,32,69.5,32,69.2,32
			c-0.2,0-0.3,0-0.4-0.1c-0.1-0.1-0.2-0.1-0.1-0.2c0,0,0-0.1,0.1-0.1c0,0,0.1-0.1,0.1-0.1c0-0.1-0.1-0.1-0.3-0.1
			c-0.2,0-0.3,0-0.5,0.1c-0.2,0.1-0.3,0.2-0.3,0.3c0,0.1,0,0.2,0.1,0.3c0.1,0.1,0.4,0.2,0.9,0.4c0.5,0.2,0.8,0.4,0.9,0.5
			c0.2,0.2,0.2,0.4,0.1,0.6c-0.1,0.3-0.4,0.6-0.8,0.8c-0.5,0.2-1,0.3-1.5,0.3c-0.5,0-0.9-0.1-1.2-0.2c-0.3-0.1-0.4-0.3-0.3-0.5
			c0-0.1,0.1-0.2,0.3-0.3c0.2-0.1,0.4-0.1,0.6-0.1c0.4,0,0.6,0.1,0.6,0.3c0,0,0,0.1-0.1,0.1c0,0.1-0.1,0.1-0.1,0.1
			c0,0.1,0.1,0.2,0.4,0.2c0.2,0,0.5,0,0.7-0.1c0.2-0.1,0.3-0.2,0.3-0.3c0-0.1,0-0.2-0.1-0.3c-0.1-0.1-0.4-0.2-0.7-0.4
			c-0.5-0.2-0.8-0.4-1-0.6c-0.2-0.2-0.2-0.4-0.2-0.6c0.1-0.3,0.4-0.5,0.8-0.7S68.2,31,68.7,31z"/>
		<path class="st1" d="M74,33.6c-0.3,0.6-1,1-2,1c-0.7,0-1.1-0.1-1.5-0.4c-0.3-0.3-0.4-0.7-0.2-1.3c0.2-0.6,0.5-1,1-1.4
			c0.5-0.3,1-0.5,1.6-0.5c0.6,0,1,0.1,1.2,0.4c0.3,0.3,0.3,0.6,0.2,1l-0.1,0.3c0,0.1-0.1,0.1-0.2,0.1H72l-0.1,0.3
			c-0.1,0.3-0.1,0.6,0,0.8c0.1,0.2,0.3,0.3,0.6,0.3c0.4,0,0.7-0.2,0.9-0.5L74,33.6z M73.1,32.4l0.2-0.5c0.1-0.4,0-0.5-0.4-0.5
			c-0.3,0-0.6,0.2-0.7,0.7l-0.1,0.4H73.1z"/>
	</g>
	<g>
		<g>
			<path class="st0" d="M85,25.3c2.6,0.7,3.6,2.2,3.2,4.3c-0.2,0.9-0.6,1.8-1.3,2.5c-0.7,0.7-1.5,1.3-2.6,1.6c-1,0.3-2,0.5-3,0.5
				l-4.1,0C77,34.2,77,34.2,77,34l0.1-0.6c0-0.2,0.2-0.3,0.4-0.5c0.4-0.2,0.6-0.5,0.7-0.9l2.7-13.4c0.1-0.4,0-0.7-0.3-0.9
				c-0.2-0.1-0.3-0.3-0.3-0.5l0.1-0.5c0-0.2,0.2-0.2,0.4-0.2l4.3,0c1.6,0,2.8,0.4,3.6,1.2c0.8,0.8,1.1,1.8,0.8,3.1
				c-0.2,0.9-0.6,1.7-1.3,2.5C87.5,24.2,86.4,24.8,85,25.3z M82.6,25.9l-1.4,7c0.8,0,1.4-0.1,1.9-0.3c0.5-0.2,0.9-0.6,1.2-1
				c0.3-0.5,0.6-1.2,0.8-2c0.2-1.2,0.2-2.1-0.2-2.7C84.5,26.2,83.7,25.9,82.6,25.9z M84.2,18.1l-1.3,6.5c1.9,0,3.1-1.1,3.5-3.3
				c0.2-0.8,0.2-1.5,0-2c-0.2-0.5-0.4-0.9-0.7-1S84.8,18.1,84.2,18.1z"/>
			<path class="st0" d="M94.6,23.3c2.8,0,3.9,1.9,3.1,5.6c-0.4,1.8-1,3.1-1.9,4.1c-0.9,1-2,1.4-3.3,1.4c-1.3,0-2.3-0.5-2.8-1.4
				c-0.5-0.9-0.6-2.3-0.2-4.2c0.4-1.9,1.1-3.3,2-4.2C92.4,23.8,93.5,23.3,94.6,23.3z M95,27.8c0.3-1.3,0.3-2.2,0.3-2.6
				c-0.1-0.5-0.3-0.7-0.8-0.7c-0.8,0-1.4,0.9-1.7,2.7l-0.5,2.6C92,31.1,91.9,32,92,32.5c0.1,0.5,0.3,0.8,0.8,0.8
				c0.4,0,0.7-0.2,1-0.6c0.3-0.4,0.5-1.1,0.7-2.2L95,27.8z"/>
			<path class="st0" d="M101.1,29.2l-1.4-4c-0.1-0.3-0.3-0.6-0.5-0.7c-0.1-0.1-0.2-0.2-0.2-0.3l0.1-0.4c0-0.1,0.1-0.2,0.3-0.2l3.3,0
				c0.2,0,0.4,0.1,0.3,0.2l-0.1,0.5c0,0.1-0.1,0.2-0.3,0.2c-0.2,0.1-0.4,0.2-0.4,0.4c0,0.1,0,0.2,0,0.3l0.6,1.7l1.2-1.6
				c0.1-0.1,0.2-0.2,0.2-0.4c0-0.1-0.1-0.3-0.4-0.4c-0.2-0.1-0.3-0.2-0.3-0.3l0.1-0.5c0-0.2,0.2-0.2,0.4-0.2l2.6,0
				c0.2,0,0.3,0.1,0.3,0.2l-0.1,0.5c0,0.1-0.2,0.2-0.4,0.3c-0.4,0.1-0.7,0.3-0.9,0.6l-2.2,2.9l1.5,4.4c0.1,0.2,0.2,0.4,0.5,0.6
				c0.2,0.1,0.2,0.3,0.2,0.4l-0.1,0.4c0,0.2-0.1,0.2-0.3,0.2l-3.4,0c-0.2,0-0.3-0.1-0.3-0.2l0.1-0.5c0-0.1,0.1-0.2,0.3-0.2
				c0.3-0.1,0.4-0.2,0.5-0.4c0-0.1,0-0.2,0-0.3l-0.7-2.2l-1.3,1.7c-0.2,0.2-0.3,0.4-0.3,0.6c0,0.2,0.1,0.3,0.4,0.5
				c0.2,0.1,0.3,0.2,0.3,0.3l-0.1,0.4c0,0.2-0.2,0.3-0.4,0.3l-2.9,0c-0.2,0-0.3-0.1-0.3-0.2l0.1-0.4c0-0.1,0.2-0.2,0.4-0.3
				c0.4-0.1,0.7-0.3,1-0.7L101.1,29.2z"/>
		</g>
	</g>
	<polygon class="st2" points="27.9,19.1 27.9,19.1 27.9,31.6 16.9,37.9 5.8,31.6 5.8,19.1 5.8,19.1 2,17 2,17 2,33.8 16.9,42.2 
		31.7,33.8 31.7,17 31.7,17 	"/>
	<g>
		<defs>
			<polygon id="SVGID_1_" points="2,17 16.9,25.4 31.7,17 16.7,3.5 			"/>
		</defs>
		<clipPath id="SVGID_2_">
			<use xlink:href="#SVGID_1_"  style="overflow:visible;"/>
		</clipPath>
		<path class="st3" d="M16.9,42.2L2,33.8V17l14.8-8.4L31.7,17v16.8L16.9,42.2z M27.9,31.6V19.1l-11.1-6.3L5.8,19.1v12.5l11.1,6.3
			L27.9,31.6z"/>
	</g>
	<path class="st4" d="M19.6,26.4c0,1.5-1.2,2.7-2.7,2.7c-1.5,0-2.7-1.2-2.7-2.7c0-1.5,1.2-2.7,2.7-2.7
		C18.4,23.7,19.6,24.9,19.6,26.4z M16.9,24.7c-0.9,0-1.7,0.7-1.7,1.6c0,0.9,0.8,1.6,1.7,1.6c0.9,0,1.7-0.7,1.7-1.6
		C18.6,25.5,17.8,24.7,16.9,24.7z"/>
	<g>
		<defs>
			<rect id="SVGID_3_" x="15" y="22.4" width="3.9" height="2.3"/>
		</defs>
		<clipPath id="SVGID_4_">
			<use xlink:href="#SVGID_3_"  style="overflow:visible;"/>
		</clipPath>
		<path class="st5" d="M18.8,25.6c0,1-0.9,1.9-1.9,1.9l0,0c-1.1,0-1.9-0.8-1.9-1.9v-1.3c0-1,0.9-1.9,1.9-1.9l0,0
			c1.1,0,1.9,0.8,1.9,1.9V25.6z M18,24.5c0-0.6-0.5-1-1-1l0,0c-0.6,0-1,0.5-1,1v0.7c0,0.6,0.5,1,1,1l0,0c0.6,0,1-0.5,1-1V24.5z"/>
	</g>
	<path class="st4" d="M17.4,27.1c0,0.3-0.2,0.5-0.5,0.5l0,0c-0.3,0-0.5-0.2-0.5-0.5v-1.3c0-0.3,0.2-0.5,0.5-0.5l0,0
		c0.3,0,0.5,0.2,0.5,0.5V27.1z"/>
	<path class="st4" d="M21.9,21.1c-0.7-1.9-2.7-3.6-5.1-3.6c-3,0-5,2.3-5.3,3.6c-1.6,0.3-4.4,1.9-4.4,5.4c0,3.1,3.1,5.1,5.1,5.2
		l0.1,0l8.3,0c0.2,0,0.3,0,0.5,0c2.7-0.2,5.2-2.5,5.2-5.4C26.2,22.9,23.6,21.5,21.9,21.1z M22,30.7c-0.3,0.1-0.6,0.1-0.9,0.1
		c-0.1,0-0.3,0-0.3,0l-8.3,0c0,0-0.1,0-0.1,0c-1.7,0-4.2-1.6-4.2-4.2c0-2.5,1.5-3.9,3-4.4c0,0.3-0.1,0.7,0,1.2
		c0,0.3,0.3,0.5,0.6,0.5c0.3,0,0.5-0.3,0.4-0.6c-0.2-3,2.2-4.7,4.7-4.8c2.6,0,3.7,2.1,3.9,2.5c0,0-0.5,0-0.9,0
		c-0.4,0-0.6,0.1-0.9,0.2c-0.3,0.2-0.4,0.5-0.3,0.7c0.1,0.1,0.4,0.3,0.7,0.2c0.4-0.1,1-0.2,1.4-0.2c2.2,0.1,4.5,1.7,4.4,4.6
		C25.1,29.3,23.1,30.4,22,30.7z"/>
</g>
</svg>
