<?xml version="1.0" encoding="utf-8"?>
<!-- Generator: Adobe Illustrator 22.0.1, SVG Export Plug-In . SVG Version: 6.00 Build 0)  -->
<svg version="1.1" id="图层_1" xmlns="http://www.w3.org/2000/svg" xmlns:xlink="http://www.w3.org/1999/xlink" x="0px" y="0px"
	 viewBox="0 0 125 48" style="enable-background:new 0 0 125 48;" xml:space="preserve">
<style type="text/css">
	.st0{fill:#00A4FF;}
	.st1{fill:#FFFFFF;}
</style>
<g>
	<g>
		<path class="st0" d="M24.8,23.4c-1-1.1-2.6-1.8-4.3-1.8c-1.5,0-2.7,0.5-3.8,1.4c-0.5,0.4-0.9,0.8-1.6,1.5
			c-0.3,0.3-9.4,9.1-9.4,9.1c0.4,0.1,1,0.1,1.7,0.1c0.5,0,10.9,0,11.4,0c0.8,0,1.5,0,2.1,0c1.4-0.1,2.7-0.6,3.9-1.7
			C27,29.6,27,25.8,24.8,23.4z M23,30.3c-0.4,0.4-1.3,0.9-2.6,1c-0.6,0-1.4,0-1.7,0c-0.3,0-3.5,0-7.3,0c2.6-2.6,4.9-4.8,5.2-5.1
			c0.2-0.2,0.7-0.7,1.3-1.1c1-0.9,2-1.1,2.6-1.1c1,0,2,0.4,2.6,1.1C24.4,26.6,24.4,28.9,23,30.3z"/>
		<path class="st0" d="M10.2,22.9c-1-0.8-2.3-1.3-3.6-1.3c-1.7,0-3.2,0.7-4.3,1.8C0,25.8,0,29.5,2.4,31.9c0.9,0.9,2.1,1.5,3.3,1.7
			L8,31.4c-0.4,0-0.9,0-1.4,0c-1.4,0-2.2-0.5-2.6-1c-1.5-1.5-1.5-3.8-0.1-5.2c0.6-0.6,1.6-1,2.6-1.1C7.1,24,8,24.2,9,25
			c0.5,0.4,1.6,1.4,2,1.8l1.7-1.7C11.9,24.4,10.8,23.4,10.2,22.9z"/>
		<path class="st0" d="M21.1,20.3c-1.1-3.1-4.1-5.4-7.6-5.4c-4.1,0-7.4,2.9-7.9,6.8c0.3-0.1,0.6-0.1,1-0.1c0.5,0,0.9,0.1,1.4,0.2
			l0,0c0.5-2.6,2.8-4.6,5.6-4.6c2.3,0,4.3,1.4,5.2,3.3c0,0,0,0,0.1,0C19.6,20.3,20.4,20.2,21.1,20.3C21.1,20.4,21.1,20.4,21.1,20.3z
			"/>
	</g>
	<g>
		<path class="st1" d="M56.1,18.1h-7.6v1.1h2.3v4h-2.6v1.1h2.6v6.8h1.3v-6.8H55V31h2.3v-1.1h-1V18.1H56.1z M52,23.2v-4.1h2.9v4.1H52
			z"/>
		<rect x="34.9" y="28" class="st1" width="6" height="1.1"/>
		<path class="st1" d="M30.8,25.9c0,2-0.2,3.5-0.5,4.9c0,0.1,0,0.2,0.1,0.2c0,0,0.9,0,1.1,0c0.4-1.9,0.4-3.4,0.4-4.5h1.6V30h-1.1
			c-0.1,0-0.1,0-0.1,0.1l0.3,1h2v-13h-3.8C30.8,18.1,30.8,25.9,30.8,25.9z M31.8,25.5v-2.6h1.6v2.6H31.8z M33.4,19.3v2.6h-1.6v-2.6
			H33.4z"/>
		<path class="st1" d="M41.3,22.6h1.5v-1h-4.4c0.1-0.3,0.2-0.6,0.3-1h3.8v-1h-1c0.2-0.6,0.4-1.4,0.4-1.4c0-0.1,0-0.1-0.1-0.1h-0.9
			l-0.4,1.5H39c0.1-0.6,0.2-1.3,0.3-2c0-0.1,0-0.1-0.1-0.1c0,0-0.7,0-1,0c-0.1,0.7-0.2,1.5-0.4,2h-0.6L36.8,18h-0.9
			c0,0-0.1,0-0.1,0.1c0,0,0.2,0.7,0.4,1.4h-1v1h2.5c-0.1,0.3-0.2,0.7-0.4,1H35v1h1.8c-0.7,1-1.5,1.5-1.8,1.7c0,0.1,0,1.1,0,1.1
			c0,0.1,0,0.1,0.2,0c0.3-0.2,0.6-0.4,1-0.6h4.2v1.5h-3.2v-0.9c0,0,0-0.1-0.1-0.1s-1,0-1,0L35.8,27c0,0,0,0.1,0.1,0.1s5.6,0,5.6,0
			v2.7H39c-0.1,0-0.1,0-0.1,0.1l0.3,1h3.5v-4.8h-1.4v-2c0.5,0.5,1,0.8,1.5,1.1c0.2,0.1,0.2,0,0.2,0s0-1,0-1.1
			C42.8,24.1,42.1,23.6,41.3,22.6z M40,22.6c0.3,0.4,0.5,0.8,0.8,1.1h-3.6c0.3-0.3,0.5-0.7,0.8-1.1H40z"/>
		<path class="st1" d="M49.2,27.3c0,0-1,0.8-2.1,1.6v-7.2h-2.8V23H46v6.9c-0.4,0.3-0.6,0.5-0.6,0.5l0.6,0.8l3.3-2.5v-1.3
			C49.3,27.3,49.2,27.2,49.2,27.3z"/>
		<path class="st1" d="M46.1,20.5c0,0,1.3,0,1.4,0s0.1-0.1,0.1-0.1l-1.7-2.6c0,0-1.3,0-1.4,0l-0.1,0.1C44.5,18,46.1,20.5,46.1,20.5z
			"/>
		<rect x="59.8" y="18.4" class="st1" width="9.6" height="1.3"/>
		<path class="st1" d="M63.2,24.2h7.5v-1.3H58.4v1.3h3.4c-0.7,1.9-2.5,6.5-2.5,6.6s0,0.1,0.1,0.1H70c0,0,0.1,0,0.1-0.1l-1.6-4.2
			c0,0-1.3,0-1.4,0c0,0-0.1,0-0.1,0.1l1.1,2.9H61L63.2,24.2z"/>
	</g>
	<g>
		<path class="st1" d="M77.2,19.7v11.2h-1.3V19.7h-4.1v-1.3h9.6v1.3H77.2z"/>
		<path class="st1" d="M82.7,29.5v-1.4c1.3,1.3,3.2,1.6,4,1.6c0.9,0,1.8,0.1,2.7-0.4c0.5-0.3,0.9-0.8,1-1.4c0.1-0.8-0.3-1.3-0.7-1.7
			c-0.4-0.4-1.2-0.7-2.6-1c-1.4-0.3-2.8-0.2-3.9-1.4c-0.4-0.4-0.8-1.1-0.8-2.2c0-0.8,0.5-1.7,1.3-2.4c0.7-0.6,2.1-0.8,3.1-0.7
			c2.6,0.2,3.2,1,3.9,1.3V21c-0.7-0.3-1.9-1.4-4-1.4c-0.8,0-1.8,0.1-2.3,0.5s-0.9,0.8-0.9,1.4s0.1,1.4,0.9,1.8
			c0.4,0.2,1.7,0.5,2.9,0.7c1.4,0.3,2.6,0.8,3.2,1.4c0.7,0.7,0.9,1.7,0.9,2.3c0,1-0.6,1.9-1.4,2.4c-0.7,0.5-2.1,0.8-3.5,0.7
			C85.5,30.7,84.3,30.6,82.7,29.5z"/>
		<path class="st1" d="M97.6,30.5c-0.4,0.1-0.8,0.2-1.2,0.3c-1.9,0.3-2.2-0.7-2.2-2.2v-5.4h-1.4v-1h1.4v-2.4h1.3v2.4h2.6v1h-2.6v5.3
			c0,0.6-0.1,1,0.2,1.3c0.2,0.2,1.5-0.2,1.9-0.4C97.6,29.4,97.6,30.5,97.6,30.5z"/>
		<path class="st1" d="M105.6,30.7v-1.1v-0.1c-0.4,0.4-0.5,0.5-1,0.8s-1.3,0.4-1.9,0.4c-0.8,0-1.7-0.3-2-0.5c-0.5-0.4-1-0.7-1-1.8
			c-0.1-1.5,0.4-2.8,3-3h3c0-1.8-0.4-2.5-2.2-2.6c-0.9,0-2.4,0.3-3.3,1.1v-1.2c0.3-0.2,1.2-0.6,1.8-0.8c0.7-0.2,1.3-0.2,1.7-0.2
			c0.9,0,1.9,0.3,2.3,0.8c0.5,0.5,0.8,1.5,0.8,2.5v5.5h-1.2C105.6,30.5,105.6,30.7,105.6,30.7z M103.3,26.4c-1,0-1.7,0.1-2.1,0.5
			c-0.3,0.3-0.7,1-0.6,1.6s0.2,0.7,0.5,1s0.9,0.4,1.5,0.4c0.8,0,1.4-0.1,2-0.6s1-0.9,1-2.3v-0.5C105.6,26.5,105,26.4,103.3,26.4z"/>
		<path class="st1" d="M115.6,29.9c-0.6,0.4-1.2,0.8-2.9,0.9c-1.1,0.1-2.5-0.5-3.2-1.3s-1.1-1.7-1.1-3s0.3-2.5,1.1-3.4
			c0.8-0.9,1.9-1.3,3.2-1.3c0.6,0,1.5,0,3,0.9V24c-0.7-0.8-1.7-1.3-2.9-1.3c-1.4,0-2,0.6-2.3,0.9c-0.7,0.7-1,1.7-1,2.8
			c0,1.1,0.3,1.8,0.9,2.5c0.4,0.5,1.3,1,2.4,1c1.7-0.1,2.4-0.7,2.9-1.3L115.6,29.9L115.6,29.9z"/>
		<g>
			<path class="st1" d="M124.5,30.9h-1.3l-3.2-4.6l-1.7,1.7v2.9h-1.2V19.1h1.2v7.4l4.2-4.1h1.4l-3.1,3L124.5,30.9z"/>
		</g>
	</g>
</g>
</svg>
