<?xml version="1.0" encoding="utf-8"?>
<!-- Generator: Adobe Illustrator 22.0.1, SVG Export Plug-In . SVG Version: 6.00 Build 0)  -->
<svg version="1.1" id="图层_1" xmlns="http://www.w3.org/2000/svg" xmlns:xlink="http://www.w3.org/1999/xlink" x="0px" y="0px"
	 viewBox="0 0 125 48" style="enable-background:new 0 0 125 48;" xml:space="preserve">
<style type="text/css">
	.st0{fill-rule:evenodd;clip-rule:evenodd;fill:#AF1E24;}
	.st1{fill-rule:evenodd;clip-rule:evenodd;fill:#FFFFFF;}
	.st2{fill:#FFFFFF;}
	.st3{display:none;}
	.st4{display:inline;}
</style>
<g id="LOGO1">
	<g id="LOGO">
		<g>
			<path class="st0" d="M14.3,20.2c1.7,0,3.2,1.4,3.2,3.2s-1.4,3.2-3.2,3.2s-3.2-1.4-3.2-3.2S12.6,20.2,14.3,20.2z"/>
			<path class="st0" d="M18.4,24.3c1.7,0,3.2,1.4,3.2,3.2c0,1.7-1.4,3.2-3.2,3.2c-1.7,0-3.2-1.4-3.2-3.2
				C15.3,25.7,16.7,24.3,18.4,24.3z"/>
			<path class="st0" d="M11.2,23.4h5.7v7.3c0,0-4.2,0-5.4,0c-0.2,0-2,0-2,0s1.6-1.3,1.7-3.7C11.2,26.7,11.2,23.4,11.2,23.4z"/>
			<rect x="14.6" y="26.8" class="st0" width="3.8" height="3.8"/>
		</g>
		<g>
			<g>
				<path class="st1" d="M18.7,23.1c-0.2-2.3-2-4.1-4.4-4.1c-2.4,0-4.4,2-4.4,4.4c0,0,0,1.7,0,3.9C9.7,29.8,6,31.9,6,31.9
					s4.5,0,5.4,0c2.5,0,7,0,7,0c2.4,0,4.4-2,4.4-4.4C22.8,25.1,21,23.2,18.7,23.1z M18.4,30.6l-1.6,0v0c0,0-4.2,0-5.4,0
					c-0.2,0-2,0-2,0s1.6-1.3,1.7-3.7c0-0.2,0-3.5,0-3.5c0-1.7,1.4-3.2,3.2-3.2s3.2,1.4,3.2,3.2c0,0.4-0.1,0.8-0.2,1.2
					c0.4-0.1,0.8-0.2,1.2-0.2c1.7,0,3.2,1.4,3.2,3.2C21.6,29.2,20.2,30.6,18.4,30.6z"/>
			</g>
		</g>
		<g>
			<g>
				<path class="st1" d="M5.5,30.6c-2.1,0-3.8-1.7-3.8-3.8c0-1.3,0.6-2.4,1.6-3.1c0-0.3-0.1-0.6-0.1-0.9c0-0.2,0-0.3,0-0.5
					c-1.7,0.8-2.8,2.5-2.8,4.5c0,2.8,2.3,5,5,5.1V30.6z"/>
			</g>
		</g>
		<g>
			<g>
				<path class="st1" d="M9.9,26.8c0,2.1-1.7,3.8-3.8,3.8c0,0,0,0,0,0c0,0.2,0,0.3,0,0.5c0,0.3,0,0.5-0.1,0.8c0,0,0,0,0.1,0
					c2.8,0,5-2.3,5-5H9.9z"/>
			</g>
		</g>
		<g>
			<g>
				<path class="st1" d="M6.8,25.7c-0.6-0.7-1-1.7-1-2.7c0-2.4,2-4.4,4.4-4.4c0.3,0,0.6,0,0.9,0.1c0.5-0.3,1.1-0.6,1.7-0.7
					c-0.8-0.4-1.7-0.7-2.6-0.7c-3.1,0-5.7,2.5-5.7,5.7c0,1.4,0.5,2.8,1.4,3.8C6.2,26.3,6.5,26,6.8,25.7z"/>
			</g>
		</g>
		<rect x="5.4" y="30.6" class="st1" width="1.2" height="1.3"/>
	</g>
	<g id="AWSTACK_1_">
		<g>
			<path class="st2" d="M39.9,31.6h-3.3l-1.1-3.2h-5.1l-1,3.2h-3.3l5.1-14.1h3.5L39.9,31.6z M34.9,26l-1.6-4.9
				c-0.1-0.3-0.2-0.7-0.2-1.2H33c0,0.4-0.1,0.8-0.2,1.2L31.2,26H34.9z"/>
			<path class="st2" d="M60,17.5l-3.8,14.1h-3.3l-2.4-9.2c-0.1-0.5-0.2-1-0.2-1.6h0c-0.1,0.6-0.1,1.1-0.3,1.6l-2.5,9.2h-3.5
				l-3.8-14.1h3.3l2.1,9.5c0.1,0.4,0.2,0.9,0.2,1.6H46c0-0.5,0.1-1,0.3-1.6l2.6-9.5h3.2l2.4,9.6c0.1,0.4,0.2,0.9,0.2,1.5h0
				c0-0.5,0.1-1,0.2-1.5l2-9.6H60z"/>
			<path class="st2" d="M61.9,28c1.1,0.9,2.4,1.4,3.9,1.4c0.8,0,1.4-0.1,1.8-0.4c0.4-0.3,0.6-0.6,0.6-1.1c0-0.4-0.2-0.7-0.5-1.1
				c-0.3-0.3-1.2-0.8-2.6-1.4c-2.2-0.9-3.3-2.3-3.3-4.1c0-1.3,0.5-2.3,1.5-3c1-0.7,2.3-1.1,4-1.1c1.4,0,2.5,0.2,3.5,0.5v2.8
				c-0.9-0.6-2-1-3.3-1c-0.7,0-1.3,0.1-1.8,0.4c-0.4,0.3-0.7,0.6-0.7,1.1c0,0.4,0.2,0.7,0.5,1c0.3,0.3,1.1,0.7,2.2,1.2
				c1.4,0.6,2.4,1.2,2.9,1.9c0.5,0.7,0.8,1.5,0.8,2.4c0,1.4-0.5,2.4-1.4,3.1c-1,0.7-2.3,1.1-4.1,1.1c-1.6,0-2.9-0.3-4-0.8V28z"/>
			<path class="st2" d="M84.2,20h-4v11.6h-3V20h-4v-2.5h11V20z"/>
			<path class="st2" d="M97.7,31.6h-3.3l-1.1-3.2h-5.1l-1,3.2H84l5.1-14.1h3.5L97.7,31.6z M92.6,26L91,21.1
				c-0.1-0.3-0.2-0.7-0.2-1.2h-0.1c0,0.4-0.1,0.8-0.2,1.2L88.9,26H92.6z"/>
			<path class="st2" d="M109.9,31.1c-1,0.5-2.4,0.8-4,0.8c-2.1,0-3.8-0.6-5-1.9c-1.2-1.3-1.9-3-1.9-5.1c0-2.2,0.7-4,2.1-5.5
				c1.4-1.4,3.2-2.1,5.4-2.1c1.4,0,2.5,0.2,3.5,0.5v2.9c-1-0.6-2-0.8-3.2-0.8c-1.4,0-2.5,0.4-3.3,1.3c-0.8,0.9-1.2,2-1.2,3.4
				c0,1.4,0.4,2.5,1.2,3.3c0.8,0.8,1.8,1.3,3.2,1.3c1.3,0,2.4-0.3,3.4-0.9V31.1z"/>
			<path class="st2" d="M124.6,31.6h-3.8l-4.3-6.1c-0.1-0.2-0.2-0.4-0.4-0.7h0v6.9h-3V17.5h3v6.6h0c0.1-0.3,0.3-0.5,0.4-0.8l4-5.9
				h3.6l-5,6.7L124.6,31.6z"/>
		</g>
	</g>
	<g id="字母_1_" class="st3">
		<g class="st4">
			<path class="st2" d="M39.8,31.6h-3.3l-1.1-3.2h-5.1l-1,3.2h-3.3l5.1-14.1h3.5L39.8,31.6z M34.8,26l-1.6-4.9
				c-0.1-0.3-0.2-0.7-0.2-1.2h-0.1c0,0.4-0.1,0.8-0.2,1.2L31.1,26H34.8z"/>
			<path class="st2" d="M59.2,17.5l-3.8,14.1h-3.3l-2.4-9.2c-0.1-0.5-0.2-1-0.2-1.6h0c-0.1,0.6-0.1,1.1-0.3,1.6l-2.5,9.2h-3.5
				l-3.8-14.1h3.3l2.1,9.5c0.1,0.4,0.2,0.9,0.2,1.6h0.1c0-0.5,0.1-1,0.3-1.6l2.6-9.5h3.2l2.4,9.6c0.1,0.4,0.2,0.9,0.2,1.5h0
				c0-0.5,0.1-1,0.2-1.5l2-9.6H59.2z"/>
			<path class="st2" d="M71,31.1c-1,0.5-2.4,0.8-4,0.8c-2.1,0-3.8-0.6-5-1.9c-1.2-1.3-1.9-3-1.9-5.1c0-2.2,0.7-4,2.1-5.5
				c1.4-1.4,3.2-2.1,5.4-2.1c1.4,0,2.5,0.2,3.5,0.5v2.9c-1-0.6-2-0.8-3.2-0.8c-1.4,0-2.5,0.4-3.3,1.3c-0.8,0.9-1.2,2-1.2,3.4
				c0,1.4,0.4,2.5,1.2,3.3c0.8,0.8,1.8,1.3,3.2,1.3c1.3,0,2.4-0.3,3.4-0.9V31.1z"/>
			<path class="st2" d="M81.7,31.6h-8.3V17.5h3v11.6h5.3V31.6z"/>
			<path class="st2" d="M82.3,24.7c0-2.2,0.6-4,1.9-5.4c1.3-1.4,3-2.1,5.1-2.1c2,0,3.6,0.7,4.9,2c1.2,1.3,1.8,3.1,1.8,5.2
				c0,2.2-0.6,4-1.9,5.3c-1.3,1.4-2.9,2-5,2c-2,0-3.7-0.7-4.9-2C82.9,28.5,82.3,26.8,82.3,24.7z M85.4,24.6c0,1.4,0.3,2.5,1,3.4
				c0.7,0.9,1.6,1.3,2.7,1.3c1.2,0,2.1-0.4,2.7-1.2c0.7-0.8,1-2,1-3.4c0-1.5-0.3-2.6-1-3.5c-0.6-0.9-1.5-1.3-2.7-1.3
				c-1.2,0-2.1,0.4-2.8,1.3C85.8,22,85.4,23.2,85.4,24.6z"/>
			<path class="st2" d="M109.7,25.5c0,4.2-1.9,6.3-5.8,6.3c-3.8,0-5.6-2-5.6-6.1v-8.2h3v8.2c0,2.3,0.9,3.5,2.8,3.5
				c1.8,0,2.7-1.1,2.7-3.4v-8.3h3V25.5z"/>
			<path class="st2" d="M112.8,31.6V17.5h4.9c5,0,7.5,2.3,7.5,6.9c0,2.2-0.7,3.9-2.1,5.2c-1.4,1.3-3.2,2-5.4,2H112.8z M115.8,20v9.2
				h1.6c1.4,0,2.5-0.4,3.4-1.3c0.8-0.8,1.2-2,1.2-3.4c0-1.4-0.4-2.5-1.3-3.3c-0.8-0.8-1.9-1.2-3.3-1.2H115.8z"/>
		</g>
	</g>
</g>
</svg>
